{"glyphs":{"0":{"ha":228,"x_min":0,"x_max":0,"o":""},"1":{"ha":-142,"x_min":0,"x_max":0,"o":""},"2":{"ha":133,"x_min":0,"x_max":0,"o":""},"3":{"ha":25,"x_min":0,"x_max":0,"o":""},"4":{"ha":124,"x_min":0,"x_max":0,"o":""},"5":{"ha":-1,"x_min":0,"x_max":0,"o":""},"6":{"ha":72,"x_min":0,"x_max":0,"o":""},"7":{"ha":108,"x_min":0,"x_max":0,"o":""},"8":{"ha":189,"x_min":0,"x_max":0,"o":""},"9":{"ha":122,"x_min":0,"x_max":0,"o":""},"\u0000":{"ha":-389,"x_min":0,"x_max":0,"o":""},"!":{"ha":-222,"x_min":0,"x_max":0,"o":""},"\"":{"ha":-206,"x_min":0,"x_max":0,"o":""},"#":{"ha":221,"x_min":0,"x_max":0,"o":""},"$":{"ha":201,"x_min":0,"x_max":0,"o":""},"%":{"ha":350,"x_min":0,"x_max":0,"o":""},"'":{"ha":-367,"x_min":0,"x_max":0,"o":""},"(":{"ha":-171,"x_min":0,"x_max":0,"o":""},")":{"ha":-171,"x_min":0,"x_max":0,"o":""},"*":{"ha":65,"x_min":0,"x_max":0,"o":""},"+":{"ha":204,"x_min":0,"x_max":0,"o":""},",":{"ha":-244,"x_min":0,"x_max":0,"o":""},"-":{"ha":58,"x_min":0,"x_max":0,"o":""},".":{"ha":-244,"x_min":0,"x_max":0,"o":""},"/":{"ha":111,"x_min":0,"x_max":0,"o":""},":":{"ha":-244,"x_min":0,"x_max":0,"o":""},";":{"ha":-244,"x_min":0,"x_max":0,"o":""},"<":{"ha":186,"x_min":0,"x_max":0,"o":""},"=":{"ha":206,"x_min":0,"x_max":0,"o":""},">":{"ha":186,"x_min":0,"x_max":0,"o":""},"?":{"ha":43,"x_min":0,"x_max":0,"o":""},"A":{"ha":325,"x_min":0,"x_max":0,"o":""},"B":{"ha":129,"x_min":0,"x_max":0,"o":""},"C":{"ha":269,"x_min":0,"x_max":0,"o":""},"D":{"ha":175,"x_min":0,"x_max":0,"o":""},"E":{"ha":196,"x_min":0,"x_max":0,"o":""},"F":{"ha":147,"x_min":0,"x_max":0,"o":""},"G":{"ha":306,"x_min":0,"x_max":0,"o":""},"H":{"ha":242,"x_min":0,"x_max":0,"o":""},"I":{"ha":-54,"x_min":0,"x_max":0,"o":""},"J":{"ha":104,"x_min":0,"x_max":0,"o":""},"K":{"ha":213,"x_min":0,"x_max":0,"o":""},"L":{"ha":110,"x_min":0,"x_max":0,"o":""},"M":{"ha":403,"x_min":0,"x_max":0,"o":""},"N":{"ha":290,"x_min":0,"x_max":0,"o":""},"O":{"ha":269,"x_min":0,"x_max":0,"o":""},"P":{"ha":100,"x_min":0,"x_max":0,"o":""},"Q":{"ha":332,"x_min":0,"x_max":0,"o":""},"R":{"ha":176,"x_min":0,"x_max":0,"o":""},"S":{"ha":146,"x_min":0,"x_max":0,"o":""},"T":{"ha":207,"x_min":0,"x_max":0,"o":""},"U":{"ha":310,"x_min":0,"x_max":0,"o":""},"V":{"ha":324,"x_min":0,"x_max":0,"o":""},"W":{"ha":403,"x_min":0,"x_max":0,"o":""},"X":{"ha":278,"x_min":0,"x_max":0,"o":""},"Y":{"ha":269,"x_min":0,"x_max":0,"o":""},"Z":{"ha":249,"x_min":0,"x_max":0,"o":""},"[":{"ha":-37,"x_min":0,"x_max":0,"o":""},"¥":{"ha":269,"x_min":0,"x_max":0,"o":""},"]":{"ha":-37,"x_min":0,"x_max":0,"o":""},"^":{"ha":356,"x_min":0,"x_max":0,"o":""},"_":{"ha":167,"x_min":0,"x_max":0,"o":""},"`":{"ha":-428,"x_min":0,"x_max":0,"o":""},"a":{"ha":214,"x_min":0,"x_max":0,"o":""},"b":{"ha":124,"x_min":0,"x_max":0,"o":""},"c":{"ha":135,"x_min":0,"x_max":0,"o":""},"d":{"ha":132,"x_min":0,"x_max":0,"o":""},"e":{"ha":239,"x_min":0,"x_max":0,"o":""},"f":{"ha":25,"x_min":0,"x_max":0,"o":""},"g":{"ha":131,"x_min":0,"x_max":0,"o":""},"h":{"ha":122,"x_min":0,"x_max":0,"o":""},"i":{"ha":-32,"x_min":0,"x_max":0,"o":""},"j":{"ha":61,"x_min":0,"x_max":0,"o":""},"k":{"ha":126,"x_min":0,"x_max":0,"o":""},"l":{"ha":-140,"x_min":0,"x_max":0,"o":""},"m":{"ha":0,"x_min":0,"x_max":0,"o":""},"n":{"ha":0,"x_min":0,"x_max":0,"o":""},"o":{"ha":225,"x_min":0,"x_max":0,"o":""},"p":{"ha":124,"x_min":0,"x_max":0,"o":""},"q":{"ha":138,"x_min":0,"x_max":0,"o":""},"r":{"ha":43,"x_min":0,"x_max":0,"o":""},"s":{"ha":132,"x_min":0,"x_max":0,"o":""},"t":{"ha":51,"x_min":0,"x_max":0,"o":""},"u":{"ha":150,"x_min":0,"x_max":0,"o":""},"v":{"ha":278,"x_min":0,"x_max":0,"o":""},"w":{"ha":621,"x_min":0,"x_max":0,"o":""},"x":{"ha":204,"x_min":0,"x_max":0,"o":""},"y":{"ha":285,"x_min":0,"x_max":0,"o":""},"z":{"ha":74,"x_min":0,"x_max":0,"o":""},"{":{"ha":-65,"x_min":0,"x_max":0,"o":""},"}":{"ha":-65,"x_min":0,"x_max":0,"o":""},"ʼ":{"ha":0,"x_min":0,"x_max":0,"o":""},"\\":{"ha":110,"x_min":0,"x_max":0,"o":""},"ʻ":{"ha":0,"x_min":0,"x_max":0,"o":""},"~":{"ha":286,"x_min":0,"x_max":0,"o":""},"¡":{"ha":-222,"x_min":0,"x_max":0,"o":""},"¢":{"ha":268,"x_min":0,"x_max":0,"o":""},"£":{"ha":268,"x_min":0,"x_max":0,"o":""},"⁄":{"ha":0,"x_min":0,"x_max":0,"o":""},"ƒ":{"ha":269,"x_min":0,"x_max":0,"o":""},"¤":{"ha":414,"x_min":0,"x_max":0,"o":""},"“":{"ha":0,"x_min":0,"x_max":0,"o":""},"«":{"ha":221,"x_min":0,"x_max":0,"o":""},"‹":{"ha":47,"x_min":0,"x_max":0,"o":""},"›":{"ha":47,"x_min":0,"x_max":0,"o":""},"ﬁ":{"ha":1,"x_min":0,"x_max":0,"o":""},"ﬂ":{"ha":1,"x_min":0,"x_max":0,"o":""},"‒":{"ha":58,"x_min":0,"x_max":0,"o":""},"·":{"ha":-111,"x_min":0,"x_max":0,"o":""},"•":{"ha":0,"x_min":0,"x_max":0,"o":""},"‚":{"ha":-246,"x_min":0,"x_max":0,"o":""},"„":{"ha":-46,"x_min":0,"x_max":0,"o":""},"”":{"ha":0,"x_min":0,"x_max":0,"o":""},"»":{"ha":219,"x_min":0,"x_max":0,"o":""},"¿":{"ha":43,"x_min":0,"x_max":0,"o":""},"́":{"ha":0,"x_min":0,"x_max":0,"o":""},"¯":{"ha":-162,"x_min":0,"x_max":0,"o":""},"̆":{"ha":0,"x_min":0,"x_max":0,"o":""},"̇":{"ha":0,"x_min":0,"x_max":0,"o":""},"̈":{"ha":0,"x_min":0,"x_max":0,"o":""},"¸":{"ha":-381,"x_min":0,"x_max":0,"o":""},"̋":{"ha":0,"x_min":0,"x_max":0,"o":""},"̨":{"ha":0,"x_min":0,"x_max":0,"o":""},"̌":{"ha":0,"x_min":0,"x_max":0,"o":""},"̶":{"ha":0,"x_min":0,"x_max":0,"o":""},"Æ":{"ha":597,"x_min":0,"x_max":0,"o":""},"ª":{"ha":-132,"x_min":0,"x_max":0,"o":""},"Ł":{"ha":179,"x_min":0,"x_max":0,"o":""},"Ø":{"ha":276,"x_min":0,"x_max":0,"o":""},"Œ":{"ha":694,"x_min":0,"x_max":0,"o":""},"º":{"ha":-107,"x_min":0,"x_max":0,"o":""},"æ":{"ha":279,"x_min":0,"x_max":0,"o":""},"ı":{"ha":-206,"x_min":0,"x_max":0,"o":""},"ł":{"ha":-192,"x_min":0,"x_max":0,"o":""},"ø":{"ha":-44,"x_min":0,"x_max":0,"o":""},"œ":{"ha":392,"x_min":0,"x_max":0,"o":""},"ß":{"ha":28,"x_min":0,"x_max":0,"o":""},"¬":{"ha":215,"x_min":0,"x_max":0,"o":""},"²":{"ha":0,"x_min":0,"x_max":0,"o":""},"³":{"ha":0,"x_min":0,"x_max":0,"o":""},"µ":{"ha":164,"x_min":0,"x_max":0,"o":""},"¹":{"ha":0,"x_min":0,"x_max":0,"o":""},"¼":{"ha":0,"x_min":0,"x_max":0,"o":""},"½":{"ha":0,"x_min":0,"x_max":0,"o":""},"¾":{"ha":0,"x_min":0,"x_max":0,"o":""},"À":{"ha":335,"x_min":0,"x_max":0,"o":""},"Á":{"ha":335,"x_min":0,"x_max":0,"o":""},"Â":{"ha":336,"x_min":0,"x_max":0,"o":""},"Ã":{"ha":338,"x_min":0,"x_max":0,"o":""},"Ä":{"ha":339,"x_min":0,"x_max":0,"o":""},"Å":{"ha":333,"x_min":0,"x_max":0,"o":""},"Ç":{"ha":200,"x_min":0,"x_max":0,"o":""},"È":{"ha":106,"x_min":0,"x_max":0,"o":""},"É":{"ha":106,"x_min":0,"x_max":0,"o":""},"Ê":{"ha":101,"x_min":0,"x_max":0,"o":""},"Ë":{"ha":107,"x_min":0,"x_max":0,"o":""},"Ì":{"ha":-133,"x_min":0,"x_max":0,"o":""},"Í":{"ha":-119,"x_min":0,"x_max":0,"o":""},"Î":{"ha":-89,"x_min":0,"x_max":0,"o":""},"Ï":{"ha":-71,"x_min":0,"x_max":0,"o":""},"Ð":{"ha":274,"x_min":0,"x_max":0,"o":""},"Ñ":{"ha":458,"x_min":0,"x_max":0,"o":""},"Ò":{"ha":274,"x_min":0,"x_max":0,"o":""},"Ó":{"ha":272,"x_min":0,"x_max":0,"o":""},"Ô":{"ha":275,"x_min":0,"x_max":0,"o":""},"Õ":{"ha":272,"x_min":0,"x_max":0,"o":""},"Ö":{"ha":275,"x_min":0,"x_max":0,"o":""},"Ù":{"ha":428,"x_min":0,"x_max":0,"o":""},"Ú":{"ha":429,"x_min":0,"x_max":0,"o":""},"Û":{"ha":431,"x_min":0,"x_max":0,"o":""},"Ü":{"ha":429,"x_min":0,"x_max":0,"o":""},"Ý":{"ha":217,"x_min":0,"x_max":0,"o":""},"Þ":{"ha":103,"x_min":0,"x_max":0,"o":""},"à":{"ha":-49,"x_min":0,"x_max":0,"o":""},"á":{"ha":-50,"x_min":0,"x_max":0,"o":""},"â":{"ha":-49,"x_min":0,"x_max":0,"o":""},"ã":{"ha":-50,"x_min":0,"x_max":0,"o":""},"ä":{"ha":-50,"x_min":0,"x_max":0,"o":""},"å":{"ha":-49,"x_min":0,"x_max":0,"o":""},"ç":{"ha":-44,"x_min":0,"x_max":0,"o":""},"è":{"ha":-112,"x_min":0,"x_max":0,"o":""},"é":{"ha":-112,"x_min":0,"x_max":0,"o":""},"ê":{"ha":-112,"x_min":0,"x_max":0,"o":""},"ë":{"ha":-112,"x_min":0,"x_max":0,"o":""},"ì":{"ha":-194,"x_min":0,"x_max":0,"o":""},"í":{"ha":-203,"x_min":0,"x_max":0,"o":""},"î":{"ha":-254,"x_min":0,"x_max":0,"o":""},"ï":{"ha":-276,"x_min":0,"x_max":0,"o":""},"ð":{"ha":-53,"x_min":0,"x_max":0,"o":""},"ñ":{"ha":100,"x_min":0,"x_max":0,"o":""},"ò":{"ha":-72,"x_min":0,"x_max":0,"o":""},"ó":{"ha":-72,"x_min":0,"x_max":0,"o":""},"ô":{"ha":-72,"x_min":0,"x_max":0,"o":""},"õ":{"ha":-72,"x_min":0,"x_max":0,"o":""},"ö":{"ha":-72,"x_min":0,"x_max":0,"o":""},"ù":{"ha":11,"x_min":0,"x_max":0,"o":""},"ú":{"ha":11,"x_min":0,"x_max":0,"o":""},"û":{"ha":11,"x_min":0,"x_max":0,"o":""},"ü":{"ha":11,"x_min":0,"x_max":0,"o":""},"ý":{"ha":42,"x_min":0,"x_max":0,"o":""},"þ":{"ha":-81,"x_min":0,"x_max":0,"o":""},"ÿ":{"ha":40,"x_min":0,"x_max":0,"o":""},"Š":{"ha":22,"x_min":0,"x_max":0,"o":""},"Ÿ":{"ha":217,"x_min":0,"x_max":0,"o":""},"Ž":{"ha":243,"x_min":0,"x_max":0,"o":""},"š":{"ha":-194,"x_min":0,"x_max":0,"o":""},"ž":{"ha":-85,"x_min":0,"x_max":0,"o":""},"｡":{"ha":-111,"x_min":0,"x_max":0,"o":""},"｢":{"ha":-111,"x_min":0,"x_max":0,"o":""},"｣":{"ha":-111,"x_min":0,"x_max":0,"o":""},"､":{"ha":-111,"x_min":0,"x_max":0,"o":""},"･":{"ha":-111,"x_min":0,"x_max":0,"o":""},"ｦ":{"ha":-111,"x_min":0,"x_max":0,"o":""},"ｧ":{"ha":-111,"x_min":0,"x_max":0,"o":""},"ｨ":{"ha":-111,"x_min":0,"x_max":0,"o":""},"ｩ":{"ha":-111,"x_min":0,"x_max":0,"o":""},"ｪ":{"ha":-111,"x_min":0,"x_max":0,"o":""},"ｫ":{"ha":-111,"x_min":0,"x_max":0,"o":""},"ｬ":{"ha":-111,"x_min":0,"x_max":0,"o":""},"ｭ":{"ha":-111,"x_min":0,"x_max":0,"o":""},"ｮ":{"ha":-111,"x_min":0,"x_max":0,"o":""},"ｯ":{"ha":-111,"x_min":0,"x_max":0,"o":""},"ｰ":{"ha":-111,"x_min":0,"x_max":0,"o":""},"ｱ":{"ha":-111,"x_min":0,"x_max":0,"o":""},"ｲ":{"ha":-111,"x_min":0,"x_max":0,"o":""},"ｳ":{"ha":-111,"x_min":0,"x_max":0,"o":""},"ｴ":{"ha":-111,"x_min":0,"x_max":0,"o":""},"ｵ":{"ha":-111,"x_min":0,"x_max":0,"o":""},"ｶ":{"ha":-111,"x_min":0,"x_max":0,"o":""},"ｷ":{"ha":-111,"x_min":0,"x_max":0,"o":""},"ｸ":{"ha":-111,"x_min":0,"x_max":0,"o":""},"ｹ":{"ha":-111,"x_min":0,"x_max":0,"o":""},"ｺ":{"ha":-111,"x_min":0,"x_max":0,"o":""},"ｻ":{"ha":-111,"x_min":0,"x_max":0,"o":""},"ｼ":{"ha":-111,"x_min":0,"x_max":0,"o":""},"ｽ":{"ha":-111,"x_min":0,"x_max":0,"o":""},"ｾ":{"ha":-111,"x_min":0,"x_max":0,"o":""},"ｿ":{"ha":-111,"x_min":0,"x_max":0,"o":""},"ﾀ":{"ha":-111,"x_min":0,"x_max":0,"o":""},"ﾁ":{"ha":-111,"x_min":0,"x_max":0,"o":""},"ﾂ":{"ha":-111,"x_min":0,"x_max":0,"o":""},"ﾃ":{"ha":-111,"x_min":0,"x_max":0,"o":""},"ﾄ":{"ha":-111,"x_min":0,"x_max":0,"o":""},"ﾅ":{"ha":-111,"x_min":0,"x_max":0,"o":""},"ﾆ":{"ha":-111,"x_min":0,"x_max":0,"o":""},"ﾇ":{"ha":-111,"x_min":0,"x_max":0,"o":""},"ﾈ":{"ha":-111,"x_min":0,"x_max":0,"o":""},"ﾉ":{"ha":-111,"x_min":0,"x_max":0,"o":""},"ﾊ":{"ha":-111,"x_min":0,"x_max":0,"o":""},"ﾋ":{"ha":-111,"x_min":0,"x_max":0,"o":""},"ﾌ":{"ha":-111,"x_min":0,"x_max":0,"o":""},"ﾍ":{"ha":-111,"x_min":0,"x_max":0,"o":""},"ﾎ":{"ha":-111,"x_min":0,"x_max":0,"o":""},"ﾏ":{"ha":-111,"x_min":0,"x_max":0,"o":""},"ﾐ":{"ha":-111,"x_min":0,"x_max":0,"o":""},"ﾑ":{"ha":-111,"x_min":0,"x_max":0,"o":""},"ﾒ":{"ha":-111,"x_min":0,"x_max":0,"o":""},"ﾓ":{"ha":-111,"x_min":0,"x_max":0,"o":""},"ﾔ":{"ha":-111,"x_min":0,"x_max":0,"o":""},"ﾕ":{"ha":-111,"x_min":0,"x_max":0,"o":""},"ﾖ":{"ha":-111,"x_min":0,"x_max":0,"o":""},"ﾗ":{"ha":-111,"x_min":0,"x_max":0,"o":""},"ﾘ":{"ha":-111,"x_min":0,"x_max":0,"o":""},"ﾙ":{"ha":-111,"x_min":0,"x_max":0,"o":""},"ﾚ":{"ha":-111,"x_min":0,"x_max":0,"o":""},"ﾛ":{"ha":-111,"x_min":0,"x_max":0,"o":""},"ﾜ":{"ha":-111,"x_min":0,"x_max":0,"o":""},"ﾝ":{"ha":-111,"x_min":0,"x_max":0,"o":""}," ":{"ha":0,"x_min":0,"x_max":0,"o":""},"、":{"ha":0,"x_min":0,"x_max":0,"o":"m 194 138 b 383 -68 344 46 383 -68 b 296 261 383 -68 515 93 z "},"。":{"ha":0,"x_min":0,"x_max":0,"o":"m 511 88 b 342 261 513 186 449 261 b 194 86 251 261 194 196 b 342 -53 194 -28 293 -53 b 511 88 444 -53 510 13 z m 289 82 b 449 88 289 214 444 193 b 289 82 449 6 289 -24 z "},"，":{"ha":0,"x_min":0,"x_max":0,"o":""},"．":{"ha":0,"x_min":0,"x_max":0,"o":""},"・":{"ha":0,"x_min":0,"x_max":0,"o":""},"：":{"ha":0,"x_min":0,"x_max":0,"o":""},"；":{"ha":0,"x_min":0,"x_max":0,"o":""},"？":{"ha":0,"x_min":0,"x_max":0,"o":""},"！":{"ha":0,"x_min":0,"x_max":0,"o":""},"゛":{"ha":0,"x_min":0,"x_max":0,"o":""},"゜":{"ha":0,"x_min":0,"x_max":0,"o":""},"＿":{"ha":0,"x_min":0,"x_max":0,"o":""},"ヽ":{"ha":0,"x_min":0,"x_max":0,"o":""},"ヾ":{"ha":0,"x_min":0,"x_max":0,"o":""},"ゝ":{"ha":0,"x_min":0,"x_max":0,"o":""},"ゞ":{"ha":0,"x_min":0,"x_max":0,"o":""},"〃":{"ha":0,"x_min":0,"x_max":0,"o":""},"仝":{"ha":0,"x_min":0,"x_max":0,"o":""},"々":{"ha":0,"x_min":0,"x_max":0,"o":""},"ー":{"ha":0,"x_min":0,"x_max":0,"o":"m 326 308 b 1063 318 326 308 536 308 l 1063 446 "},"―":{"ha":0,"x_min":0,"x_max":0,"o":""},"／":{"ha":0,"x_min":0,"x_max":0,"o":""},"＼":{"ha":0,"x_min":0,"x_max":0,"o":""},"〜":{"ha":0,"x_min":0,"x_max":0,"o":""},"‖":{"ha":76,"x_min":0,"x_max":0,"o":""},"｜":{"ha":0,"x_min":0,"x_max":0,"o":""},"…":{"ha":0,"x_min":0,"x_max":0,"o":""},"（":{"ha":0,"x_min":0,"x_max":0,"o":""},"）":{"ha":0,"x_min":0,"x_max":0,"o":""},"〔":{"ha":0,"x_min":0,"x_max":0,"o":""},"〕":{"ha":0,"x_min":0,"x_max":0,"o":""},"［":{"ha":0,"x_min":0,"x_max":0,"o":""},"］":{"ha":0,"x_min":0,"x_max":0,"o":""},"｛":{"ha":0,"x_min":0,"x_max":0,"o":""},"｝":{"ha":0,"x_min":0,"x_max":0,"o":""},"〈":{"ha":0,"x_min":0,"x_max":0,"o":""},"〉":{"ha":0,"x_min":0,"x_max":0,"o":""},"《":{"ha":0,"x_min":0,"x_max":0,"o":""},"》":{"ha":0,"x_min":0,"x_max":0,"o":""},"「":{"ha":0,"x_min":0,"x_max":0,"o":""},"」":{"ha":0,"x_min":0,"x_max":0,"o":""},"『":{"ha":0,"x_min":0,"x_max":0,"o":""},"』":{"ha":0,"x_min":0,"x_max":0,"o":""},"【":{"ha":0,"x_min":0,"x_max":0,"o":""},"】":{"ha":0,"x_min":0,"x_max":0,"o":""},"＋":{"ha":0,"x_min":0,"x_max":0,"o":""},"−":{"ha":0,"x_min":0,"x_max":0,"o":""},"＝":{"ha":0,"x_min":0,"x_max":0,"o":""},"＜":{"ha":0,"x_min":0,"x_max":0,"o":""},"＞":{"ha":0,"x_min":0,"x_max":0,"o":""},"￥":{"ha":0,"x_min":0,"x_max":0,"o":""},"＄":{"ha":0,"x_min":0,"x_max":0,"o":""},"％":{"ha":0,"x_min":0,"x_max":0,"o":""},"＃":{"ha":0,"x_min":0,"x_max":0,"o":""},"＆":{"ha":0,"x_min":0,"x_max":0,"o":""},"＊":{"ha":0,"x_min":0,"x_max":0,"o":""},"＠":{"ha":0,"x_min":0,"x_max":0,"o":""},"※":{"ha":0,"x_min":0,"x_max":0,"o":""},"→":{"ha":0,"x_min":0,"x_max":0,"o":""},"←":{"ha":0,"x_min":0,"x_max":0,"o":""},"↑":{"ha":0,"x_min":0,"x_max":0,"o":""},"↓":{"ha":0,"x_min":0,"x_max":0,"o":""},"‰":{"ha":0,"x_min":0,"x_max":0,"o":""},"０":{"ha":0,"x_min":0,"x_max":0,"o":""},"１":{"ha":0,"x_min":0,"x_max":0,"o":""},"２":{"ha":0,"x_min":0,"x_max":0,"o":""},"３":{"ha":0,"x_min":0,"x_max":0,"o":""},"４":{"ha":0,"x_min":0,"x_max":0,"o":""},"５":{"ha":0,"x_min":0,"x_max":0,"o":""},"６":{"ha":0,"x_min":0,"x_max":0,"o":""},"７":{"ha":0,"x_min":0,"x_max":0,"o":""},"８":{"ha":0,"x_min":0,"x_max":0,"o":""},"９":{"ha":0,"x_min":0,"x_max":0,"o":""},"Ａ":{"ha":0,"x_min":0,"x_max":0,"o":""},"Ｂ":{"ha":0,"x_min":0,"x_max":0,"o":""},"Ｃ":{"ha":0,"x_min":0,"x_max":0,"o":""},"Ｄ":{"ha":0,"x_min":0,"x_max":0,"o":""},"Ｅ":{"ha":0,"x_min":0,"x_max":0,"o":""},"Ｆ":{"ha":0,"x_min":0,"x_max":0,"o":""},"Ｇ":{"ha":0,"x_min":0,"x_max":0,"o":""},"Ｈ":{"ha":0,"x_min":0,"x_max":0,"o":""},"Ｉ":{"ha":0,"x_min":0,"x_max":0,"o":""},"Ｊ":{"ha":0,"x_min":0,"x_max":0,"o":""},"Ｋ":{"ha":0,"x_min":0,"x_max":0,"o":""},"Ｌ":{"ha":0,"x_min":0,"x_max":0,"o":""},"Ｍ":{"ha":0,"x_min":0,"x_max":0,"o":""},"Ｎ":{"ha":0,"x_min":0,"x_max":0,"o":""},"Ｏ":{"ha":0,"x_min":0,"x_max":0,"o":""},"Ｐ":{"ha":0,"x_min":0,"x_max":0,"o":""},"Ｑ":{"ha":0,"x_min":0,"x_max":0,"o":""},"Ｒ":{"ha":0,"x_min":0,"x_max":0,"o":""},"Ｓ":{"ha":0,"x_min":0,"x_max":0,"o":""},"Ｔ":{"ha":0,"x_min":0,"x_max":0,"o":""},"Ｕ":{"ha":0,"x_min":0,"x_max":0,"o":""},"Ｖ":{"ha":0,"x_min":0,"x_max":0,"o":""},"Ｗ":{"ha":0,"x_min":0,"x_max":0,"o":""},"Ｘ":{"ha":0,"x_min":0,"x_max":0,"o":""},"Ｙ":{"ha":0,"x_min":0,"x_max":0,"o":""},"Ｚ":{"ha":0,"x_min":0,"x_max":0,"o":""},"ａ":{"ha":0,"x_min":0,"x_max":0,"o":""},"ｂ":{"ha":0,"x_min":0,"x_max":0,"o":""},"ｃ":{"ha":0,"x_min":0,"x_max":0,"o":""},"ｄ":{"ha":0,"x_min":0,"x_max":0,"o":""},"ｅ":{"ha":0,"x_min":0,"x_max":0,"o":""},"ｆ":{"ha":0,"x_min":0,"x_max":0,"o":""},"ｇ":{"ha":0,"x_min":0,"x_max":0,"o":""},"ｈ":{"ha":0,"x_min":0,"x_max":0,"o":""},"ｉ":{"ha":0,"x_min":0,"x_max":0,"o":""},"ｊ":{"ha":0,"x_min":0,"x_max":0,"o":""},"ｋ":{"ha":0,"x_min":0,"x_max":0,"o":""},"ｌ":{"ha":0,"x_min":0,"x_max":0,"o":""},"ｍ":{"ha":0,"x_min":0,"x_max":0,"o":""},"ｎ":{"ha":0,"x_min":0,"x_max":0,"o":""},"ｏ":{"ha":0,"x_min":0,"x_max":0,"o":""},"ｐ":{"ha":0,"x_min":0,"x_max":0,"o":""},"ｑ":{"ha":0,"x_min":0,"x_max":0,"o":""},"ｒ":{"ha":0,"x_min":0,"x_max":0,"o":""},"ｓ":{"ha":0,"x_min":0,"x_max":0,"o":""},"ｔ":{"ha":0,"x_min":0,"x_max":0,"o":""},"ｕ":{"ha":0,"x_min":0,"x_max":0,"o":""},"ｖ":{"ha":0,"x_min":0,"x_max":0,"o":""},"ｗ":{"ha":0,"x_min":0,"x_max":0,"o":""},"ｘ":{"ha":0,"x_min":0,"x_max":0,"o":""},"ｙ":{"ha":0,"x_min":0,"x_max":0,"o":""},"ｚ":{"ha":0,"x_min":0,"x_max":0,"o":""},"ぁ":{"ha":0,"x_min":0,"x_max":0,"o":"m 556 96 b 858 329 710 96 804 213 b 682 24 935 236 869 103 b 910 476 1072 24 1157 367 b 922 536 917 501 919 522 l 750 536 b 749 503 750 525 750 514 b 660 490 719 501 689 496 l 664 581 l 851 581 l 851 636 l 806 683 l 758 636 l 667 636 l 675 731 l 511 731 b 510 636 510 697 510 667 l 432 636 l 432 581 l 511 581 b 524 438 513 528 517 479 b 463 393 500 425 479 410 b 556 96 315 257 376 96 z m 657 378 b 722 385 678 382 700 385 b 657 264 706 340 683 297 z m 501 285 b 544 331 511 301 525 317 b 593 208 560 276 576 238 b 549 196 579 200 564 196 b 501 285 501 196 471 232 z "},"あ":{"ha":0,"x_min":0,"x_max":0,"o":"m 943 564 b 957 636 950 594 956 619 l 754 636 b 751 596 754 624 753 610 b 644 581 715 594 679 589 b 650 700 646 618 649 658 l 874 NaN l 765 NaN l 774 NaN b 772 NaN 772 NaN 772 NaN l 679 NaN l 679 NaN l 774 NaN b 788 NaN 775 NaN 781 NaN b 715 NaN 760 NaN 735 NaN b 826 NaN 539 NaN 614 NaN b 1188 NaN 1011 NaN 1124 NaN b 978 NaN 1278 NaN 1201 NaN b 1249 NaN 1443 NaN 1544 NaN z m 1025 NaN b 949 NaN 1006 NaN 979 NaN b 947 NaN 947 NaN 947 NaN b 1025 NaN 974 NaN 1000 NaN z m 818 NaN b 763 NaN 763 NaN 729 NaN b 814 NaN 772 NaN 790 NaN b 872 NaN 831 NaN 851 NaN b 818 NaN 854 NaN 836 NaN z "},"ぃ":{"ha":0,"x_min":0,"x_max":0,"o":"m 615 72 b 544 581 615 72 507 229 l 382 600 b 615 72 343 57 615 72 z m 761 486 b 885 185 761 486 857 371 l 1046 211 "},"い":{"ha":0,"x_min":0,"x_max":0,"o":"m 525 686 l 332 710 b 608 81 285 64 608 81 b 525 686 608 81 479 268 z m 782 574 b 931 215 782 574 897 436 l 1122 247 "},"ぅ":{"ha":0,"x_min":0,"x_max":0,"o":"m 582 754 l 563 617 z m 685 163 b 786 124 813 151 892 189 b NaN NaN 683 -12 615 NaN b NaN NaN NaN NaN NaN NaN b NaN NaN NaN NaN NaN NaN l NaN NaN b NaN NaN NaN NaN NaN NaN z "},"う":{"ha":0,"x_min":0,"x_max":0,"o":"m 535 729 b 782 632 688 717 782 632 b 560 893 782 632 829 832 z m 510 24 b 706 353 672 104 749 226 b 457 418 675 442 572 449 l 418 610 b 878 469 626 665 815 615 b 510 24 969 254 808 24 z "},"ぇ":{"ha":0,"x_min":0,"x_max":0,"o":"m 560 754 l 539 617 z m 728 -60 b 717 276 728 68 717 149 b 832 293 717 147 832 293 b 667 368 832 293 742 282 b 565 408 639 401 601 411 b 654 701 663 544 654 701 b 307 701 654 701 513 735 l 324 539 b 460 546 376 543 422 546 b 236 222 435 469 372 319 b 497 333 353 240 436 282 b 589 276 526 322 561 304 z "},"え":{"ha":0,"x_min":0,"x_max":0,"o":"m 319 -696 b 903 -817 853 -729 893 -774 b NaN NaN 900 NaN NaN NaN b NaN NaN NaN NaN NaN NaN b NaN NaN NaN NaN NaN NaN l NaN NaN b NaN NaN NaN NaN NaN NaN b NaN NaN NaN NaN NaN NaN b NaN NaN NaN NaN NaN NaN b NaN NaN NaN NaN NaN NaN b NaN NaN NaN NaN NaN NaN b NaN NaN NaN NaN NaN NaN z "},"ぉ":{"ha":0,"x_min":0,"x_max":0,"o":"m 538 92 b 693 363 607 92 667 103 b 813 331 739 367 783 358 b 658 24 906 243 849 104 b 868 460 1036 24 1115 357 b 700 472 818 481 760 482 b 704 581 703 506 704 542 l 874 581 l 874 636 l 826 683 l 781 636 l 706 636 b 707 731 706 667 707 697 l 543 731 b 546 636 544 697 546 667 l 460 636 l 460 581 l 547 581 b 551 424 550 519 550 468 b 446 356 510 404 472 379 b 538 92 331 251 367 92 z m 1044 378 b 947 649 1044 378 1142 521 l 881 528 b 1044 378 996 472 1044 378 z m 483 261 b 551 318 496 281 519 300 b 513 189 547 182 533 189 b 483 261 474 189 460 224 z "},"お":{"ha":0,"x_min":0,"x_max":0,"o":"m 900 542 b 701 557 840 567 771 568 l 706 697 l 907 NaN l 818 NaN b 893 NaN 854 NaN 892 NaN b NaN NaN 893 NaN 894 NaN l NaN NaN l NaN NaN l NaN NaN b NaN NaN NaN NaN NaN NaN b NaN NaN NaN NaN NaN NaN b NaN NaN NaN NaN NaN NaN b NaN NaN NaN NaN NaN NaN b NaN NaN NaN NaN NaN NaN b NaN NaN NaN NaN NaN NaN b NaN NaN NaN NaN NaN NaN z m NaN NaN l NaN NaN b NaN NaN NaN NaN NaN NaN b NaN NaN NaN NaN NaN NaN z m NaN NaN b NaN NaN NaN NaN NaN NaN b NaN NaN NaN NaN NaN NaN b NaN NaN NaN NaN NaN NaN z "},"か":{"ha":0,"x_min":0,"x_max":0,"o":"m 650 638 b 660 819 656 692 660 753 l 465 847 b 463 651 467 775 465 711 l 364 651 l 364 457 l 443 457 b 296 371 414 250 364 394 b 115 531 108 296 -43 603 b NaN NaN 493 296 571 NaN z m NaN NaN l NaN NaN b NaN NaN NaN NaN NaN NaN b NaN NaN NaN NaN NaN NaN z "},"が":{"ha":0,"x_min":0,"x_max":0,"o":"m 1076 728 b 1101 840 1076 728 1122 778 z m 643 543 b 818 233 699 489 842 421 b 978 618 744 82 1051 240 b NaN NaN 743 696 NaN NaN b NaN NaN NaN NaN NaN NaN l NaN NaN b NaN NaN NaN NaN NaN NaN l NaN NaN l NaN NaN l NaN NaN z m NaN NaN b NaN NaN NaN NaN NaN NaN l NaN NaN "},"き":{"ha":0,"x_min":0,"x_max":0,"o":"m 957 778 l 894 778 b 864 949 889 831 879 886 l 676 896 b 718 778 693 856 707 817 l 510 778 l 510 722 l 733 722 b 769 561 750 665 761 610 l 510 561 l 510 506 l 778 506 b 790 288 794 374 790 288 b 889 506 790 288 858 349 l 1068 506 l 1068 561 l 1007 561 b 1010 722 1013 607 1014 661 l 1179 722 l 1179 778 b 871 136 1179 347 772 136 b 1035 NaN 775 136 1035 151 b 871 NaN 915 NaN 871 NaN z "},"ぎ":{"ha":0,"x_min":0,"x_max":0,"o":"m 961 797 b 978 NaN 978 760 978 NaN z m 781 NaN b 925 NaN 781 NaN 857 NaN b 1015 NaN 986 NaN 1015 NaN l 1196 NaN l 1196 NaN l 1135 NaN b 1138 NaN 1140 NaN 1142 NaN l 1307 NaN l 1307 NaN b 1278 NaN 1301 NaN 1292 NaN l 1090 NaN b 1132 NaN 1106 NaN 1119 NaN l 924 NaN l 924 NaN l 1147 NaN b 1182 NaN 1163 NaN 1174 NaN l 924 NaN l 924 NaN l 1190 NaN b 1204 NaN 1208 NaN 1204 NaN z m 1215 NaN b 1344 NaN 1215 NaN 1271 NaN b 1296 NaN 1507 NaN 1296 NaN b NaN NaN 1296 NaN 1311 NaN z "},"く":{"ha":0,"x_min":0,"x_max":0,"o":"m 889 796 l 682 893 l 585 947 l 604 NaN b 461 NaN 604 NaN 611 NaN "},"ぐ":{"ha":0,"x_min":0,"x_max":0,"o":"m 778 24 l 833 43 b 689 463 833 43 840 251 b 889 796 783 594 889 796 l 683 893 z m 857 1410 "},"け":{"ha":0,"x_min":0,"x_max":0,"o":"m 1081 808 l 1010 808 b 1007 921 1010 844 1010 882 b 1013 808 1010 882 1011 844 l 828 808 l 828 753 l 1013 753 b 828 79 1014 190 828 79 b 1204 753 828 79 1186 43 l 1386 753 l 1386 808 z m 582 808 b 814 304 582 340 814 342 b 1174 NaN 814 411 1174 NaN z "},"げ":{"ha":0,"x_min":0,"x_max":0,"o":"m 1057 843 b 1039 1014 1057 843 1133 929 b 972 963 1039 954 972 947 b 988 951 972 950 988 933 b 988 NaN 988 910 988 NaN z m 508 NaN b 883 NaN 508 NaN 865 NaN l 1067 NaN l 1067 NaN b 1064 NaN 1067 NaN 1065 NaN b 1068 NaN 1067 NaN 1068 NaN l 885 NaN l 885 NaN l 1069 NaN b 885 NaN 1068 NaN 885 NaN z m 871 NaN b 1193 NaN 871 NaN 833 NaN b 957 NaN 725 NaN 957 NaN z "},"こ":{"ha":0,"x_min":0,"x_max":0,"o":"m 983 765 z m 1069 471 b 783 471 1069 471 863 471 b 365 251 732 471 365 300 b 294 340 365 340 365 340 b 301 801 11 340 301 735 b NaN NaN 301 853 301 NaN z "},"ご":{"ha":0,"x_min":0,"x_max":0,"o":"m 996 771 z m 1135 736 b NaN 822 1135 736 929 822 b NaN 797 NaN 763 NaN 779 b NaN NaN NaN 754 NaN NaN z m NaN NaN b NaN NaN NaN NaN NaN NaN l NaN NaN b NaN NaN NaN NaN NaN NaN b NaN NaN NaN NaN NaN NaN b NaN NaN NaN NaN NaN NaN z "},"さ":{"ha":0,"x_min":0,"x_max":0,"o":"m 739 232 b 840 731 739 615 739 731 b 1115 NaN 836 731 1115 NaN l 1272 NaN l 1272 NaN z m 1276 NaN b 1211 NaN 1276 NaN 1332 NaN b 1222 NaN 1267 NaN 1222 NaN b 1582 NaN 1222 NaN 1322 NaN z "},"ざ":{"ha":0,"x_min":0,"x_max":0,"o":"m 1096 767 b 1079 938 1096 767 1174 853 b 1013 885 1079 878 1013 869 b 1028 874 1013 874 1028 857 b 1043 782 1028 819 1043 782 z m 988 626 l 988 682 b 1043 572 988 626 1043 572 b 1258 849 1157 572 1258 569 z m 1150 261 b 1279 97 1150 142 1206 97 b 1231 101 1481 97 1231 197 b NaN NaN 1231 360 1246 NaN z "},"し":{"ha":0,"x_min":0,"x_max":0,"o":"m 743 24 b 949 171 901 24 949 171 b 725 865 732 96 632 200 b 938 24 657 317 701 24 z "},"じ":{"ha":0,"x_min":0,"x_max":0,"o":"m 531 864 b 742 22 461 315 506 22 b 947 169 901 22 947 169 b 725 864 732 94 632 199 z m 969 485 b 951 657 969 485 1047 572 "},"す":{"ha":226,"x_min":0,"x_max":0,"o":"m 690 567 b 617 575 664 572 639 575 b 449 406 539 575 449 513 b 729 254 449 276 581 175 b 640 24 726 176 700 90 b 861 293 640 24 818 31 b 856 419 869 343 865 385 b 857 697 876 506 871 610 l 1047 697 l 1047 610 l 1032 610 l 1032 692 l 1013 692 l 1432 692 b 1458 561 1442 649 1451 603 z m 1386 332 b 1378 439 1290 332 1317 439 b 1461 401 1413 439 1440 428 b 1386 332 1451 358 1429 332 z "},"ず":{"ha":0,"x_min":0,"x_max":0,"o":"m 921 979 b 938 NaN 938 936 938 NaN b NaN NaN 954 NaN NaN NaN z m NaN NaN b NaN NaN NaN NaN NaN NaN b NaN NaN NaN NaN NaN NaN b NaN NaN NaN NaN NaN NaN b NaN NaN NaN NaN NaN NaN b NaN NaN NaN NaN NaN NaN b NaN NaN NaN NaN NaN NaN b NaN NaN NaN NaN NaN NaN l NaN NaN l NaN NaN l NaN NaN l NaN NaN l NaN NaN l NaN NaN b NaN NaN NaN NaN NaN NaN z m NaN NaN b NaN NaN NaN NaN NaN NaN b NaN NaN NaN NaN NaN NaN b NaN NaN NaN NaN NaN NaN z "},"せ":{"ha":0,"x_min":0,"x_max":0,"o":"m 410 383 b 1019 124 428 -58 913 -1 b 603 392 794 94 614 138 l 596 568 l 760 568 l 760 411 l 954 411 l 954 568 l 1150 568 l 1150 482 l 1392 482 l 1392 288 l 1150 288 l 983 288 l 976 460 l 782 453 l 789 288 l 629 288 l 629 232 l 792 232 z "},"ぜ":{"ha":0,"x_min":0,"x_max":0,"o":"m 1149 892 z m 408 382 b 331 346 349 315 342 329 b 815 -25 313 361 332 -81 b 519 115 924 101 697 72 b NaN NaN 507 369 499 546 l NaN NaN l NaN NaN l NaN NaN l NaN NaN l NaN NaN l NaN NaN l NaN NaN l NaN NaN l NaN NaN l NaN NaN l NaN NaN l NaN NaN l NaN NaN l NaN NaN l NaN NaN l NaN NaN z "},"そ":{"ha":467,"x_min":0,"x_max":0,"o":"m 900 25 l 900 219 b 683 467 611 213 644 378 l 1049 467 l 1049 183 b 1344 103 1143 208 1285 149 b NaN NaN 1444 -74 1361 NaN l NaN NaN b NaN NaN NaN NaN NaN NaN b NaN NaN NaN NaN NaN NaN z "},"ぞ":{"ha":0,"x_min":0,"x_max":0,"o":"m 899 24 l 899 218 b 682 465 610 211 643 376 l 1047 465 l 1047 521 l 763 521 b 1058 440 858 546 999 488 b NaN NaN 1158 264 1075 NaN l NaN NaN b NaN NaN NaN NaN NaN NaN b NaN NaN NaN NaN NaN NaN z m NaN NaN "},"た":{"ha":0,"x_min":0,"x_max":0,"o":"m 647 697 b NaN 957 647 993 643 957 b NaN 1229 NaN 854 NaN 1229 z m NaN 950 l NaN 1088 b NaN 1089 NaN 1088 NaN 1113 l NaN 953 b NaN 950 NaN 975 NaN 950 z m NaN 839 l NaN 1033 b NaN 999 NaN 1033 NaN 999 b NaN 1088 NaN 999 NaN 1088 z "},"だ":{"ha":0,"x_min":0,"x_max":0,"o":"m 1088 776 b 1071 947 1088 776 1165 863 z m 632 868 b NaN 1126 632 1163 629 1126 b NaN 1397 NaN 1022 NaN 1397 z m NaN 1243 l NaN 1121 b NaN 1118 NaN 1143 NaN 1118 l NaN 1242 b NaN 1243 NaN 1242 NaN 1267 z m NaN 758 l NaN 953 z "},"ち":{"ha":0,"x_min":0,"x_max":0,"o":"m 478 333 b 779 279 478 333 718 406 l 1039 279 l 1039 335 l 906 335 b 926 432 914 365 921 399 l 733 475 b 722 335 731 431 728 383 l 565 335 l 565 279 l 715 279 b 638 -85 700 149 674 13 z "},"ぢ":{"ha":0,"x_min":0,"x_max":0,"o":"m 876 981 l 893 938 l 833 871 b 797 918 825 886 814 901 z m 925 635 l 925 690 l 792 690 b 813 788 800 721 807 754 l 619 831 b 608 690 618 786 614 739 l 451 690 l 451 635 l 603 635 b 524 271 586 504 560 368 b 825 217 524 271 764 343 z "},"っ":{"ha":0,"x_min":0,"x_max":0,"o":"m 960 364 b 360 478 894 565 636 574 l 410 321 b 800 64 849 453 908 203 b 960 364 800 64 1029 149 z "},"つ":{"ha":0,"x_min":0,"x_max":0,"o":"m 819 71 b 1010 429 819 71 1093 172 b 468 NaN 932 501 635 372 z "},"づ":{"ha":0,"x_min":0,"x_max":0,"o":"m 1107 556 b 1090 726 1107 556 1185 642 b NaN NaN 1029 660 1013 675 b NaN NaN NaN NaN NaN NaN z m NaN NaN b NaN NaN NaN NaN NaN NaN b NaN NaN NaN NaN NaN NaN z "},"て":{"ha":0,"x_min":0,"x_max":0,"o":"m 376 768 b 289 688 376 436 606 688 z "},"で":{"ha":0,"x_min":0,"x_max":0,"o":"m 897 24 b 811 -58 897 -308 1126 -58 z m 1000 574 b 933 521 1000 514 933 506 b 949 472 933 510 949 472 b 932 643 949 472 1026 558 z "},"と":{"ha":0,"x_min":0,"x_max":0,"o":"m 975 571 l 842 713 b 665 561 771 663 713 611 b 574 893 635 626 586 749 l 386 843 z "},"ど":{"ha":0,"x_min":0,"x_max":0,"o":"b NaN 971 0 908 746 971 b NaN 879 NaN 917 NaN 879 m NaN 657 l NaN 361 l NaN 229 l NaN 158 b NaN NaN NaN 99 NaN 53 b NaN NaN NaN NaN NaN NaN l NaN NaN b NaN NaN NaN NaN NaN NaN z "},"な":{"ha":0,"x_min":0,"x_max":0,"o":"m 567 697 l 829 NaN l 686 NaN b 758 NaN 686 NaN 721 NaN b 758 NaN 799 NaN 758 NaN b NaN NaN 758 NaN 724 NaN l NaN NaN l NaN NaN l NaN NaN b NaN NaN NaN NaN NaN NaN b NaN NaN NaN NaN NaN NaN z m NaN NaN b NaN NaN NaN NaN NaN NaN l NaN NaN b NaN NaN NaN NaN NaN NaN z m NaN NaN b NaN NaN NaN NaN NaN NaN b NaN NaN NaN NaN NaN NaN b NaN NaN NaN NaN NaN NaN "},"に":{"ha":0,"x_min":0,"x_max":0,"o":"m 510 47 b 536 768 510 47 433 331 l 342 788 b 510 47 247 93 510 47 z m 679 572 b 1082 542 926 572 1082 542 l 1104 694 b 679 725 1104 694 935 725 z m 794 260 b 629 350 665 260 629 350 b 794 65 629 350 575 65 b 1143 118 1068 65 1143 118 l 1131 313 b 794 260 1131 313 1035 260 z "},"ぬ":{"ha":0,"x_min":0,"x_max":0,"o":"m 786 24 b 1001 110 883 24 954 57 b 1061 74 1024 99 1044 86 l 1129 242 b 1071 257 1129 242 1107 250 b 1078 335 1075 282 1078 308 b 828 656 1078 467 996 614 b 853 753 836 686 844 719 l 672 775 b 651 660 672 775 665 728 b 513 617 599 651 553 638 b 515 719 513 649 514 683 b 544 479 517 622 528 543 b 464 258 493 408 467 329 b 635 63 456 121 543 63 b 967 465 738 63 849 107 b 1079 350 1024 442 1063 397 b 1094 271 1086 326 1092 300 b 969 250 1053 269 1011 263 b 981 24 818 197 842 24 z m 732 293 b 714 429 725 328 718 374 b 740 444 722 435 731 439 b 797 465 760 453 779 460 b 732 293 779 404 757 342 z m 626 189 b 601 338 568 189 544 260 b 697 235 633 285 668 253 b 626 189 675 206 651 189 z m 1076 156 b 981 92 1060 118 1029 92 b 988 161 935 92 932 150 b 1076 156 1013 167 1043 163 z "},"ね":{"ha":0,"x_min":0,"x_max":0,"o":"m 306 157 b NaN NaN 290 165 219 NaN b NaN NaN NaN NaN NaN NaN b NaN NaN NaN NaN NaN NaN b NaN NaN NaN NaN NaN NaN b NaN NaN NaN NaN NaN NaN b NaN NaN NaN NaN NaN NaN b NaN NaN NaN NaN NaN NaN b NaN NaN NaN NaN NaN NaN l NaN NaN b NaN NaN NaN NaN NaN NaN b NaN NaN NaN NaN NaN NaN b NaN NaN NaN NaN NaN NaN b NaN NaN NaN NaN NaN NaN b NaN NaN NaN NaN NaN NaN b NaN NaN NaN NaN NaN NaN l NaN NaN l NaN NaN l NaN NaN l NaN NaN l NaN NaN l NaN NaN l NaN NaN l NaN NaN l NaN NaN l NaN NaN l NaN NaN b NaN NaN NaN NaN NaN NaN b NaN NaN NaN NaN NaN NaN b NaN NaN NaN NaN NaN NaN z m NaN NaN b NaN NaN NaN NaN NaN NaN b NaN NaN NaN NaN NaN NaN b NaN NaN NaN NaN NaN NaN z "},"の":{"ha":0,"x_min":0,"x_max":0,"o":"m 644 24 b 1068 315 894 -4 1036 104 b 651 740 1100 539 928 775 b 288 325 401 708 288 494 b 508 68 288 190 372 68 b 804 483 635 68 772 235 l 628 506 b 472 228 604 329 542 219 b 536 528 378 239 394 464 b 881 364 724 611 869 514 b 644 24 894 185 771 75 z "},"は":{"ha":0,"x_min":0,"x_max":0,"o":"b 1808 NaN 1056 0 1808 40 b 1904 NaN 1843 NaN 1876 NaN l 1949 NaN b 1846 NaN 1922 NaN 1888 NaN "},"ば":{"ha":0,"x_min":0,"x_max":0,"o":"m 1158 1046 b 1142 1217 1158 1046 1236 1132 z m 1000 868 l 1149 868 l 1149 829 l 1261 829 l 1261 635 l 1149 635 l 1149 382 l 1093 382 l 1093 635 l 965 635 b 806 571 878 633 806 629 b 776 457 806 382 776 456 b 868 NaN 776 540 868 NaN z m 138 NaN "},"ぱ":{"ha":85,"x_min":0,"x_max":0,"o":"m 1142 1043 b 1039 940 1085 1043 1039 997 b 1142 838 1039 885 1085 838 b 1243 940 1197 838 1243 885 b 1142 1043 1243 997 1197 1043 b 1142 992 1163 1043 1142 1017 b NaN 946 1142 971 1119 946 b NaN 844 NaN 946 NaN 806 "},"ひ":{"ha":0,"x_min":0,"x_max":0,"o":"m 771 788 b NaN NaN 857 1258 NaN NaN b NaN NaN NaN NaN NaN NaN b NaN NaN NaN NaN NaN NaN z "},"び":{"ha":0,"x_min":0,"x_max":0,"o":"m 1067 990 z m 697 24 b 924 626 964 43 1053 308 l 864 606 b NaN NaN 951 1076 NaN NaN b NaN NaN NaN NaN NaN NaN b NaN NaN NaN NaN NaN NaN b NaN NaN NaN NaN NaN NaN z "},"ぴ":{"ha":53,"x_min":0,"x_max":0,"o":"m 1003 1007 b 1043 1100 988 1007 1043 1054 b 1146 1054 1043 1157 1100 1110 z m 1146 904 b 1099 951 1119 904 1099 925 b 1146 999 1099 978 1119 999 b 1193 951 1171 999 1193 978 b 1146 904 1193 925 1171 904 z m 914 835 b 396 1022 914 819 914 1022 b 60 NaN 111 1022 60 NaN b -71 NaN -69 NaN -157 NaN b -167 NaN -71 NaN -167 NaN b NaN NaN -167 NaN -128 NaN b NaN NaN NaN NaN NaN NaN b NaN NaN NaN NaN NaN NaN l NaN NaN b NaN NaN NaN NaN NaN NaN z "},"ふ":{"ha":0,"x_min":0,"x_max":0,"o":""},"ぶ":{"ha":0,"x_min":0,"x_max":0,"o":"m 924 624 b 647 893 924 624 743 719 l 481 792 b 668 638 543 711 608 664 b 689 263 464 465 722 343 b 547 258 667 208 606 229 l 483 64 b 692 22 483 64 572 22 b 858 214 800 22 858 104 b 711 621 858 415 632 440 b 924 624 832 583 924 624 b NaN 861 924 800 728 861 b NaN 771 NaN 808 NaN 771 z m NaN 704 b NaN 510 NaN 704 NaN 749 l NaN 467 b NaN 704 NaN 625 NaN 704 z m NaN 704 b NaN 467 NaN 704 NaN 625 l NaN 510 "},"ぷ":{"ha":22,"x_min":0,"x_max":0,"o":"m 426 -108 b 324 -6 426 -51 381 -6 b 222 -108 268 -6 222 -51 b 324 -211 222 -165 268 -211 b 426 -108 381 -211 426 -165 z m 278 -108 b 324 -61 278 -82 299 -61 b 371 -108 350 -61 371 -82 b 324 -156 371 -133 350 -156 b 278 -108 299 -156 278 -133 "},"へ":{"ha":0,"x_min":0,"x_max":0,"o":""},"べ":{"ha":0,"x_min":0,"x_max":0,"o":"m 946 546 b 928 717 946 546 1024 632 "},"ぺ":{"ha":256,"x_min":0,"x_max":0,"o":"m 982 621 b 879 724 982 678 936 724 b 982 826 936 724 982 769 z m 832 826 b 879 874 832 853 854 874 b 832 921 854 874 832 894 "},"ほ":{"ha":0,"x_min":0,"x_max":0,"o":"m 1121 893 l 1383 893 l 1383 1002 l 1528 1002 l 1528 516 l 1472 516 l 1472 737 l 1311 737 l 1311 516 l 1256 516 l 1256 737 b 1253 576 1254 651 1253 580 b 1228 593 1253 519 1228 591 b 1318 NaN 1228 674 1318 NaN l 1500 NaN l 1500 NaN l 1661 NaN l 1661 NaN l 1717 NaN z m 803 NaN b 1011 NaN 803 NaN 1011 NaN b 1332 NaN 1011 NaN 1332 NaN "},"ぼ":{"ha":0,"x_min":0,"x_max":0,"o":"m 1175 796 l 1175 838 l 689 838 l 689 782 l 908 782 l 908 621 l 689 621 l 689 565 l 908 565 b 751 503 822 563 751 560 b 724 386 751 313 724 385 b 814 NaN 724 468 814 NaN l 996 NaN l 996 NaN l 1157 NaN l 1157 NaN l 1231 NaN l 1174 NaN l 1238 NaN l 1254 NaN l 1194 NaN b 1299 NaN 1268 NaN 1283 NaN b NaN NaN 1314 NaN NaN NaN b NaN NaN NaN NaN NaN NaN b NaN NaN NaN NaN NaN NaN z "},"ぽ":{"ha":24,"x_min":0,"x_max":0,"o":"m 1243 821 b 1175 796 1217 821 1193 811 l 1175 838 l 689 838 l 689 782 l 908 782 l 908 621 l 689 621 l 689 565 l 908 565 b 751 503 822 563 751 560 b 722 388 751 314 722 386 b 813 NaN 722 469 813 NaN l 982 NaN b 960 NaN 968 NaN 960 NaN b 1063 NaN 960 NaN 1006 NaN b 1165 NaN 1119 NaN 1165 NaN b 1063 NaN 1165 NaN 1119 NaN b 1064 NaN 1085 NaN 1064 NaN b NaN NaN 1064 NaN 1042 NaN "},"ま":{"ha":0,"x_min":0,"x_max":0,"o":"m 492 350 b 936 581 832 350 936 546 b NaN NaN 936 685 984 NaN b NaN NaN NaN NaN NaN NaN l NaN NaN b NaN NaN NaN NaN NaN NaN b NaN NaN NaN NaN NaN NaN l NaN NaN l NaN NaN l NaN NaN l NaN NaN l NaN NaN l NaN NaN l NaN NaN l NaN NaN l NaN NaN l NaN NaN l NaN NaN l NaN NaN l NaN NaN l NaN NaN l NaN NaN b NaN NaN NaN NaN NaN NaN b NaN NaN NaN NaN NaN NaN z m NaN NaN b NaN NaN NaN NaN NaN NaN z "},"み":{"ha":0,"x_min":0,"x_max":0,"o":"m 1022 582 l 829 599 l 829 504 b 707 514 790 508 749 513 l 674 514 b 683 808 681 599 683 697 l 350 808 l 350 753 l 489 753 b 488 488 489 647 489 560 b 251 199 303 429 251 289 b 447 22 251 83 338 22 b 650 329 536 22 610 110 b 819 311 706 328 764 319 b 775 24 804 133 775 24 b 979 279 775 24 908 36 b 1100 247 1051 261 1100 247 l 1136 438 b 1015 471 1136 438 1089 454 b 1022 582 1018 506 1021 542 z m 418 185 b 481 314 360 185 375 276 b 418 185 471 215 453 185 z "},"む":{"ha":0,"x_min":0,"x_max":0,"o":"m 517 253 b 671 36 528 171 560 83 b 982 181 756 0 908 36 b 654 239 881 143 725 138 b 617 336 635 267 625 300 b 710 697 665 410 697 528 l 901 697 l 901 621 b 904 733 903 657 904 694 l 710 733 l 710 621 l 547 621 l 547 565 l 710 565 b 710 406 711 504 711 451 b 653 417 694 413 675 417 b 653 113 432 417 439 113 b 704 121 671 113 688 115 z m 1185 190 l 1364 264 b 1031 407 1271 490 1031 407 b 1185 190 1031 407 1122 340 z m 653 310 b 693 264 678 310 688 293 b 653 228 683 240 671 228 b 653 310 588 228 597 310 z "},"め":{"ha":0,"x_min":0,"x_max":0,"o":"m 485 63 b 790 442 581 63 682 104 b 904 322 849 419 888 374 b 758 24 935 231 871 96 b 1086 333 971 24 1086 171 b 846 635 1086 467 1007 603 b 874 753 856 672 864 711 l 704 775 b 679 633 704 775 696 715 b 557 594 635 625 594 611 b 561 719 557 633 558 675 b 592 472 563 618 575 538 b 497 258 531 401 497 322 b 679 63 497 104 579 63 z m 779 419 b 825 439 796 426 810 433 b 776 303 811 390 794 343 b 761 410 771 332 765 368 z m 740 236 b 672 188 718 206 696 188 b 654 326 615 188 593 253 b 740 236 683 282 714 253 z "},"も":{"ha":0,"x_min":0,"x_max":0,"o":"m 506 457 l 347 457 l 347 401 l 507 401 b 747 24 518 153 590 24 b 953 171 907 24 953 171 b 696 401 803 118 708 153 l 910 401 l 910 297 b 918 472 910 347 913 406 l 1124 472 l 1124 528 l 1035 528 b 1056 706 1040 582 1047 640 b 1038 528 1049 643 1042 583 l 867 528 l 867 472 l 1033 472 b 1026 297 1028 408 1026 350 z "},"ゃ":{"ha":0,"x_min":0,"x_max":0,"o":"m 822 565 b 885 722 851 593 881 640 l 750 697 b 763 568 757 649 761 600 b 669 563 735 568 703 567 b 624 738 658 615 643 674 l 463 711 b 506 529 479 644 493 585 b 381 492 467 518 425 507 l 404 331 b 538 374 453 349 497 363 b 578 24 581 133 578 24 b 696 410 578 24 738 46 b 864 260 886 433 897 347 b 981 439 864 260 1008 308 b 822 565 968 507 918 551 z "},"や":{"ha":0,"x_min":0,"x_max":0,"o":"m 867 669 b 940 857 900 703 935 760 l 781 828 b 794 674 789 768 793 711 b 653 661 753 674 706 669 l 632 850 l 439 829 l 467 621 b 340 582 426 610 385 597 l 367 390 b 493 432 413 407 454 421 b 556 24 511 304 533 160 l 711 40 b 672 476 699 194 685 347 b 917 306 940 525 958 417 b 1056 518 917 306 1088 363 b 867 669 1039 600 979 653 z "},"ゅ":{"ha":0,"x_min":0,"x_max":0,"o":"m 794 576 b 786 578 792 576 789 578 b 769 718 783 621 778 668 l 608 706 b 632 553 618 653 626 601 b 489 396 568 521 522 464 b 467 561 493 451 488 510 l 310 524 b 426 146 410 335 426 146 l 439 178 b 642 411 483 279 558 376 b 540 388 642 421 410 388 b 693 NaN 661 388 693 647 b 653 NaN 842 NaN 717 NaN b 707 NaN 992 NaN 953 NaN z "},"ゆ":{"ha":0,"x_min":0,"x_max":0,"o":"m 814 683 b 804 685 811 683 807 683 b 785 851 801 736 796 792 l 592 838 b 619 654 604 774 614 713 b 451 467 546 617 489 549 b 424 664 456 533 450 603 l 236 619 b 375 169 356 394 375 169 b 390 207 375 169 382 183 b 633 485 444 328 533 444 b 604 24 644 208 604 24 b 797 478 604 24 760 168 b 750 138 975 383 826 169 b 814 683 1154 154 1107 642 z "},"ょ":{"ha":0,"x_min":0,"x_max":0,"o":"m 921 636 l 843 636 l 843 753 l 681 753 l 681 482 b 672 299 681 407 678 347 b 557 299 631 303 592 303 b 560 24 399 279 375 24 b 801 139 689 24 761 51 b 928 90 843 125 888 108 l 965 233 b 833 271 928 246 882 260 b 843 482 840 328 843 397 l 843 581 l 1014 581 l 1014 636 l 967 682 z m 569 111 b 569 197 497 111 499 197 b 649 185 586 197 614 193 b 569 111 626 122 596 111 z "},"よ":{"ha":0,"x_min":0,"x_max":0,"o":"m 867 699 l 1239 699 l 1239 802 l 1436 802 l 1436 1003 l 1491 1003 l 1399 1003 l 1399 1114 l 1205 1114 l 1205 819 b 1194 601 1205 730 1201 657 b 1056 601 1145 605 1098 606 b 1194 NaN 1090 601 1194 648 b 1345 NaN 1245 NaN 1297 NaN l 1391 NaN b 1233 NaN 1345 NaN 1291 NaN b 1245 NaN 1241 NaN 1245 NaN z m 918 NaN b 991 NaN 920 NaN 1023 NaN z "},"ら":{"ha":0,"x_min":0,"x_max":0,"o":"m 924 546 b 815 893 924 546 1032 778 l 724 721 b 924 546 867 644 924 546 z m 626 24 b 924 410 939 40 1079 268 b 622 399 810 514 622 399 b 661 564 642 550 681 826 b NaN NaN 671 372 681 261 b NaN NaN NaN NaN NaN NaN b NaN NaN NaN NaN NaN NaN z "},"り":{"ha":0,"x_min":0,"x_max":0,"o":"m 449 826 b 635 339 404 360 635 339 b 642 807 635 339 597 490 z m 778 753 b 685 518 778 806 204 518 b 572 NaN 624 518 572 1308 z "},"る":{"ha":0,"x_min":0,"x_max":0,"o":"m 697 293 b 694 24 494 293 453 24 b 1025 494 1011 24 1190 315 b 679 532 919 608 679 532 b 638 867 679 781 768 867 b 642 749 661 831 660 788 b 457 806 593 776 526 806 z m 456 715 b 568 660 500 715 540 686 b 454 617 533 633 493 617 b 456 715 363 617 375 715 z "},"れ":{"ha":0,"x_min":0,"x_max":0,"o":"m 1026 381 b 713 610 1019 524 908 653 b 544 525 657 597 599 565 b 554 697 547 590 550 649 l 700 697 l 700 665 l 706 736 l 710 778 l 714 665 l 606 665 l 606 610 l 717 610 b 736 301 721 525 728 417 b 615 139 688 246 646 189 l 656 69 b 747 160 683 101 714 132 b 771 -64 754 83 763 7 l 879 -64 b 876 250 875 42 875 149 b 1038 322 926 279 981 304 b 1201 253 1107 344 1179 324 b 1315 -64 1238 135 1154 -64 b 1458 17 1438 -64 1458 17 b 1364 293 1293 -6 1375 106 z "},"ろ":{"ha":0,"x_min":0,"x_max":0,"o":"m 679 532 b 638 867 679 786 771 867 b 388 536 707 750 529 578 b 786 1007 807 508 922 829 "},"ゎ":{"ha":0,"x_min":0,"x_max":0,"o":"m 1035 324 b 710 515 1022 443 908 557 b 569 446 664 506 615 479 b 576 581 572 496 574 540 l 700 581 l 700 636 l 654 682 l 607 636 l 581 636 l 588 729 l 592 636 l 500 636 l 500 581 l 593 581 b 610 331 597 511 603 424 b 508 193 568 285 533 236 l 542 136 b 618 213 565 163 590 188 b 639 24 625 147 631 83 l 729 24 b 728 289 725 113 725 203 b 863 347 769 313 814 333 b 1060 289 969 379 1032 344 b 943 24 1088 232 1068 100 b 1197 324 1128 24 1214 160 z "},"わ":{"ha":0,"x_min":0,"x_max":0,"o":"m 713 610 b 546 526 657 597 600 567 l 554 697 l 701 697 l 701 665 b 814 674 701 669 772 674 b 772 608 815 674 772 678 l 664 608 l 664 553 l 775 553 b 793 244 779 468 785 360 b 674 82 744 190 703 132 l 713 13 b NaN NaN 722 -58 NaN NaN b NaN NaN NaN NaN NaN NaN b NaN NaN NaN NaN NaN NaN b NaN NaN NaN NaN NaN NaN b NaN NaN NaN NaN NaN NaN b NaN NaN NaN NaN NaN NaN z "},"ゐ":{"ha":0,"x_min":0,"x_max":0,"o":"m 494 24 b 697 332 583 24 657 111 b 790 324 725 331 756 328 b 921 249 861 314 901 283 b 893 247 911 249 903 247 b 892 24 735 238 699 24 b 1032 118 963 24 1010 63 b 1058 108 1049 113 1058 108 l 1089 231 b 1046 239 1089 231 1072 235 b 742 500 1031 367 929 503 l 719 500 b 732 810 728 589 732 692 l 397 810 l 397 754 l 538 754 b 535 464 538 636 536 540 b 299 199 378 406 299 286 b 494 24 299 85 386 24 z m 528 315 b 465 185 519 217 501 185 b 528 315 408 185 422 278 z m 886 104 b 886 153 836 104 840 153 b 929 147 897 153 913 150 b 886 104 921 122 904 104 z "},"ゑ":{"ha":0,"x_min":0,"x_max":0,"o":"m 613 210 b 689 24 638 171 669 108 l 879 67 b 650 264 843 219 728 257 b 697 349 667 289 682 318 b 976 651 981 368 1132 542 b 629 675 871 725 629 675 b 700 865 649 772 700 865 l 364 865 l 364 810 l 499 810 b 493 553 485 679 485 617 b 828 561 493 553 743 644 b 835 494 851 539 850 515 b 649 546 786 521 719 546 b 515 379 497 546 436 435 b 238 24 431 168 238 24 b 613 210 238 24 442 -7 z m 647 465 b 739 439 682 465 714 453 b 646 425 710 431 676 425 b 647 465 578 425 582 465 z m 844 263 b 963 24 844 263 925 182 l 1151 67 "},"を":{"ha":0,"x_min":0,"x_max":0,"o":"m 642 404 b 685 333 671 367 685 333 l 801 425 l 750 482 b 799 503 765 489 782 497 l 771 560 b 686 528 740 550 713 539 b 625 546 668 536 647 543 b 707 656 625 546 668 585 l 892 656 l 892 607 b 988 635 892 624 936 635 b 990 576 1046 635 990 629 b NaN NaN 990 568 944 NaN l NaN NaN l NaN NaN l NaN NaN b NaN NaN NaN NaN NaN NaN b NaN NaN NaN NaN NaN NaN b NaN NaN NaN NaN NaN NaN l NaN NaN b NaN NaN NaN NaN NaN NaN z "},"ん":{"ha":0,"x_min":0,"x_max":0,"o":"m 774 339 b 1304 151 1219 293 1276 222 b NaN NaN 1283 NaN NaN NaN b NaN NaN NaN NaN NaN NaN b NaN NaN NaN NaN NaN NaN b NaN NaN NaN NaN NaN NaN b NaN NaN NaN NaN NaN NaN b NaN NaN NaN NaN NaN NaN b NaN NaN NaN NaN NaN NaN z "},"ァ":{"ha":0,"x_min":0,"x_max":0,"o":"m 386 547 b 832 558 386 547 564 550 b 751 357 813 410 751 357 b 1001 658 751 357 1001 382 z m 1351 444 l 979 444 l 979 453 l 736 453 l 736 289 b 599 161 736 -31 599 -140 b 1001 NaN 599 188 1001 NaN z "},"ア":{"ha":0,"x_min":0,"x_max":0,"o":"m 356 647 b 358 1436 356 1225 356 1436 b 688 NaN 678 1436 688 NaN b 592 NaN 664 NaN 592 NaN b 890 NaN 592 NaN 890 NaN b 157 NaN 447 NaN 157 NaN b -7 NaN 157 NaN -7 NaN b 472 NaN -7 NaN 472 NaN z "},"ィ":{"ha":0,"x_min":0,"x_max":0,"o":"m 647 444 b 692 24 654 351 668 199 l 782 24 b 800 503 782 246 793 425 b 967 656 857 536 914 585 l 836 753 b 365 469 635 483 365 469 b 647 444 365 469 492 415 z "},"イ":{"ha":0,"x_min":0,"x_max":0,"o":"m 638 525 b 690 24 647 414 664 232 l 799 24 b 819 593 799 288 813 501 b 1018 775 888 633 956 692 l 863 892 b 303 554 622 571 303 554 b 638 525 303 554 453 490 z "},"ゥ":{"ha":0,"x_min":0,"x_max":0,"o":"m 428 613 b 467 365 428 613 431 471 l 582 365 b 586 546 582 435 585 500 l 794 546 b 563 24 774 124 563 24 b 960 613 563 24 960 14 l 796 613 l 796 601 l 747 601 b 736 742 743 625 736 675 l 596 742 b 703 601 596 660 657 619 l 590 601 l 590 613 z "},"ウ":{"ha":0,"x_min":0,"x_max":0,"o":"m 563 431 b 568 656 563 518 565 600 l 815 656 b 540 24 794 143 540 24 b 1011 725 540 24 1011 13 l 817 725 l 817 711 b 747 838 817 783 769 838 b 767 704 747 704 761 704 b 640 NaN 597 704 640 579 z "},"ェ":{"ha":0,"x_min":0,"x_max":0,"o":"m 776 533 l 950 529 l 950 649 b 440 640 950 649 804 649 l 440 544 b 614 539 503 543 561 540 b 624 217 614 482 617 358 l 624 79 l 626 79 l 626 -3 l 463 -3 b 1043 18 463 -3 728 1 l 1043 150 b 829 156 965 153 893 154 b 835 475 833 299 835 418 z "},"エ":{"ha":0,"x_min":0,"x_max":0,"o":"m 1040 243 b 785 250 947 246 863 249 b 792 631 790 421 792 563 l 999 626 l 999 513 b 1206 506 1074 510 1143 507 b 1218 122 1206 438 1208 290 b 1536 -139 1218 -42 1221 -139 b 1915 NaN 1540 -139 1915 -119 z "},"ォ":{"ha":0,"x_min":0,"x_max":0,"o":"m 932 590 l 883 590 l 890 731 l 726 731 l 731 590 l 440 590 l 440 535 l 733 535 b 768 24 739 394 749 201 l 869 24 b 882 535 869 189 875 389 l 1025 535 l 1025 590 l 979 636 z m 363 92 b 718 442 363 92 647 68 l 558 481 "},"オ":{"ha":0,"x_min":0,"x_max":0,"o":"m 1033 753 l 975 753 l 979 854 l 983 921 l 988 753 l 642 753 l 642 697 l 990 697 b 1032 79 996 531 1008 294 l 1153 79 b 1168 697 1153 279 1161 524 l 1339 697 l 1339 753 z m 972 576 l 783 622 b 550 160 742 296 550 160 b 972 576 550 160 888 132 z "},"カ":{"ha":0,"x_min":0,"x_max":0,"o":"m 651 572 b 853 578 711 574 778 576 b 840 22 851 294 840 22 b 1049 697 840 22 1049 24 b 1054 414 1049 543 1053 414 b 900 364 953 414 900 413 l 800 364 l 800 222 b 892 224 800 222 831 222 b 769 -319 860 -186 769 -319 b 1081 229 769 -319 1015 -319 z "},"ガ":{"ha":0,"x_min":0,"x_max":0,"o":"m 936 726 b 918 897 936 726 1014 813 z m 635 744 b 836 751 693 746 760 749 b 824 194 833 467 824 194 b 1031 869 824 194 1031 196 b 1036 588 1031 717 1035 588 b 882 536 933 588 882 586 l 782 536 l 782 394 b 874 397 782 394 814 396 b 751 -147 843 -14 751 -147 b 1064 401 751 -147 999 -147 z "},"キ":{"ha":0,"x_min":0,"x_max":0,"o":"m 374 407 l 493 407 b 500 790 493 526 496 664 l 749 NaN l 611 NaN b 622 NaN 615 NaN 618 NaN l 817 NaN l 817 NaN l 733 NaN l 738 NaN l 740 NaN l 522 NaN l 522 NaN z "},"ギ":{"ha":0,"x_min":0,"x_max":0,"o":"m 865 836 z m 639 25 l 758 25 b 765 408 758 146 761 282 l 1014 408 l 1014 464 l 960 519 l 824 519 b 833 781 826 619 831 711 l 1028 781 l 1028 836 l 946 836 b 1032 840 946 838 1000 840 b 1000 788 1032 840 1000 842 l 782 788 l 782 732 l 726 732 z "},"ク":{"ha":0,"x_min":0,"x_max":0,"o":"m 381 -28 l 818 -28 l 818 167 l 1004 167 l 1004 604 l 810 604 l 810 590 l 654 590 l 654 535 l 808 535 b 532 -196 790 -64 532 -196 b 1004 604 532 -196 1004 -196 z "},"グ":{"ha":0,"x_min":0,"x_max":0,"o":"m 947 847 b 946 833 947 843 947 838 l 792 833 l 792 778 l 946 778 "},"ケ":{"ha":0,"x_min":0,"x_max":0,"o":"m 32 -210 l 389 -210 l 389 147 l 542 147 b 265 -471 525 -347 265 -471 b 736 147 265 -471 715 -514 l 900 147 l 900 -253 z "},"ゲ":{"ha":0,"x_min":0,"x_max":0,"o":"m 1069 960 b 1017 893 1069 900 1003 893 b 1021 892 1004 893 1021 876 b 931 319 1021 839 1038 319 b 2042 299 931 319 1379 276 l 2206 299 l 2206 354 l 1806 354 l 1806 299 l 1958 299 "},"コ":{"ha":0,"x_min":0,"x_max":0,"o":"m 363 635 b 835 647 363 635 525 638 b 849 229 838 550 842 400 b 363 240 539 244 363 240 l 363 61 b 1014 64 363 61 639 44 "},"ゴ":{"ha":0,"x_min":0,"x_max":0,"o":"m 947 797 z m 1015 65 b 1489 -143 1015 -157 1179 -154 b 1503 -562 1492 -242 1496 -392 b 1015 -550 1193 -546 1015 -550 l 1015 -731 b 1668 -728 1015 -731 1292 -747 z "},"サ":{"ha":0,"x_min":0,"x_max":0,"o":"b 397 -247 442 418 397 -43 b 397 NaN 397 -401 397 NaN b 840 NaN 397 NaN 776 NaN l 681 NaN b 851 NaN 681 NaN 792 NaN b 792 NaN 854 NaN 792 NaN l 657 NaN l 657 NaN l 794 NaN "},"ザ":{"ha":0,"x_min":0,"x_max":0,"o":"m 1013 968 l 947 897 b 1033 1040 947 963 947 1040 b 1024 NaN 939 1040 1024 NaN l 964 NaN b 928 NaN 956 NaN 944 NaN b 311 NaN 357 NaN 311 NaN b 311 NaN 311 NaN 311 NaN b 756 NaN 311 NaN 692 NaN l 596 NaN b 767 NaN 596 NaN 707 NaN b 708 NaN 771 NaN 708 NaN l 575 NaN l 575 NaN l 713 NaN z "},"シ":{"ha":0,"x_min":0,"x_max":0,"o":""},"ジ":{"ha":0,"x_min":0,"x_max":0,"o":"m 910 847 b 857 781 910 788 842 781 b 860 781 844 781 860 764 b 1032 763 860 857 946 763 "},"ス":{"ha":0,"x_min":0,"x_max":0,"o":"m 758 244 b 1022 24 821 206 946 121 l 1163 160 b 796 290 1010 294 875 303 b 944 824 882 408 944 578 z "},"ズ":{"ha":1042,"x_min":0,"x_max":0,"o":"m 796 290 b 943 824 882 408 943 578 b 410 1165 653 833 410 965 b 674 944 472 1126 596 1042 l 813 1081 b 447 1211 661 1215 526 1224 z m 693 1388 b 657 1433 686 1403 674 1418 l 593 1361 b 674 1261 657 1304 674 1261 b 699 1374 674 1261 719 1313 z "},"セ":{"ha":0,"x_min":0,"x_max":0,"o":"m 419 89 b 999 86 794 69 999 86 b 1486 93 1178 90 1344 92 b NaN NaN 1585 346 1601 NaN l NaN NaN b NaN NaN NaN NaN NaN NaN b NaN NaN NaN NaN NaN NaN l NaN NaN l NaN NaN l NaN NaN b NaN NaN NaN NaN NaN NaN l NaN NaN l NaN NaN l NaN NaN b NaN NaN NaN NaN NaN NaN z "},"ゼ":{"ha":0,"x_min":0,"x_max":0,"o":"m 1064 801 b 1150 864 1064 786 1064 864 b 1139 NaN 1054 864 1139 NaN b NaN NaN 1139 NaN 1200 NaN b NaN NaN NaN NaN NaN NaN z m NaN NaN b NaN NaN NaN NaN NaN NaN b NaN NaN NaN NaN NaN NaN l NaN NaN b NaN NaN NaN NaN NaN NaN b NaN NaN NaN NaN NaN NaN l NaN NaN b NaN NaN NaN NaN NaN NaN b NaN NaN NaN NaN NaN NaN l NaN NaN b NaN NaN NaN NaN NaN NaN l NaN NaN l NaN NaN l NaN NaN l NaN NaN l NaN NaN l NaN NaN l NaN NaN l NaN NaN l NaN NaN l NaN NaN l NaN NaN b NaN NaN NaN NaN NaN NaN b NaN NaN NaN NaN NaN NaN z "},"ソ":{"ha":0,"x_min":0,"x_max":0,"o":"m 606 450 b 800 1099 606 800 800 1099 b 829 1058 739 1099 829 1424 b NaN 1314 829 1314 779 1314 z m NaN 1688 b NaN 1547 NaN 1097 NaN 888 b NaN NaN NaN 1547 NaN NaN z "},"ゾ":{"ha":0,"x_min":0,"x_max":0,"o":"m 1046 1047 b 979 996 1046 988 979 981 b 996 946 979 983 996 946 b 978 1117 996 946 1072 1032 z m 536 519 b 801 610 536 519 476 610 b 690 560 436 610 690 560 z m 929 933 b 463 794 929 343 463 133 b 1263 NaN 463 794 1263 NaN z "},"タ":{"ha":0,"x_min":0,"x_max":0,"o":"m 803 807 l 649 807 l 649 751 l 801 751 b 765 443 799 631 785 529 b 547 574 740 500 682 565 b 697 643 547 613 608 643 b 499 493 822 643 499 583 b 633 675 499 599 519 675 l 631 535 b 836 478 706 533 789 500 z "},"ダ":{"ha":0,"x_min":0,"x_max":0,"o":"m 1013 1051 b 961 985 1013 992 946 985 b 964 968 949 985 964 968 b 1135 950 964 1044 1050 950 z m 926 706 l 771 706 l 771 650 l 925 650 b 889 342 921 529 908 428 b 669 472 864 399 806 464 b 819 543 669 513 731 543 b 621 392 944 543 621 482 b 756 574 621 499 642 574 l 754 433 b 960 376 828 432 913 399 z "},"チ":{"ha":0,"x_min":0,"x_max":0,"o":"m 1039 394 l 1039 450 l 953 450 b 975 694 965 519 974 600 b 1053 754 1000 713 1025 732 l 915 893 b 499 667 732 675 551 671 b NaN NaN 451 661 408 NaN l NaN NaN l NaN NaN l NaN NaN b NaN NaN NaN NaN NaN NaN b NaN NaN NaN NaN NaN NaN z "},"ヂ":{"ha":0,"x_min":0,"x_max":0,"o":"m 942 754 l 806 893 b 388 668 622 675 440 672 b NaN NaN 340 663 297 NaN l NaN NaN l NaN NaN l NaN NaN b NaN NaN NaN NaN NaN NaN b NaN NaN NaN NaN NaN NaN l NaN NaN l NaN NaN l NaN NaN b NaN NaN NaN NaN NaN NaN b NaN NaN NaN NaN NaN NaN z m NaN NaN l NaN NaN b NaN NaN NaN NaN NaN NaN l NaN NaN b NaN NaN NaN NaN NaN NaN z "},"ッ":{"ha":0,"x_min":0,"x_max":0,"o":"m 574 428 b 544 681 574 428 544 553 l 424 681 b 574 428 424 418 574 428 z m 758 428 b 731 681 758 428 731 553 l 608 681 b 758 428 608 418 758 428 z m 525 24 b 1022 579 525 24 1022 24 b 688 24 1022 200 688 24 z "},"ツ":{"ha":0,"x_min":0,"x_max":0,"o":"m 529 506 z m 750 506 "},"ヅ":{"ha":0,"x_min":0,"x_max":0,"o":"m 1068 917 l 1007 850 l 935 NaN b 783 NaN 935 NaN 878 NaN z m 67 NaN b 33 NaN 67 NaN 33 NaN z m 288 NaN "},"テ":{"ha":0,"x_min":0,"x_max":0,"o":"m 985 806 l 1040 806 l 1040 317 l 985 317 z m 944 111 l 944 111 l 944 478 l 956 478 l 956 494 z "},"デ":{"ha":0,"x_min":0,"x_max":0,"o":"m 985 806 l 1040 806 l 1040 317 l 985 317 z m 1036 -465 z m 1706 -60 b 2089 -49 1706 -60 2071 -49 b 2033 115 2033 -49 2033 29 b NaN NaN 2033 19 2119 NaN l NaN NaN l NaN NaN l NaN NaN l NaN NaN b NaN NaN NaN NaN NaN NaN "},"ト":{"ha":0,"x_min":0,"x_max":0,"o":"b 701 939 0 74 701 939 b 240 583 707 939 240 958 l 396 583 b 410 1425 410 996 410 1425 "},"ド":{"ha":0,"x_min":0,"x_max":0,"o":"m 688 24 b 1529 38 688 38 1100 38 b 1068 -319 1535 38 1068 56 z m 1514 408 "},"ナ":{"ha":0,"x_min":0,"x_max":0,"o":"m 663 865 b 547 1526 663 1528 603 1526 b 492 NaN 544 1526 492 NaN l 225 NaN l 225 NaN l 488 NaN b 324 NaN 454 NaN 324 NaN b 681 NaN 324 NaN 622 NaN l 857 NaN l 857 NaN b 863 NaN 861 NaN 863 NaN z "},"ニ":{"ha":0,"x_min":0,"x_max":0,"o":"m 392 756 l 392 599 b 997 574 767 579 997 574 l 997 768 b 392 756 997 768 803 768 z m 1039 246 b 1365 -443 1039 -165 1051 -443 b 1746 NaN 1371 -443 1746 -424 z "},"ヌ":{"ha":0,"x_min":0,"x_max":0,"o":"m 425 22 b 811 290 425 22 660 28 b 875 258 832 281 853 269 l 964 432 b 885 465 936 446 910 457 b 936 865 917 571 936 703 b 982 364 936 422 946 364 b 1251 NaN 985 364 1251 374 b 1213 NaN 1244 NaN 1232 NaN b 992 NaN 1065 NaN 992 NaN b 1169 NaN 992 NaN 1043 NaN "},"ネ":{"ha":0,"x_min":0,"x_max":0,"o":"m 749 740 b 740 865 744 765 740 806 l 574 865 b 675 726 574 783 625 744 l 411 726 l 411 671 l 717 671 b 347 268 636 379 347 268 b 617 304 347 268 478 247 b 335 288 617 292 443 288 b 483 485 335 288 483 256 b 647 825 557 556 618 664 z m 771 428 b 531 447 663 536 531 447 b 672 329 531 447 596 407 z "},"ノ":{"ha":0,"x_min":0,"x_max":0,"o":"m 415 22 b 426 1265 415 754 415 1265 b 626 738 1258 1265 626 949 z "},"ハ":{"ha":0,"x_min":0,"x_max":0,"o":""},"バ":{"ha":0,"x_min":0,"x_max":0,"o":"m 1021 756 b 1003 928 1021 756 1097 842 b 1075 836 1058 875 1075 836 "},"パ":{"ha":739,"x_min":0,"x_max":0,"o":""},"ヒ":{"ha":0,"x_min":0,"x_max":0,"o":"m 978 21 "},"ビ":{"ha":0,"x_min":0,"x_max":0,"o":"m 1035 899 z m 979 21 l 979 78 l 926 78 l 926 93 l 1107 93 b 688 82 1107 93 982 97 "},"ピ":{"ha":-40,"x_min":0,"x_max":0,"o":"m 3 -761 b 182 -507 6 -646 7 -387 l 335 NaN b 4 NaN 181 NaN 53 NaN b 247 NaN 4 NaN 154 NaN b -115 NaN 253 NaN -115 NaN "},"フ":{"ha":0,"x_min":0,"x_max":0,"o":"m 399 832 l 399 689 b 790 703 399 689 503 692 "},"ブ":{"ha":0,"x_min":0,"x_max":0,"o":"m 1015 1036 b 964 969 1015 976 949 969 b 967 953 951 969 967 953 b 1138 935 967 1029 1053 935 z m 601 -78 l 601 -78 l 1111 -78 l 1111 -225 l 968 -225 b 1360 -211 968 -225 1072 -222 z "},"プ":{"ha":689,"x_min":0,"x_max":0,"o":"m 974 1058 b 871 956 917 1058 871 1013 b 974 853 871 899 917 853 b 1076 956 1031 853 1076 899 b 974 1058 1076 1013 1031 1058 z m 974 908 b 926 956 947 908 926 929 b 974 1003 926 981 947 1003 b 1021 956 1000 1003 1021 981 b 974 908 1021 929 1000 908 z m 399 689 b 792 703 399 689 503 692 "},"ヘ":{"ha":0,"x_min":0,"x_max":0,"o":""},"ベ":{"ha":0,"x_min":0,"x_max":0,"o":"b NaN 986 0 925 582 986 b NaN 896 NaN 933 NaN 896 "},"ペ":{"ha":554,"x_min":0,"x_max":0,"o":"m 961 657 b 858 760 961 714 915 760 b 961 863 915 760 961 806 z m 811 863 b 858 910 811 889 832 910 b 811 957 832 910 811 931 z m 249 724 l 368 569 l 546 708 b 1086 468 842 625 1086 468 l 1139 556 b 522 935 1139 556 907 785 z "},"ホ":{"ha":0,"x_min":0,"x_max":0,"o":"m 644 24 "},"ボ":{"ha":0,"x_min":0,"x_max":0,"o":"m 1032 753 b 1014 925 1032 753 1108 839 b 946 872 1014 865 946 857 b 961 861 946 861 961 844 b 978 769 961 807 978 769 z m 590 40 "},"ポ":{"ha":601,"x_min":0,"x_max":0,"o":"m 1064 856 b 963 958 1064 913 1018 958 b 1064 1061 1018 958 1064 1004 z m 963 1014 b 915 1061 936 1014 915 1035 b 963 1108 915 1088 936 1108 b 1008 1061 988 1108 1008 1088 b 963 1014 1008 1035 988 1014 z m 332 807 l 603 807 b 643 229 610 643 622 428 l 764 229 b 778 807 764 414 771 638 l 1028 NaN l 890 NaN l 900 NaN b 907 NaN 900 NaN 901 NaN l 638 NaN z m 643 NaN b 542 NaN 617 NaN 542 NaN b 835 NaN 542 NaN 794 NaN z m 1165 NaN b 1458 NaN 1206 NaN 1458 NaN b 1357 NaN 1458 NaN 1383 NaN z "},"マ":{"ha":0,"x_min":0,"x_max":0,"o":"m 1007 793 b 1140 169 1007 349 1017 169 b 1428 NaN 1143 169 1428 179 b 1276 NaN 1392 NaN 1317 NaN b 1094 NaN 1158 NaN 1094 NaN b 1436 NaN 1094 NaN 1239 NaN l 1574 NaN b 1326 NaN 1478 NaN 1394 NaN b 1643 NaN 1431 NaN 1608 NaN z "},"ミ":{"ha":0,"x_min":0,"x_max":0,"o":"m 929 814 b 463 831 929 814 781 824 l 460 743 b 925 689 747 706 925 689 z m 906 383 l 913 510 b 482 544 913 510 800 524 l 476 456 z m 424 100 b 954 56 424 100 665 74 l 965 211 "},"ム":{"ha":0,"x_min":0,"x_max":0,"o":"m 769 399 b 722 924 769 904 769 924 b 653 NaN 740 924 653 NaN b 360 NaN 593 NaN 497 NaN b 660 NaN 360 NaN 472 NaN b 469 NaN 963 NaN 469 NaN b 963 NaN 715 NaN 875 NaN l 967 NaN l 1160 NaN "},"メ":{"ha":0,"x_min":0,"x_max":0,"o":"m 390 24 b 396 1028 390 731 390 1028 b 907 NaN 536 1028 907 NaN b 990 NaN 933 NaN 961 NaN l 1078 NaN b 957 NaN 1035 NaN 994 NaN b 1132 NaN 957 NaN 1039 NaN b 1146 NaN 1239 NaN 1146 NaN b NaN NaN 1146 NaN 1071 NaN b NaN NaN NaN NaN NaN NaN b NaN NaN NaN NaN NaN NaN "},"モ":{"ha":0,"x_min":0,"x_max":0,"o":"m 539 31 b 983 29 776 15 983 29 l 983 208 b 700 199 983 208 883 208 b 707 521 703 314 706 425 l 496 521 b 497 750 497 622 497 704 l 761 750 l 761 261 l 706 261 l 706 404 b 710 175 706 357 707 275 l 522 175 l 522 119 l 711 119 b 729 -371 715 -28 721 -206 z "},"ャ":{"ha":0,"x_min":0,"x_max":0,"o":"m 410 381 b 535 403 410 381 456 388 b 592 24 551 286 572 150 l 724 38 b 688 429 713 178 700 315 l 838 457 b 808 317 829 372 808 317 b 978 614 808 317 1001 365 b 672 579 864 601 760 590 b 657 717 664 664 657 717 l 494 699 b 514 560 494 699 501 644 l 388 542 z "},"ヤ":{"ha":0,"x_min":0,"x_max":0,"o":"m 668 686 l 650 850 l 457 829 b 479 661 457 829 465 763 b 329 642 385 650 329 642 l 356 449 l 506 475 b 574 24 525 336 549 175 l 729 40 b 688 507 715 207 700 371 b 864 540 740 517 800 528 b 829 372 856 439 829 372 b 1032 726 829 372 1060 431 b 668 686 896 713 772 699 z "},"ュ":{"ha":0,"x_min":0,"x_max":0,"o":"m 383 240 l 383 78 b 1006 99 383 78 667 82 l 1006 231 b 904 233 971 231 936 232 b 935 647 925 449 935 647 l 935 276 l 943 276 l 943 176 l 824 176 l 1128 188 b 1119 -124 1125 108 1121 -6 "},"ユ":{"ha":0,"x_min":0,"x_max":0,"o":"m 982 767 l 982 324 l 992 324 l 992 204 l 850 204 l 1213 217 b 1203 -154 1210 124 1204 -14 b 1546 -603 1203 -431 1208 -603 b 1956 NaN 1551 -603 1956 -583 l 1956 NaN b 1835 NaN 1914 NaN 1874 NaN "},"ョ":{"ha":0,"x_min":0,"x_max":0,"o":"m 444 24 b 918 44 444 24 579 28 b 944 683 943 386 944 683 l 944 311 l 953 311 l 953 183 l 833 183 l 1168 194 b 1167 40 1168 153 1167 100 l 1167 -124 l 1171 -124 l 1171 -210 l 1051 -210 b 1303 -199 1051 -210 1142 -207 l 1307 -344 "},"ヨ":{"ha":0,"x_min":0,"x_max":0,"o":"m 396 24 b 958 49 396 24 556 29 b 992 810 989 456 992 810 b 1110 214 992 367 1001 214 b 1403 NaN 1113 214 1403 224 b 1401 NaN 1403 NaN 1401 NaN l 1401 NaN l 1407 NaN l 1407 NaN l 1264 NaN b 1563 NaN 1264 NaN 1369 NaN l 1567 NaN "},"ラ":{"ha":0,"x_min":0,"x_max":0,"o":"m 960 838 l 569 838 l 569 782 l 1071 782 z m 528 540 l 885 553 b 575 24 840 140 575 24 b 1085 672 575 24 1085 -22 "},"リ":{"ha":0,"x_min":0,"x_max":0,"o":"m 599 824 l 418 824 b 449 363 418 824 418 647 l 589 363 b 599 824 601 647 599 824 z m 753 753 b 661 517 753 804 179 517 b 549 NaN 600 517 549 1307 z "},"ル":{"ha":0,"x_min":0,"x_max":0,"o":"b 1078 494 0 407 194 494 b 1918 58 1918 494 1918 500 b NaN NaN 1918 78 1543 NaN l NaN NaN b NaN NaN NaN NaN NaN NaN b NaN NaN NaN NaN NaN NaN b NaN NaN NaN NaN NaN NaN m NaN NaN b NaN NaN NaN NaN NaN NaN b NaN NaN NaN NaN NaN NaN z "},"レ":{"ha":0,"x_min":0,"x_max":0,"o":"m 653 218 b 660 1019 653 683 660 1019 b 576 597 946 1019 951 578 l 733 597 b 1122 1006 1094 704 1122 1006 b 739 792 1122 1006 985 824 z "},"ロ":{"ha":0,"x_min":0,"x_max":0,"o":"m 379 58 b 1021 64 379 58 646 44 b 679 -167 1021 -171 1021 -167 b 322 NaN 699 -167 322 NaN z m 492 NaN b 785 NaN 565 NaN 663 NaN b 800 NaN 788 NaN 792 NaN b 485 NaN 668 NaN 563 NaN b 492 NaN 489 NaN 492 NaN z "},"ヮ":{"ha":0,"x_min":0,"x_max":0,"o":"m 450 468 l 556 468 b 571 586 563 517 567 556 l 781 593 b 518 24 749 158 518 24 b 947 693 518 24 947 42 b 956 189 947 321 956 189 b 892 26 953 189 892 199 z "},"ワ":{"ha":0,"x_min":0,"x_max":0,"o":"m 404 553 l 531 553 b 549 693 538 611 543 657 b 797 703 607 696 688 699 b 724 543 797 546 797 543 b 529 NaN 735 543 529 NaN z "},"ヰ":{"ha":0,"x_min":0,"x_max":0,"o":"m 899 697 b 1296 706 899 697 1058 700 b 1306 488 1299 632 1301 558 l 1461 488 l 1317 492 b 1321 819 1319 618 1321 732 z "},"ヱ":{"ha":0,"x_min":0,"x_max":0,"o":"m 999 626 l 999 1208 l 885 1208 b 1350 1194 1090 1201 1247 1196 b 1288 1035 1342 1090 1288 1035 b 1492 1190 1288 1035 1492 1054 z m 1533 808 b 1263 815 1435 811 1344 813 b 1582 822 1263 822 1474 822 b 1464 638 1582 822 1464 836 b 1782 392 1464 482 1467 392 b 2163 NaN 1788 392 2163 411 z "},"ヲ":{"ha":0,"x_min":0,"x_max":0,"o":"m 394 689 b 796 703 394 689 506 692 b 740 404 788 586 767 488 b 485 564 710 467 639 553 l 469 407 b 724 357 597 390 679 369 "},"ン":{"ha":0,"x_min":0,"x_max":0,"o":"m 325 826 l 324 682 b 333 924 324 792 322 924 b 288 NaN 539 924 288 938 z m 286 NaN l 329 NaN b 958 NaN 1083 NaN 958 NaN b 286 NaN 958 NaN 825 NaN z "},"ヴ":{"ha":0,"x_min":0,"x_max":0,"o":"m 892 753 z m 815 711 b 746 838 815 785 768 838 l 613 838 b 614 851 613 846 614 851 b 661 557 614 851 618 682 l 797 557 b 804 782 797 644 801 726 l 1050 782 b 1044 NaN 1049 778 1044 NaN z "},"ヵ":{"ha":0,"x_min":0,"x_max":0,"o":"m 674 729 l 510 729 b 507 597 510 683 508 639 l 424 597 l 424 478 b 500 479 424 478 450 479 b 397 24 474 135 397 24 b 660 483 397 24 604 24 b 829 489 708 485 765 488 b 818 22 826 250 818 22 b 993 589 818 22 993 24 b 669 594 864 592 756 594 b 674 729 672 638 674 682 z "},"ヶ":{"ha":0,"x_min":0,"x_max":0,"o":"m 410 718 b 358 583 410 446 358 369 b 664 NaN 358 626 664 NaN z m 1028 NaN l 692 NaN l 692 NaN l 819 NaN b 588 NaN 803 NaN 588 NaN b 983 NaN 588 NaN 961 NaN l 1121 NaN l 1121 NaN l 1074 NaN z "},"亜":{"ha":0,"x_min":0,"x_max":0,"o":""},"唖":{"ha":0,"x_min":0,"x_max":0,"o":""},"娃":{"ha":0,"x_min":0,"x_max":0,"o":""},"阿":{"ha":0,"x_min":0,"x_max":0,"o":""},"哀":{"ha":0,"x_min":0,"x_max":0,"o":""},"愛":{"ha":0,"x_min":0,"x_max":0,"o":""},"挨":{"ha":0,"x_min":0,"x_max":0,"o":""},"姶":{"ha":0,"x_min":0,"x_max":0,"o":""},"葵":{"ha":0,"x_min":0,"x_max":0,"o":""},"茜":{"ha":0,"x_min":0,"x_max":0,"o":""},"穐":{"ha":0,"x_min":0,"x_max":0,"o":""},"悪":{"ha":0,"x_min":0,"x_max":0,"o":""},"握":{"ha":0,"x_min":0,"x_max":0,"o":""},"渥":{"ha":0,"x_min":0,"x_max":0,"o":""},"旭":{"ha":0,"x_min":0,"x_max":0,"o":""},"葦":{"ha":0,"x_min":0,"x_max":0,"o":""},"鯵":{"ha":0,"x_min":0,"x_max":0,"o":""},"梓":{"ha":0,"x_min":0,"x_max":0,"o":""},"圧":{"ha":0,"x_min":0,"x_max":0,"o":""},"斡":{"ha":0,"x_min":0,"x_max":0,"o":""},"扱":{"ha":0,"x_min":0,"x_max":0,"o":""},"宛":{"ha":0,"x_min":0,"x_max":0,"o":""},"姐":{"ha":0,"x_min":0,"x_max":0,"o":""},"虻":{"ha":0,"x_min":0,"x_max":0,"o":""},"絢":{"ha":0,"x_min":0,"x_max":0,"o":""},"綾":{"ha":0,"x_min":0,"x_max":0,"o":""},"鮎":{"ha":0,"x_min":0,"x_max":0,"o":""},"或":{"ha":0,"x_min":0,"x_max":0,"o":""},"粟":{"ha":0,"x_min":0,"x_max":0,"o":""},"袷":{"ha":0,"x_min":0,"x_max":0,"o":""},"安":{"ha":0,"x_min":0,"x_max":0,"o":""},"庵":{"ha":0,"x_min":0,"x_max":0,"o":""},"按":{"ha":0,"x_min":0,"x_max":0,"o":""},"暗":{"ha":0,"x_min":0,"x_max":0,"o":""},"案":{"ha":0,"x_min":0,"x_max":0,"o":""},"闇":{"ha":0,"x_min":0,"x_max":0,"o":""},"鞍":{"ha":0,"x_min":0,"x_max":0,"o":""},"杏":{"ha":0,"x_min":0,"x_max":0,"o":""},"以":{"ha":0,"x_min":0,"x_max":0,"o":""},"伊":{"ha":0,"x_min":0,"x_max":0,"o":""},"位":{"ha":0,"x_min":0,"x_max":0,"o":""},"依":{"ha":0,"x_min":0,"x_max":0,"o":""},"偉":{"ha":0,"x_min":0,"x_max":0,"o":""},"囲":{"ha":0,"x_min":0,"x_max":0,"o":""},"夷":{"ha":0,"x_min":0,"x_max":0,"o":""},"委":{"ha":0,"x_min":0,"x_max":0,"o":""},"威":{"ha":0,"x_min":0,"x_max":0,"o":""},"尉":{"ha":0,"x_min":0,"x_max":0,"o":""},"惟":{"ha":0,"x_min":0,"x_max":0,"o":""},"意":{"ha":0,"x_min":0,"x_max":0,"o":""},"慰":{"ha":0,"x_min":0,"x_max":0,"o":""},"易":{"ha":0,"x_min":0,"x_max":0,"o":""},"椅":{"ha":0,"x_min":0,"x_max":0,"o":""},"為":{"ha":0,"x_min":0,"x_max":0,"o":""},"畏":{"ha":0,"x_min":0,"x_max":0,"o":""},"異":{"ha":0,"x_min":0,"x_max":0,"o":""},"移":{"ha":0,"x_min":0,"x_max":0,"o":""},"維":{"ha":0,"x_min":0,"x_max":0,"o":""},"緯":{"ha":0,"x_min":0,"x_max":0,"o":""},"胃":{"ha":0,"x_min":0,"x_max":0,"o":""},"萎":{"ha":0,"x_min":0,"x_max":0,"o":""},"⾐":{"ha":0,"x_min":0,"x_max":0,"o":""},"謂":{"ha":0,"x_min":0,"x_max":0,"o":""},"違":{"ha":0,"x_min":0,"x_max":0,"o":""},"遺":{"ha":0,"x_min":0,"x_max":0,"o":""},"医":{"ha":0,"x_min":0,"x_max":0,"o":""},"井":{"ha":0,"x_min":0,"x_max":0,"o":""},"亥":{"ha":0,"x_min":0,"x_max":0,"o":""},"域":{"ha":0,"x_min":0,"x_max":0,"o":""},"育":{"ha":0,"x_min":0,"x_max":0,"o":""},"郁":{"ha":0,"x_min":0,"x_max":0,"o":""},"磯":{"ha":0,"x_min":0,"x_max":0,"o":""},"⼀":{"ha":0,"x_min":0,"x_max":0,"o":"m 1196 453 l 1196 521 l 304 521 l 304 453 z "},"壱":{"ha":0,"x_min":0,"x_max":0,"o":""},"逸":{"ha":0,"x_min":0,"x_max":0,"o":""},"稲":{"ha":0,"x_min":0,"x_max":0,"o":""},"芋":{"ha":0,"x_min":0,"x_max":0,"o":""},"允":{"ha":0,"x_min":0,"x_max":0,"o":""},"印":{"ha":0,"x_min":0,"x_max":0,"o":""},"咽":{"ha":0,"x_min":0,"x_max":0,"o":""},"員":{"ha":0,"x_min":0,"x_max":0,"o":""},"因":{"ha":0,"x_min":0,"x_max":0,"o":""},"姻":{"ha":0,"x_min":0,"x_max":0,"o":""},"引":{"ha":0,"x_min":0,"x_max":0,"o":""},"飲":{"ha":0,"x_min":0,"x_max":0,"o":""},"胤":{"ha":0,"x_min":0,"x_max":0,"o":""},"蔭":{"ha":0,"x_min":0,"x_max":0,"o":""},"院":{"ha":0,"x_min":0,"x_max":0,"o":""},"陰":{"ha":0,"x_min":0,"x_max":0,"o":""},"隠":{"ha":0,"x_min":0,"x_max":0,"o":""},"韻":{"ha":0,"x_min":0,"x_max":0,"o":""},"吋":{"ha":0,"x_min":0,"x_max":0,"o":""},"右":{"ha":0,"x_min":0,"x_max":0,"o":"m 986 456 b 985 433 986 447 985 440 l 611 433 l 611 456 l 443 456 b 503 779 469 538 490 644 l 1007 779 l 1007 847 l 619 847 b 836 1085 619 847 746 853 b 854 617 839 1001 843 833 l 1014 617 b 1015 642 1015 625 1015 633 l 1390 642 l 1390 617 l 1579 617 b 1561 1144 1579 617 1575 831 z m 1390 710 l 1017 710 b 1024 1054 1021 867 1024 982 l 1397 1054 b 1390 710 1393 899 1392 783 z "},"宇":{"ha":0,"x_min":0,"x_max":0,"o":""},"烏":{"ha":0,"x_min":0,"x_max":0,"o":""},"⽻":{"ha":0,"x_min":0,"x_max":0,"o":""},"⾬":{"ha":0,"x_min":0,"x_max":0,"o":"m 1126 933 l 1126 1001 l 372 1001 l 372 933 z m 392 -71 l 539 -71 b 547 685 544 375 547 586 l 722 685 b 725 517 722 639 724 583 b 553 526 629 569 553 526 b 688 385 553 526 646 474 l 726 418 l 731 240 b 553 253 632 297 553 253 b 688 113 553 253 646 201 l 732 150 l 736 -71 l 883 -71 l 892 685 l 1071 685 b 1069 525 1071 628 1069 575 b 915 526 982 564 915 526 b 1049 385 915 526 1007 474 l 1067 400 b 1065 254 1067 346 1067 297 b 915 253 979 290 915 253 b 1049 113 915 253 1007 201 l 1064 125 l 1064 61 b 1176 -10 1064 13 1065 -10 b 1314 NaN 1181 -10 1314 6 b 1296 NaN 1314 NaN 1310 NaN l 1149 NaN l 1149 NaN l 968 NaN l 969 NaN l 794 NaN b 797 NaN 794 NaN 794 NaN l 625 NaN l 625 NaN l 449 NaN b 468 NaN 449 NaN 453 NaN z "},"卯":{"ha":0,"x_min":0,"x_max":0,"o":""},"鵜":{"ha":0,"x_min":0,"x_max":0,"o":""},"窺":{"ha":0,"x_min":0,"x_max":0,"o":""},"丑":{"ha":0,"x_min":0,"x_max":0,"o":""},"碓":{"ha":0,"x_min":0,"x_max":0,"o":""},"⾅":{"ha":0,"x_min":0,"x_max":0,"o":""},"渦":{"ha":0,"x_min":0,"x_max":0,"o":""},"嘘":{"ha":0,"x_min":0,"x_max":0,"o":""},"唄":{"ha":0,"x_min":0,"x_max":0,"o":""},"欝":{"ha":0,"x_min":0,"x_max":0,"o":""},"蔚":{"ha":0,"x_min":0,"x_max":0,"o":""},"鰻":{"ha":0,"x_min":0,"x_max":0,"o":""},"姥":{"ha":0,"x_min":0,"x_max":0,"o":""},"浦":{"ha":0,"x_min":0,"x_max":0,"o":""},"⽠":{"ha":0,"x_min":0,"x_max":0,"o":""},"閏":{"ha":0,"x_min":0,"x_max":0,"o":""},"云":{"ha":0,"x_min":0,"x_max":0,"o":""},"運":{"ha":0,"x_min":0,"x_max":0,"o":""},"雲":{"ha":0,"x_min":0,"x_max":0,"o":""},"荏":{"ha":0,"x_min":0,"x_max":0,"o":""},"叡":{"ha":0,"x_min":0,"x_max":0,"o":""},"営":{"ha":0,"x_min":0,"x_max":0,"o":""},"嬰":{"ha":0,"x_min":0,"x_max":0,"o":""},"影":{"ha":0,"x_min":0,"x_max":0,"o":""},"映":{"ha":0,"x_min":0,"x_max":0,"o":""},"曳":{"ha":0,"x_min":0,"x_max":0,"o":""},"栄":{"ha":0,"x_min":0,"x_max":0,"o":""},"永":{"ha":0,"x_min":0,"x_max":0,"o":""},"泳":{"ha":0,"x_min":0,"x_max":0,"o":""},"洩":{"ha":0,"x_min":0,"x_max":0,"o":""},"瑛":{"ha":0,"x_min":0,"x_max":0,"o":""},"盈":{"ha":0,"x_min":0,"x_max":0,"o":""},"穎":{"ha":0,"x_min":0,"x_max":0,"o":""},"頴":{"ha":0,"x_min":0,"x_max":0,"o":""},"英":{"ha":0,"x_min":0,"x_max":0,"o":""},"衛":{"ha":0,"x_min":0,"x_max":0,"o":""},"詠":{"ha":0,"x_min":0,"x_max":0,"o":""},"鋭":{"ha":0,"x_min":0,"x_max":0,"o":""},"液":{"ha":0,"x_min":0,"x_max":0,"o":""},"疫":{"ha":0,"x_min":0,"x_max":0,"o":""},"益":{"ha":0,"x_min":0,"x_max":0,"o":""},"駅":{"ha":0,"x_min":0,"x_max":0,"o":""},"悦":{"ha":0,"x_min":0,"x_max":0,"o":""},"謁":{"ha":0,"x_min":0,"x_max":0,"o":""},"越":{"ha":0,"x_min":0,"x_max":0,"o":""},"閲":{"ha":0,"x_min":0,"x_max":0,"o":""},"榎":{"ha":0,"x_min":0,"x_max":0,"o":""},"厭":{"ha":0,"x_min":0,"x_max":0,"o":""},"円":{"ha":0,"x_min":0,"x_max":0,"o":"m 411 -68 b 417 454 414 133 415 308 l 971 454 b 968 64 969 282 968 151 b 1081 -6 968 17 969 -6 b 1218 NaN 1085 -6 1218 10 b 1200 NaN 1218 NaN 1214 NaN l 1053 NaN l 1053 NaN l 496 NaN l 496 NaN b -574 NaN 496 NaN 61 NaN z m -417 NaN l -231 NaN b -215 NaN -229 NaN -225 NaN l -419 NaN b -417 NaN -418 NaN -418 NaN z m -42 NaN l 139 NaN b 133 NaN 136 NaN 135 NaN l -50 NaN b -42 NaN -43 NaN -42 NaN z "},"園":{"ha":0,"x_min":0,"x_max":0,"o":""},"堰":{"ha":0,"x_min":0,"x_max":0,"o":""},"奄":{"ha":0,"x_min":0,"x_max":0,"o":""},"宴":{"ha":0,"x_min":0,"x_max":0,"o":""},"延":{"ha":0,"x_min":0,"x_max":0,"o":""},"怨":{"ha":0,"x_min":0,"x_max":0,"o":""},"掩":{"ha":0,"x_min":0,"x_max":0,"o":""},"援":{"ha":0,"x_min":0,"x_max":0,"o":""},"沿":{"ha":0,"x_min":0,"x_max":0,"o":""},"演":{"ha":0,"x_min":0,"x_max":0,"o":""},"炎":{"ha":0,"x_min":0,"x_max":0,"o":""},"焔":{"ha":0,"x_min":0,"x_max":0,"o":""},"煙":{"ha":0,"x_min":0,"x_max":0,"o":""},"燕":{"ha":0,"x_min":0,"x_max":0,"o":""},"猿":{"ha":0,"x_min":0,"x_max":0,"o":""},"縁":{"ha":0,"x_min":0,"x_max":0,"o":""},"艶":{"ha":0,"x_min":0,"x_max":0,"o":""},"苑":{"ha":0,"x_min":0,"x_max":0,"o":""},"薗":{"ha":0,"x_min":0,"x_max":0,"o":""},"遠":{"ha":0,"x_min":0,"x_max":0,"o":""},"鉛":{"ha":0,"x_min":0,"x_max":0,"o":""},"鴛":{"ha":0,"x_min":0,"x_max":0,"o":""},"塩":{"ha":0,"x_min":0,"x_max":0,"o":""},"於":{"ha":0,"x_min":0,"x_max":0,"o":""},"汚":{"ha":0,"x_min":0,"x_max":0,"o":""},"甥":{"ha":0,"x_min":0,"x_max":0,"o":""},"凹":{"ha":0,"x_min":0,"x_max":0,"o":""},"央":{"ha":0,"x_min":0,"x_max":0,"o":""},"奥":{"ha":0,"x_min":0,"x_max":0,"o":""},"往":{"ha":0,"x_min":0,"x_max":0,"o":""},"応":{"ha":0,"x_min":0,"x_max":0,"o":""},"押":{"ha":0,"x_min":0,"x_max":0,"o":""},"旺":{"ha":0,"x_min":0,"x_max":0,"o":""},"横":{"ha":0,"x_min":0,"x_max":0,"o":""},"欧":{"ha":0,"x_min":0,"x_max":0,"o":""},"殴":{"ha":0,"x_min":0,"x_max":0,"o":""},"王":{"ha":0,"x_min":0,"x_max":0,"o":"b 586 NaN 317 3 464 4 l 460 NaN b 403 NaN 463 NaN 463 NaN b NaN NaN 278 NaN 104 NaN b NaN NaN NaN NaN NaN NaN l NaN NaN "},"翁":{"ha":0,"x_min":0,"x_max":0,"o":""},"鴬":{"ha":0,"x_min":0,"x_max":0,"o":""},"鴎":{"ha":0,"x_min":0,"x_max":0,"o":""},"⻩":{"ha":0,"x_min":0,"x_max":0,"o":""},"岡":{"ha":0,"x_min":0,"x_max":0,"o":""},"沖":{"ha":0,"x_min":0,"x_max":0,"o":""},"荻":{"ha":0,"x_min":0,"x_max":0,"o":""},"億":{"ha":0,"x_min":0,"x_max":0,"o":""},"屋":{"ha":0,"x_min":0,"x_max":0,"o":""},"憶":{"ha":0,"x_min":0,"x_max":0,"o":""},"臆":{"ha":0,"x_min":0,"x_max":0,"o":""},"桶":{"ha":0,"x_min":0,"x_max":0,"o":""},"牡":{"ha":0,"x_min":0,"x_max":0,"o":""},"⼄":{"ha":0,"x_min":0,"x_max":0,"o":""},"俺":{"ha":0,"x_min":0,"x_max":0,"o":""},"卸":{"ha":0,"x_min":0,"x_max":0,"o":""},"恩":{"ha":0,"x_min":0,"x_max":0,"o":""},"温":{"ha":0,"x_min":0,"x_max":0,"o":""},"穏":{"ha":0,"x_min":0,"x_max":0,"o":""},"⾳":{"ha":0,"x_min":0,"x_max":0,"o":"m 1126 857 l 1126 925 l 885 925 b 892 1068 892 1053 892 1068 l 717 1068 l 731 925 l 372 925 l 372 857 z m 1238 583 l 1238 651 l 1069 651 b 1188 825 1121 685 1171 739 l 1044 844 b 964 651 1031 767 993 696 l 879 651 b 656 815 803 831 656 815 b 733 651 656 815 704 747 l 483 651 l 483 583 z m 1239 -65 b 1221 500 1239 -65 1235 164 l 1060 500 b 1058 476 1060 492 1060 485 b 853 18 1058 207 1082 18 b 531 NaN 867 18 531 NaN b 532 NaN 531 NaN 531 NaN l 801 NaN l 801 NaN z m 540 NaN l 808 NaN b 806 NaN 807 NaN 806 NaN l 538 NaN b 540 NaN 539 NaN 539 NaN z m 533 NaN b 536 NaN 535 NaN 536 NaN l 804 NaN b 801 NaN 803 NaN 801 NaN z "},"下":{"ha":0,"x_min":0,"x_max":0,"o":"m 606 -82 l 761 -82 b 775 894 774 288 775 794 l 1104 894 l 1104 963 l 397 963 l 397 894 l 692 894 b 717 -82 693 790 699 256 z m 915 613 b 1136 281 915 613 894 406 l 1215 478 "},"化":{"ha":0,"x_min":0,"x_max":0,"o":""},"仮":{"ha":0,"x_min":0,"x_max":0,"o":""},"何":{"ha":0,"x_min":0,"x_max":0,"o":""},"伽":{"ha":0,"x_min":0,"x_max":0,"o":""},"価":{"ha":0,"x_min":0,"x_max":0,"o":""},"佳":{"ha":0,"x_min":0,"x_max":0,"o":""},"加":{"ha":0,"x_min":0,"x_max":0,"o":""},"可":{"ha":0,"x_min":0,"x_max":0,"o":""},"嘉":{"ha":0,"x_min":0,"x_max":0,"o":""},"夏":{"ha":0,"x_min":0,"x_max":0,"o":""},"嫁":{"ha":0,"x_min":0,"x_max":0,"o":""},"家":{"ha":0,"x_min":0,"x_max":0,"o":""},"寡":{"ha":0,"x_min":0,"x_max":0,"o":""},"科":{"ha":0,"x_min":0,"x_max":0,"o":""},"暇":{"ha":0,"x_min":0,"x_max":0,"o":""},"果":{"ha":0,"x_min":0,"x_max":0,"o":""},"架":{"ha":0,"x_min":0,"x_max":0,"o":""},"歌":{"ha":0,"x_min":0,"x_max":0,"o":""},"河":{"ha":0,"x_min":0,"x_max":0,"o":""},"⽕":{"ha":0,"x_min":0,"x_max":0,"o":"m 589 1039 z m 638 535 b 646 1357 638 1124 638 1357 b 1060 NaN 764 1357 1060 NaN l 872 NaN b 708 NaN 818 NaN 708 NaN z m 139 NaN b 210 NaN 139 NaN 188 NaN l 396 NaN b 1485 NaN 396 NaN 685 NaN b 265 NaN 588 NaN 515 NaN z "},"珂":{"ha":0,"x_min":0,"x_max":0,"o":""},"禍":{"ha":0,"x_min":0,"x_max":0,"o":""},"⽲":{"ha":0,"x_min":0,"x_max":0,"o":""},"稼":{"ha":0,"x_min":0,"x_max":0,"o":""},"箇":{"ha":0,"x_min":0,"x_max":0,"o":""},"花":{"ha":0,"x_min":0,"x_max":0,"o":"m 454 1067 l 458 974 l 261 974 l 261 906 b 257 813 260 871 257 840 l 93 813 b 94 906 94 874 94 906 z m -347 194 b 163 464 -347 194 -28 144 l -7 553 b -347 194 -122 313 -347 194 z m 651 310 l 531 410 b 368 204 464 303 403 236 b 372 521 372 483 372 521 b -343 360 372 346 244 360 b -353 790 -343 611 -353 743 b -332 1021 -353 940 -332 1021 l -483 1060 b -500 976 -483 1060 -489 1029 b -633 969 -536 975 -581 972 b -631 1171 -632 1047 -632 1114 b -347 1304 -575 1167 -447 1176 z m -971 1172 b -1379 1161 -971 1161 -1339 1161 b -1311 1481 -1383 1161 -1311 1144 z "},"苛":{"ha":0,"x_min":0,"x_max":0,"o":""},"茄":{"ha":0,"x_min":0,"x_max":0,"o":""},"荷":{"ha":0,"x_min":0,"x_max":0,"o":""},"華":{"ha":0,"x_min":0,"x_max":0,"o":""},"菓":{"ha":0,"x_min":0,"x_max":0,"o":""},"蝦":{"ha":0,"x_min":0,"x_max":0,"o":""},"課":{"ha":0,"x_min":0,"x_max":0,"o":""},"嘩":{"ha":0,"x_min":0,"x_max":0,"o":""},"貨":{"ha":0,"x_min":0,"x_max":0,"o":""},"過":{"ha":0,"x_min":0,"x_max":0,"o":""},"霞":{"ha":0,"x_min":0,"x_max":0,"o":""},"蚊":{"ha":0,"x_min":0,"x_max":0,"o":""},"俄":{"ha":0,"x_min":0,"x_max":0,"o":""},"峨":{"ha":0,"x_min":0,"x_max":0,"o":""},"我":{"ha":0,"x_min":0,"x_max":0,"o":""},"画":{"ha":0,"x_min":0,"x_max":0,"o":""},"臥":{"ha":0,"x_min":0,"x_max":0,"o":""},"芽":{"ha":0,"x_min":0,"x_max":0,"o":""},"蛾":{"ha":0,"x_min":0,"x_max":0,"o":""},"賀":{"ha":0,"x_min":0,"x_max":0,"o":""},"雅":{"ha":0,"x_min":0,"x_max":0,"o":""},"餓":{"ha":0,"x_min":0,"x_max":0,"o":""},"駕":{"ha":0,"x_min":0,"x_max":0,"o":""},"介":{"ha":0,"x_min":0,"x_max":0,"o":""},"会":{"ha":0,"x_min":0,"x_max":0,"o":""},"解":{"ha":0,"x_min":0,"x_max":0,"o":""},"回":{"ha":0,"x_min":0,"x_max":0,"o":""},"塊":{"ha":0,"x_min":0,"x_max":0,"o":""},"壊":{"ha":0,"x_min":0,"x_max":0,"o":""},"快":{"ha":0,"x_min":0,"x_max":0,"o":""},"怪":{"ha":0,"x_min":0,"x_max":0,"o":""},"悔":{"ha":0,"x_min":0,"x_max":0,"o":""},"懐":{"ha":0,"x_min":0,"x_max":0,"o":""},"戒":{"ha":0,"x_min":0,"x_max":0,"o":""},"拐":{"ha":0,"x_min":0,"x_max":0,"o":""},"改":{"ha":0,"x_min":0,"x_max":0,"o":""},"魁":{"ha":0,"x_min":0,"x_max":0,"o":""},"械":{"ha":0,"x_min":0,"x_max":0,"o":""},"海":{"ha":0,"x_min":0,"x_max":0,"o":""},"灰":{"ha":0,"x_min":0,"x_max":0,"o":""},"界":{"ha":0,"x_min":0,"x_max":0,"o":""},"皆":{"ha":0,"x_min":0,"x_max":0,"o":""},"絵":{"ha":0,"x_min":0,"x_max":0,"o":""},"芥":{"ha":0,"x_min":0,"x_max":0,"o":""},"蟹":{"ha":0,"x_min":0,"x_max":0,"o":""},"開":{"ha":0,"x_min":0,"x_max":0,"o":""},"階":{"ha":0,"x_min":0,"x_max":0,"o":""},"⾙":{"ha":0,"x_min":0,"x_max":0,"o":"m 375 1018 b 394 197 375 1018 379 685 l 554 197 b 556 214 554 203 556 208 b 524 1304 556 483 539 817 l 363 1304 l 363 1286 l 93 1286 l 93 1304 z m 361 1218 b 358 1047 360 1157 360 1100 l 90 1047 b 92 1218 92 1118 92 1176 z m 356 808 l 88 808 b 90 979 89 871 89 928 l 357 979 b 356 808 357 915 356 858 z m 353 568 l 83 568 b 86 739 85 629 86 686 l 354 739 b 353 568 354 668 353 611 z m -147 219 b 143 422 -147 219 51 165 l -6 475 b -147 219 -65 304 -147 219 z m 303 422 b 593 219 394 165 593 219 b 450 475 593 219 511 304 z "},"凱":{"ha":0,"x_min":0,"x_max":0,"o":""},"劾":{"ha":0,"x_min":0,"x_max":0,"o":""},"外":{"ha":0,"x_min":0,"x_max":0,"o":""},"咳":{"ha":0,"x_min":0,"x_max":0,"o":""},"害":{"ha":0,"x_min":0,"x_max":0,"o":""},"崖":{"ha":0,"x_min":0,"x_max":0,"o":""},"慨":{"ha":0,"x_min":0,"x_max":0,"o":""},"概":{"ha":0,"x_min":0,"x_max":0,"o":""},"涯":{"ha":0,"x_min":0,"x_max":0,"o":""},"碍":{"ha":0,"x_min":0,"x_max":0,"o":""},"蓋":{"ha":0,"x_min":0,"x_max":0,"o":""},"街":{"ha":0,"x_min":0,"x_max":0,"o":""},"該":{"ha":0,"x_min":0,"x_max":0,"o":""},"鎧":{"ha":0,"x_min":0,"x_max":0,"o":""},"骸":{"ha":0,"x_min":0,"x_max":0,"o":""},"浬":{"ha":0,"x_min":0,"x_max":0,"o":""},"馨":{"ha":0,"x_min":0,"x_max":0,"o":""},"蛙":{"ha":0,"x_min":0,"x_max":0,"o":""},"垣":{"ha":0,"x_min":0,"x_max":0,"o":""},"柿":{"ha":0,"x_min":0,"x_max":0,"o":""},"蛎":{"ha":0,"x_min":0,"x_max":0,"o":""},"鈎":{"ha":0,"x_min":0,"x_max":0,"o":""},"劃":{"ha":0,"x_min":0,"x_max":0,"o":""},"嚇":{"ha":0,"x_min":0,"x_max":0,"o":""},"各":{"ha":0,"x_min":0,"x_max":0,"o":""},"廓":{"ha":0,"x_min":0,"x_max":0,"o":""},"拡":{"ha":0,"x_min":0,"x_max":0,"o":""},"撹":{"ha":0,"x_min":0,"x_max":0,"o":""},"格":{"ha":0,"x_min":0,"x_max":0,"o":""},"核":{"ha":0,"x_min":0,"x_max":0,"o":""},"殻":{"ha":0,"x_min":0,"x_max":0,"o":""},"獲":{"ha":0,"x_min":0,"x_max":0,"o":""},"確":{"ha":0,"x_min":0,"x_max":0,"o":""},"穫":{"ha":0,"x_min":0,"x_max":0,"o":""},"覚":{"ha":0,"x_min":0,"x_max":0,"o":""},"⾓":{"ha":0,"x_min":0,"x_max":0,"o":""},"赫":{"ha":0,"x_min":0,"x_max":0,"o":""},"較":{"ha":0,"x_min":0,"x_max":0,"o":""},"郭":{"ha":0,"x_min":0,"x_max":0,"o":""},"閣":{"ha":0,"x_min":0,"x_max":0,"o":""},"隔":{"ha":0,"x_min":0,"x_max":0,"o":""},"⾰":{"ha":0,"x_min":0,"x_max":0,"o":""},"学":{"ha":0,"x_min":0,"x_max":0,"o":"m 1161 997 l 1017 1058 b 818 836 950 924 818 836 b 1161 997 818 836 1058 793 z m 231 1015 b 346 840 231 1015 301 956 l 490 901 b 231 1015 358 1089 231 1015 z m 636 840 l 782 901 b 1042 642 782 768 969 642 b 1022 NaN 981 642 1022 528 z m 783 NaN l 1383 NaN b 1378 NaN 1378 NaN 1378 NaN l 1553 NaN b 1535 NaN 1553 NaN 1549 NaN l 1388 NaN b 1386 NaN 1388 NaN 1388 NaN b 1358 NaN 1386 NaN 1406 NaN b 1153 NaN 1374 NaN 1153 NaN l 1300 NaN b 1307 NaN 1303 NaN 1306 NaN z m 1878 NaN l 1714 NaN b 1715 NaN 1714 NaN 1715 NaN b 1885 NaN 1789 NaN 1885 NaN l 1326 NaN l 1326 NaN l 1686 NaN b 1656 NaN 1681 NaN 1668 NaN l 1526 NaN b 1529 NaN 1526 NaN 1526 NaN l 1253 NaN l 1253 NaN l 1532 NaN b 1538 NaN 1533 NaN 1536 NaN l 1538 NaN l 1540 NaN l 1540 NaN l 1386 NaN b 1632 NaN 1386 NaN 1499 NaN b 1639 NaN 1635 NaN 1638 NaN z "},"岳":{"ha":0,"x_min":0,"x_max":0,"o":""},"楽":{"ha":0,"x_min":0,"x_max":0,"o":""},"額":{"ha":0,"x_min":0,"x_max":0,"o":""},"顎":{"ha":0,"x_min":0,"x_max":0,"o":""},"掛":{"ha":0,"x_min":0,"x_max":0,"o":""},"笠":{"ha":0,"x_min":0,"x_max":0,"o":""},"樫":{"ha":0,"x_min":0,"x_max":0,"o":""},"橿":{"ha":0,"x_min":0,"x_max":0,"o":""},"梶":{"ha":0,"x_min":0,"x_max":0,"o":""},"鰍":{"ha":0,"x_min":0,"x_max":0,"o":""},"潟":{"ha":0,"x_min":0,"x_max":0,"o":""},"割":{"ha":0,"x_min":0,"x_max":0,"o":""},"喝":{"ha":0,"x_min":0,"x_max":0,"o":""},"恰":{"ha":0,"x_min":0,"x_max":0,"o":""},"括":{"ha":0,"x_min":0,"x_max":0,"o":""},"活":{"ha":0,"x_min":0,"x_max":0,"o":""},"渇":{"ha":0,"x_min":0,"x_max":0,"o":""},"滑":{"ha":0,"x_min":0,"x_max":0,"o":""},"褐":{"ha":0,"x_min":0,"x_max":0,"o":""},"轄":{"ha":0,"x_min":0,"x_max":0,"o":""},"且":{"ha":0,"x_min":0,"x_max":0,"o":""},"鰹":{"ha":0,"x_min":0,"x_max":0,"o":""},"叶":{"ha":0,"x_min":0,"x_max":0,"o":""},"椛":{"ha":0,"x_min":0,"x_max":0,"o":""},"樺":{"ha":0,"x_min":0,"x_max":0,"o":""},"株":{"ha":0,"x_min":0,"x_max":0,"o":""},"兜":{"ha":0,"x_min":0,"x_max":0,"o":""},"竃":{"ha":0,"x_min":0,"x_max":0,"o":""},"蒲":{"ha":0,"x_min":0,"x_max":0,"o":""},"鎌":{"ha":0,"x_min":0,"x_max":0,"o":""},"噛":{"ha":0,"x_min":0,"x_max":0,"o":""},"鴨":{"ha":0,"x_min":0,"x_max":0,"o":""},"栢":{"ha":0,"x_min":0,"x_max":0,"o":""},"茅":{"ha":0,"x_min":0,"x_max":0,"o":""},"萱":{"ha":0,"x_min":0,"x_max":0,"o":""},"粥":{"ha":0,"x_min":0,"x_max":0,"o":""},"刈":{"ha":0,"x_min":0,"x_max":0,"o":""},"苅":{"ha":0,"x_min":0,"x_max":0,"o":""},"⽡":{"ha":0,"x_min":0,"x_max":0,"o":""},"乾":{"ha":0,"x_min":0,"x_max":0,"o":""},"侃":{"ha":0,"x_min":0,"x_max":0,"o":""},"冠":{"ha":0,"x_min":0,"x_max":0,"o":""},"寒":{"ha":0,"x_min":0,"x_max":0,"o":""},"刊":{"ha":0,"x_min":0,"x_max":0,"o":""},"勘":{"ha":0,"x_min":0,"x_max":0,"o":""},"勧":{"ha":0,"x_min":0,"x_max":0,"o":""},"巻":{"ha":0,"x_min":0,"x_max":0,"o":""},"喚":{"ha":0,"x_min":0,"x_max":0,"o":""},"堪":{"ha":0,"x_min":0,"x_max":0,"o":""},"姦":{"ha":0,"x_min":0,"x_max":0,"o":""},"完":{"ha":0,"x_min":0,"x_max":0,"o":""},"官":{"ha":0,"x_min":0,"x_max":0,"o":""},"寛":{"ha":0,"x_min":0,"x_max":0,"o":""},"⼲":{"ha":0,"x_min":0,"x_max":0,"o":""},"幹":{"ha":0,"x_min":0,"x_max":0,"o":""},"患":{"ha":0,"x_min":0,"x_max":0,"o":""},"感":{"ha":0,"x_min":0,"x_max":0,"o":""},"慣":{"ha":0,"x_min":0,"x_max":0,"o":""},"憾":{"ha":0,"x_min":0,"x_max":0,"o":""},"換":{"ha":0,"x_min":0,"x_max":0,"o":""},"敢":{"ha":0,"x_min":0,"x_max":0,"o":""},"柑":{"ha":0,"x_min":0,"x_max":0,"o":""},"桓":{"ha":0,"x_min":0,"x_max":0,"o":""},"棺":{"ha":0,"x_min":0,"x_max":0,"o":""},"款":{"ha":0,"x_min":0,"x_max":0,"o":""},"歓":{"ha":0,"x_min":0,"x_max":0,"o":""},"汗":{"ha":0,"x_min":0,"x_max":0,"o":""},"漢":{"ha":0,"x_min":0,"x_max":0,"o":""},"澗":{"ha":0,"x_min":0,"x_max":0,"o":""},"潅":{"ha":0,"x_min":0,"x_max":0,"o":""},"環":{"ha":0,"x_min":0,"x_max":0,"o":""},"⽢":{"ha":0,"x_min":0,"x_max":0,"o":""},"監":{"ha":0,"x_min":0,"x_max":0,"o":""},"看":{"ha":0,"x_min":0,"x_max":0,"o":""},"竿":{"ha":0,"x_min":0,"x_max":0,"o":""},"管":{"ha":0,"x_min":0,"x_max":0,"o":""},"簡":{"ha":0,"x_min":0,"x_max":0,"o":""},"緩":{"ha":0,"x_min":0,"x_max":0,"o":""},"⽸":{"ha":0,"x_min":0,"x_max":0,"o":""},"肝":{"ha":0,"x_min":0,"x_max":0,"o":""},"艦":{"ha":0,"x_min":0,"x_max":0,"o":""},"莞":{"ha":0,"x_min":0,"x_max":0,"o":""},"観":{"ha":0,"x_min":0,"x_max":0,"o":""},"諌":{"ha":0,"x_min":0,"x_max":0,"o":""},"貫":{"ha":0,"x_min":0,"x_max":0,"o":""},"還":{"ha":0,"x_min":0,"x_max":0,"o":""},"鑑":{"ha":0,"x_min":0,"x_max":0,"o":""},"間":{"ha":0,"x_min":0,"x_max":0,"o":""},"閑":{"ha":0,"x_min":0,"x_max":0,"o":""},"関":{"ha":0,"x_min":0,"x_max":0,"o":""},"陥":{"ha":0,"x_min":0,"x_max":0,"o":""},"韓":{"ha":0,"x_min":0,"x_max":0,"o":""},"館":{"ha":0,"x_min":0,"x_max":0,"o":""},"舘":{"ha":0,"x_min":0,"x_max":0,"o":""},"丸":{"ha":0,"x_min":0,"x_max":0,"o":""},"含":{"ha":0,"x_min":0,"x_max":0,"o":""},"岸":{"ha":0,"x_min":0,"x_max":0,"o":""},"巌":{"ha":0,"x_min":0,"x_max":0,"o":""},"玩":{"ha":0,"x_min":0,"x_max":0,"o":""},"癌":{"ha":0,"x_min":0,"x_max":0,"o":""},"眼":{"ha":0,"x_min":0,"x_max":0,"o":""},"岩":{"ha":0,"x_min":0,"x_max":0,"o":""},"贋":{"ha":0,"x_min":0,"x_max":0,"o":""},"雁":{"ha":0,"x_min":0,"x_max":0,"o":""},"頑":{"ha":0,"x_min":0,"x_max":0,"o":""},"顔":{"ha":0,"x_min":0,"x_max":0,"o":""},"願":{"ha":0,"x_min":0,"x_max":0,"o":""},"企":{"ha":0,"x_min":0,"x_max":0,"o":""},"伎":{"ha":0,"x_min":0,"x_max":0,"o":""},"危":{"ha":0,"x_min":0,"x_max":0,"o":""},"喜":{"ha":0,"x_min":0,"x_max":0,"o":""},"器":{"ha":0,"x_min":0,"x_max":0,"o":""},"基":{"ha":0,"x_min":0,"x_max":0,"o":""},"奇":{"ha":0,"x_min":0,"x_max":0,"o":""},"嬉":{"ha":0,"x_min":0,"x_max":0,"o":""},"寄":{"ha":0,"x_min":0,"x_max":0,"o":""},"岐":{"ha":0,"x_min":0,"x_max":0,"o":""},"希":{"ha":0,"x_min":0,"x_max":0,"o":""},"幾":{"ha":0,"x_min":0,"x_max":0,"o":""},"忌":{"ha":0,"x_min":0,"x_max":0,"o":""},"揮":{"ha":0,"x_min":0,"x_max":0,"o":""},"机":{"ha":0,"x_min":0,"x_max":0,"o":""},"旗":{"ha":0,"x_min":0,"x_max":0,"o":""},"既":{"ha":0,"x_min":0,"x_max":0,"o":""},"期":{"ha":0,"x_min":0,"x_max":0,"o":""},"棋":{"ha":0,"x_min":0,"x_max":0,"o":""},"棄":{"ha":0,"x_min":0,"x_max":0,"o":""},"機":{"ha":0,"x_min":0,"x_max":0,"o":""},"帰":{"ha":0,"x_min":0,"x_max":0,"o":""},"毅":{"ha":0,"x_min":0,"x_max":0,"o":""},"気":{"ha":0,"x_min":0,"x_max":0,"o":"m 1029 940 l 486 940 b 503 1063 493 976 500 1017 l 325 1088 b 236 600 319 811 236 600 b 421 767 236 600 343 631 l 421 708 l 1085 708 l 1085 776 l 538 776 b 579 872 553 804 567 836 z m 703 -179 b 1256 493 1375 -179 1256 -93 b 1257 472 1256 486 1257 479 l 738 472 l 738 404 l 1263 404 b 1569 -179 1321 -257 1569 -179 z m 1107 -139 l 1228 -46 b 1086 97 1178 14 1131 60 b 1215 283 1128 149 1172 210 l 1082 360 b 972 181 1049 294 1011 235 b 722 233 811 275 722 233 b 899 86 722 233 799 179 b 647 -158 768 -68 647 -158 b 990 -4 647 -158 796 -185 b 1107 -139 1029 -46 1069 -90 z "},"汽":{"ha":0,"x_min":0,"x_max":0,"o":""},"畿":{"ha":0,"x_min":0,"x_max":0,"o":""},"祈":{"ha":0,"x_min":0,"x_max":0,"o":""},"季":{"ha":0,"x_min":0,"x_max":0,"o":""},"稀":{"ha":0,"x_min":0,"x_max":0,"o":""},"紀":{"ha":0,"x_min":0,"x_max":0,"o":""},"規":{"ha":0,"x_min":0,"x_max":0,"o":""},"記":{"ha":0,"x_min":0,"x_max":0,"o":""},"貴":{"ha":0,"x_min":0,"x_max":0,"o":""},"起":{"ha":0,"x_min":0,"x_max":0,"o":""},"軌":{"ha":0,"x_min":0,"x_max":0,"o":""},"輝":{"ha":0,"x_min":0,"x_max":0,"o":""},"飢":{"ha":0,"x_min":0,"x_max":0,"o":""},"騎":{"ha":0,"x_min":0,"x_max":0,"o":""},"⻤":{"ha":0,"x_min":0,"x_max":0,"o":""},"⻲":{"ha":0,"x_min":0,"x_max":0,"o":""},"偽":{"ha":0,"x_min":0,"x_max":0,"o":""},"儀":{"ha":0,"x_min":0,"x_max":0,"o":""},"妓":{"ha":0,"x_min":0,"x_max":0,"o":""},"宜":{"ha":0,"x_min":0,"x_max":0,"o":""},"戯":{"ha":0,"x_min":0,"x_max":0,"o":""},"技":{"ha":0,"x_min":0,"x_max":0,"o":""},"擬":{"ha":0,"x_min":0,"x_max":0,"o":""},"欺":{"ha":0,"x_min":0,"x_max":0,"o":""},"犠":{"ha":0,"x_min":0,"x_max":0,"o":""},"疑":{"ha":0,"x_min":0,"x_max":0,"o":""},"義":{"ha":0,"x_min":0,"x_max":0,"o":""},"蟻":{"ha":0,"x_min":0,"x_max":0,"o":""},"誼":{"ha":0,"x_min":0,"x_max":0,"o":""},"議":{"ha":0,"x_min":0,"x_max":0,"o":""},"掬":{"ha":0,"x_min":0,"x_max":0,"o":""},"菊":{"ha":0,"x_min":0,"x_max":0,"o":""},"鞠":{"ha":0,"x_min":0,"x_max":0,"o":""},"吉":{"ha":0,"x_min":0,"x_max":0,"o":""},"吃":{"ha":0,"x_min":0,"x_max":0,"o":""},"喫":{"ha":0,"x_min":0,"x_max":0,"o":""},"桔":{"ha":0,"x_min":0,"x_max":0,"o":""},"橘":{"ha":0,"x_min":0,"x_max":0,"o":""},"詰":{"ha":0,"x_min":0,"x_max":0,"o":""},"砧":{"ha":0,"x_min":0,"x_max":0,"o":""},"杵":{"ha":0,"x_min":0,"x_max":0,"o":""},"⿉":{"ha":0,"x_min":0,"x_max":0,"o":""},"却":{"ha":0,"x_min":0,"x_max":0,"o":""},"客":{"ha":0,"x_min":0,"x_max":0,"o":""},"脚":{"ha":0,"x_min":0,"x_max":0,"o":""},"虐":{"ha":0,"x_min":0,"x_max":0,"o":""},"逆":{"ha":0,"x_min":0,"x_max":0,"o":""},"丘":{"ha":0,"x_min":0,"x_max":0,"o":""},"久":{"ha":0,"x_min":0,"x_max":0,"o":""},"仇":{"ha":0,"x_min":0,"x_max":0,"o":""},"休":{"ha":0,"x_min":0,"x_max":0,"o":"m 1143 706 l 944 706 l 946 936 l 946 1054 l 950 706 l 719 706 l 719 636 l 832 636 b 657 190 779 376 657 190 b 954 444 657 190 832 208 b 964 -76 957 292 960 117 b 972 636 968 218 971 456 l 1282 636 l 1282 706 l 1226 760 z m 274 24 l 450 24 b 431 446 450 24 446 99 l 306 446 b 542 835 394 513 490 629 l 356 893 b 110 358 301 568 110 358 b 283 429 110 358 189 367 b 274 24 274 64 274 24 z m 1038 625 b 1175 218 1038 625 947 421 l 1293 372 "},"及":{"ha":0,"x_min":0,"x_max":0,"o":""},"吸":{"ha":0,"x_min":0,"x_max":0,"o":""},"宮":{"ha":0,"x_min":0,"x_max":0,"o":""},"⼸":{"ha":0,"x_min":0,"x_max":0,"o":""},"急":{"ha":0,"x_min":0,"x_max":0,"o":""},"救":{"ha":0,"x_min":0,"x_max":0,"o":""},"朽":{"ha":0,"x_min":0,"x_max":0,"o":""},"求":{"ha":0,"x_min":0,"x_max":0,"o":""},"泣":{"ha":0,"x_min":0,"x_max":0,"o":""},"球":{"ha":0,"x_min":0,"x_max":0,"o":""},"究":{"ha":0,"x_min":0,"x_max":0,"o":""},"窮":{"ha":0,"x_min":0,"x_max":0,"o":""},"級":{"ha":0,"x_min":0,"x_max":0,"o":""},"糾":{"ha":0,"x_min":0,"x_max":0,"o":""},"給":{"ha":0,"x_min":0,"x_max":0,"o":""},"旧":{"ha":0,"x_min":0,"x_max":0,"o":""},"⽜":{"ha":0,"x_min":0,"x_max":0,"o":""},"去":{"ha":0,"x_min":0,"x_max":0,"o":""},"居":{"ha":0,"x_min":0,"x_max":0,"o":""},"巨":{"ha":0,"x_min":0,"x_max":0,"o":""},"拒":{"ha":0,"x_min":0,"x_max":0,"o":""},"拠":{"ha":0,"x_min":0,"x_max":0,"o":""},"挙":{"ha":0,"x_min":0,"x_max":0,"o":""},"渠":{"ha":0,"x_min":0,"x_max":0,"o":""},"虚":{"ha":0,"x_min":0,"x_max":0,"o":""},"許":{"ha":0,"x_min":0,"x_max":0,"o":""},"距":{"ha":0,"x_min":0,"x_max":0,"o":""},"鋸":{"ha":0,"x_min":0,"x_max":0,"o":""},"漁":{"ha":0,"x_min":0,"x_max":0,"o":""},"禦":{"ha":0,"x_min":0,"x_max":0,"o":""},"⿂":{"ha":0,"x_min":0,"x_max":0,"o":""},"亨":{"ha":0,"x_min":0,"x_max":0,"o":""},"享":{"ha":0,"x_min":0,"x_max":0,"o":""},"京":{"ha":0,"x_min":0,"x_max":0,"o":""},"供":{"ha":0,"x_min":0,"x_max":0,"o":""},"侠":{"ha":0,"x_min":0,"x_max":0,"o":""},"僑":{"ha":0,"x_min":0,"x_max":0,"o":""},"兇":{"ha":0,"x_min":0,"x_max":0,"o":""},"競":{"ha":0,"x_min":0,"x_max":0,"o":""},"共":{"ha":0,"x_min":0,"x_max":0,"o":""},"凶":{"ha":0,"x_min":0,"x_max":0,"o":""},"協":{"ha":0,"x_min":0,"x_max":0,"o":""},"匡":{"ha":0,"x_min":0,"x_max":0,"o":""},"叫":{"ha":0,"x_min":0,"x_max":0,"o":""},"喬":{"ha":0,"x_min":0,"x_max":0,"o":""},"境":{"ha":0,"x_min":0,"x_max":0,"o":""},"峡":{"ha":0,"x_min":0,"x_max":0,"o":""},"強":{"ha":0,"x_min":0,"x_max":0,"o":""},"彊":{"ha":0,"x_min":0,"x_max":0,"o":""},"怯":{"ha":0,"x_min":0,"x_max":0,"o":""},"恐":{"ha":0,"x_min":0,"x_max":0,"o":""},"恭":{"ha":0,"x_min":0,"x_max":0,"o":""},"挟":{"ha":0,"x_min":0,"x_max":0,"o":""},"教":{"ha":0,"x_min":0,"x_max":0,"o":""},"橋":{"ha":0,"x_min":0,"x_max":0,"o":""},"況":{"ha":0,"x_min":0,"x_max":0,"o":""},"狂":{"ha":0,"x_min":0,"x_max":0,"o":""},"狭":{"ha":0,"x_min":0,"x_max":0,"o":""},"矯":{"ha":0,"x_min":0,"x_max":0,"o":""},"胸":{"ha":0,"x_min":0,"x_max":0,"o":""},"脅":{"ha":0,"x_min":0,"x_max":0,"o":""},"興":{"ha":0,"x_min":0,"x_max":0,"o":""},"蕎":{"ha":0,"x_min":0,"x_max":0,"o":""},"郷":{"ha":0,"x_min":0,"x_max":0,"o":""},"鏡":{"ha":0,"x_min":0,"x_max":0,"o":""},"響":{"ha":0,"x_min":0,"x_max":0,"o":""},"驚":{"ha":0,"x_min":0,"x_max":0,"o":""},"仰":{"ha":0,"x_min":0,"x_max":0,"o":""},"凝":{"ha":0,"x_min":0,"x_max":0,"o":""},"尭":{"ha":0,"x_min":0,"x_max":0,"o":""},"暁":{"ha":0,"x_min":0,"x_max":0,"o":""},"業":{"ha":0,"x_min":0,"x_max":0,"o":""},"局":{"ha":0,"x_min":0,"x_max":0,"o":""},"曲":{"ha":0,"x_min":0,"x_max":0,"o":""},"極":{"ha":0,"x_min":0,"x_max":0,"o":""},"⽟":{"ha":0,"x_min":0,"x_max":0,"o":"b 578 NaN 308 1 456 3 l 451 NaN b 572 NaN 451 NaN 632 NaN b 450 NaN 575 NaN 450 NaN b NaN NaN 453 NaN 457 NaN l NaN NaN m NaN NaN b NaN NaN NaN NaN NaN NaN l NaN NaN "},"桐":{"ha":0,"x_min":0,"x_max":0,"o":""},"粁":{"ha":0,"x_min":0,"x_max":0,"o":""},"勤":{"ha":0,"x_min":0,"x_max":0,"o":""},"均":{"ha":0,"x_min":0,"x_max":0,"o":""},"⼱":{"ha":0,"x_min":0,"x_max":0,"o":""},"錦":{"ha":0,"x_min":0,"x_max":0,"o":""},"⽄":{"ha":0,"x_min":0,"x_max":0,"o":""},"欣":{"ha":0,"x_min":0,"x_max":0,"o":""},"欽":{"ha":0,"x_min":0,"x_max":0,"o":""},"琴":{"ha":0,"x_min":0,"x_max":0,"o":""},"禁":{"ha":0,"x_min":0,"x_max":0,"o":""},"禽":{"ha":0,"x_min":0,"x_max":0,"o":""},"筋":{"ha":0,"x_min":0,"x_max":0,"o":""},"緊":{"ha":0,"x_min":0,"x_max":0,"o":""},"芹":{"ha":0,"x_min":0,"x_max":0,"o":""},"菌":{"ha":0,"x_min":0,"x_max":0,"o":""},"衿":{"ha":0,"x_min":0,"x_max":0,"o":""},"襟":{"ha":0,"x_min":0,"x_max":0,"o":""},"謹":{"ha":0,"x_min":0,"x_max":0,"o":""},"近":{"ha":0,"x_min":0,"x_max":0,"o":""},"⾦":{"ha":0,"x_min":0,"x_max":0,"o":"m 826 967 l 675 1089 b 153 718 479 835 153 718 b 826 967 153 718 456 624 z m 1236 818 b 835 936 1031 829 835 936 b 1210 626 835 936 840 747 z m 1071 382 l 889 382 b 892 563 890 475 892 531 l 1097 563 l 1097 631 l 619 631 l 619 563 l 828 563 b 832 382 828 529 829 472 l 536 382 l 536 314 l 835 314 b 843 -19 836 228 839 118 l 536 -19 l 536 -87 l 1290 -87 l 1290 -19 l 1200 -19 b 1385 219 1263 7 1350 71 l 1236 257 b 1140 -19 1222 117 1168 19 l 1103 -19 l 1107 314 z m 674 238 b 761 -6 674 238 743 129 l 914 32 "},"吟":{"ha":0,"x_min":0,"x_max":0,"o":""},"銀":{"ha":0,"x_min":0,"x_max":0,"o":""},"九":{"ha":0,"x_min":0,"x_max":0,"o":"m 1039 229 l 1024 151 b 975 150 1008 151 992 150 b 982 825 982 756 982 825 l 807 825 l 807 811 l 725 811 b 889 821 725 817 803 821 b 889 733 983 821 889 818 b NaN NaN 889 726 810 NaN l NaN NaN l NaN NaN l NaN NaN b NaN NaN NaN NaN NaN NaN b NaN NaN NaN NaN NaN NaN l NaN NaN b NaN NaN NaN NaN NaN NaN "},"倶":{"ha":0,"x_min":0,"x_max":0,"o":""},"句":{"ha":0,"x_min":0,"x_max":0,"o":""},"区":{"ha":0,"x_min":0,"x_max":0,"o":""},"狗":{"ha":0,"x_min":0,"x_max":0,"o":""},"玖":{"ha":0,"x_min":0,"x_max":0,"o":""},"矩":{"ha":0,"x_min":0,"x_max":0,"o":""},"苦":{"ha":0,"x_min":0,"x_max":0,"o":""},"躯":{"ha":0,"x_min":0,"x_max":0,"o":""},"駆":{"ha":0,"x_min":0,"x_max":0,"o":""},"駈":{"ha":0,"x_min":0,"x_max":0,"o":""},"駒":{"ha":0,"x_min":0,"x_max":0,"o":""},"具":{"ha":0,"x_min":0,"x_max":0,"o":""},"愚":{"ha":0,"x_min":0,"x_max":0,"o":""},"虞":{"ha":0,"x_min":0,"x_max":0,"o":""},"空":{"ha":0,"x_min":0,"x_max":0,"o":"m 1026 972 l 1026 953 l 774 953 b 782 1064 782 1051 782 1064 b 671 900 782 888 761 900 l 418 900 l 418 919 l 243 919 b 261 646 243 919 247 871 l 408 646 b 415 832 413 732 414 790 l 1072 832 b 1065 646 1065 667 1065 646 l 1242 646 b 1222 919 1242 646 1238 694 z m 689 754 l 517 803 b 390 421 489 585 390 421 b 689 754 390 421 607 463 z m 760 783 b 778 460 760 783 764 725 b 771 765 778 640 771 735 b 783 928 771 871 783 928 l 664 947 b 656 903 664 947 660 931 b 603 900 640 901 622 901 b 608 1096 608 1074 608 1096 z m 710 308 l 508 308 b 517 576 514 453 515 533 l 779 576 l 779 644 l 192 644 l 192 576 l 456 576 l 469 308 l 150 308 l 150 240 l 932 240 l 932 308 l 876 363 z "},"偶":{"ha":0,"x_min":0,"x_max":0,"o":""},"寓":{"ha":0,"x_min":0,"x_max":0,"o":""},"遇":{"ha":0,"x_min":0,"x_max":0,"o":""},"隅":{"ha":0,"x_min":0,"x_max":0,"o":""},"串":{"ha":0,"x_min":0,"x_max":0,"o":""},"釧":{"ha":0,"x_min":0,"x_max":0,"o":""},"屈":{"ha":0,"x_min":0,"x_max":0,"o":""},"掘":{"ha":0,"x_min":0,"x_max":0,"o":""},"窟":{"ha":0,"x_min":0,"x_max":0,"o":""},"沓":{"ha":0,"x_min":0,"x_max":0,"o":""},"靴":{"ha":0,"x_min":0,"x_max":0,"o":""},"轡":{"ha":0,"x_min":0,"x_max":0,"o":""},"窪":{"ha":0,"x_min":0,"x_max":0,"o":""},"熊":{"ha":0,"x_min":0,"x_max":0,"o":""},"隈":{"ha":0,"x_min":0,"x_max":0,"o":""},"栗":{"ha":0,"x_min":0,"x_max":0,"o":""},"繰":{"ha":0,"x_min":0,"x_max":0,"o":""},"桑":{"ha":0,"x_min":0,"x_max":0,"o":""},"鍬":{"ha":0,"x_min":0,"x_max":0,"o":""},"勲":{"ha":0,"x_min":0,"x_max":0,"o":""},"君":{"ha":0,"x_min":0,"x_max":0,"o":""},"薫":{"ha":0,"x_min":0,"x_max":0,"o":""},"訓":{"ha":0,"x_min":0,"x_max":0,"o":""},"群":{"ha":0,"x_min":0,"x_max":0,"o":""},"軍":{"ha":0,"x_min":0,"x_max":0,"o":""},"郡":{"ha":0,"x_min":0,"x_max":0,"o":""},"卦":{"ha":0,"x_min":0,"x_max":0,"o":""},"袈":{"ha":0,"x_min":0,"x_max":0,"o":""},"係":{"ha":0,"x_min":0,"x_max":0,"o":""},"傾":{"ha":0,"x_min":0,"x_max":0,"o":""},"刑":{"ha":0,"x_min":0,"x_max":0,"o":""},"兄":{"ha":0,"x_min":0,"x_max":0,"o":""},"啓":{"ha":0,"x_min":0,"x_max":0,"o":""},"圭":{"ha":0,"x_min":0,"x_max":0,"o":""},"珪":{"ha":0,"x_min":0,"x_max":0,"o":""},"型":{"ha":0,"x_min":0,"x_max":0,"o":""},"契":{"ha":0,"x_min":0,"x_max":0,"o":""},"形":{"ha":0,"x_min":0,"x_max":0,"o":""},"径":{"ha":0,"x_min":0,"x_max":0,"o":""},"恵":{"ha":0,"x_min":0,"x_max":0,"o":""},"慶":{"ha":0,"x_min":0,"x_max":0,"o":""},"慧":{"ha":0,"x_min":0,"x_max":0,"o":""},"憩":{"ha":0,"x_min":0,"x_max":0,"o":""},"掲":{"ha":0,"x_min":0,"x_max":0,"o":""},"携":{"ha":0,"x_min":0,"x_max":0,"o":""},"敬":{"ha":0,"x_min":0,"x_max":0,"o":""},"景":{"ha":0,"x_min":0,"x_max":0,"o":""},"桂":{"ha":0,"x_min":0,"x_max":0,"o":""},"渓":{"ha":0,"x_min":0,"x_max":0,"o":""},"畦":{"ha":0,"x_min":0,"x_max":0,"o":""},"稽":{"ha":0,"x_min":0,"x_max":0,"o":""},"系":{"ha":0,"x_min":0,"x_max":0,"o":""},"経":{"ha":0,"x_min":0,"x_max":0,"o":""},"継":{"ha":0,"x_min":0,"x_max":0,"o":""},"繋":{"ha":0,"x_min":0,"x_max":0,"o":""},"罫":{"ha":0,"x_min":0,"x_max":0,"o":""},"茎":{"ha":0,"x_min":0,"x_max":0,"o":""},"荊":{"ha":0,"x_min":0,"x_max":0,"o":""},"蛍":{"ha":0,"x_min":0,"x_max":0,"o":""},"計":{"ha":0,"x_min":0,"x_max":0,"o":""},"詣":{"ha":0,"x_min":0,"x_max":0,"o":""},"警":{"ha":0,"x_min":0,"x_max":0,"o":""},"軽":{"ha":0,"x_min":0,"x_max":0,"o":""},"頚":{"ha":0,"x_min":0,"x_max":0,"o":""},"鶏":{"ha":0,"x_min":0,"x_max":0,"o":""},"芸":{"ha":0,"x_min":0,"x_max":0,"o":""},"迎":{"ha":0,"x_min":0,"x_max":0,"o":""},"鯨":{"ha":0,"x_min":0,"x_max":0,"o":""},"劇":{"ha":0,"x_min":0,"x_max":0,"o":""},"戟":{"ha":0,"x_min":0,"x_max":0,"o":""},"撃":{"ha":0,"x_min":0,"x_max":0,"o":""},"激":{"ha":0,"x_min":0,"x_max":0,"o":""},"桁":{"ha":0,"x_min":0,"x_max":0,"o":""},"傑":{"ha":0,"x_min":0,"x_max":0,"o":""},"⽋":{"ha":0,"x_min":0,"x_max":0,"o":""},"決":{"ha":0,"x_min":0,"x_max":0,"o":""},"潔":{"ha":0,"x_min":0,"x_max":0,"o":""},"⽳":{"ha":0,"x_min":0,"x_max":0,"o":""},"結":{"ha":0,"x_min":0,"x_max":0,"o":""},"⾎":{"ha":0,"x_min":0,"x_max":0,"o":""},"訣":{"ha":0,"x_min":0,"x_max":0,"o":""},"⽉":{"ha":0,"x_min":0,"x_max":0,"o":"m 542 339 l 825 339 b 822 72 824 226 824 138 b 967 -49 822 -8 825 -49 b 1140 NaN 971 -49 1140 -33 b 1121 NaN 1140 NaN 1136 NaN b 726 NaN 960 NaN 726 NaN b 583 NaN 726 NaN 583 NaN b 832 NaN 583 NaN 743 NaN z m 889 NaN l 1121 NaN b 1118 NaN 1121 NaN 1119 NaN l 879 NaN b 889 NaN 885 NaN 888 NaN z m 874 NaN l 1118 NaN b 1115 NaN 1117 NaN 1117 NaN l 844 NaN b 874 NaN 857 NaN 867 NaN z "},"件":{"ha":0,"x_min":0,"x_max":0,"o":""},"倹":{"ha":0,"x_min":0,"x_max":0,"o":""},"健":{"ha":0,"x_min":0,"x_max":0,"o":""},"兼":{"ha":0,"x_min":0,"x_max":0,"o":""},"券":{"ha":0,"x_min":0,"x_max":0,"o":""},"剣":{"ha":0,"x_min":0,"x_max":0,"o":""},"喧":{"ha":0,"x_min":0,"x_max":0,"o":""},"圏":{"ha":0,"x_min":0,"x_max":0,"o":""},"堅":{"ha":0,"x_min":0,"x_max":0,"o":""},"嫌":{"ha":0,"x_min":0,"x_max":0,"o":""},"建":{"ha":0,"x_min":0,"x_max":0,"o":""},"憲":{"ha":0,"x_min":0,"x_max":0,"o":""},"懸":{"ha":0,"x_min":0,"x_max":0,"o":""},"拳":{"ha":0,"x_min":0,"x_max":0,"o":""},"検":{"ha":0,"x_min":0,"x_max":0,"o":""},"権":{"ha":0,"x_min":0,"x_max":0,"o":""},"牽":{"ha":0,"x_min":0,"x_max":0,"o":""},"⽝":{"ha":0,"x_min":0,"x_max":0,"o":"m 757 581 l 1356 581 l 1356 908 l 1424 908 l 1424 703 b 1664 728 1424 719 1535 728 b 1665 590 1814 728 1665 719 b NaN NaN 1665 575 1553 NaN l NaN NaN l NaN NaN l NaN NaN b NaN NaN NaN NaN NaN NaN b NaN NaN NaN NaN NaN NaN z m NaN NaN b NaN NaN NaN NaN NaN NaN l NaN NaN b NaN NaN NaN NaN NaN NaN b NaN NaN NaN NaN NaN NaN b NaN NaN NaN NaN NaN NaN z "},"献":{"ha":0,"x_min":0,"x_max":0,"o":""},"研":{"ha":0,"x_min":0,"x_max":0,"o":""},"硯":{"ha":0,"x_min":0,"x_max":0,"o":""},"絹":{"ha":0,"x_min":0,"x_max":0,"o":""},"県":{"ha":0,"x_min":0,"x_max":0,"o":""},"肩":{"ha":0,"x_min":0,"x_max":0,"o":""},"⾒":{"ha":0,"x_min":0,"x_max":0,"o":"m 472 314 b 344 -64 457 107 344 -64 b 651 339 344 -64 638 -4 l 718 339 b 736 -42 719 293 725 150 b 726 339 736 176 726 292 b 746 569 726 490 746 569 l 596 608 b 579 524 596 608 589 578 l 485 519 b 489 704 488 606 489 667 l 654 704 b 636 1408 654 704 651 990 b 636 906 636 1247 619 906 b 161 501 447 906 161 919 z m 332 1121 l 672 1121 b 669 990 671 1075 671 1031 l 331 990 b 332 1121 332 1043 332 1086 z m 331 922 l 668 922 b 667 792 668 875 667 832 l 328 792 b 331 922 329 839 329 883 z m 326 724 l 665 724 b 664 594 665 672 664 628 l 325 594 b 326 724 325 640 326 683 z "},"謙":{"ha":0,"x_min":0,"x_max":0,"o":""},"賢":{"ha":0,"x_min":0,"x_max":0,"o":""},"軒":{"ha":0,"x_min":0,"x_max":0,"o":""},"遣":{"ha":0,"x_min":0,"x_max":0,"o":""},"険":{"ha":0,"x_min":0,"x_max":0,"o":""},"顕":{"ha":0,"x_min":0,"x_max":0,"o":""},"験":{"ha":0,"x_min":0,"x_max":0,"o":""},"鹸":{"ha":0,"x_min":0,"x_max":0,"o":""},"元":{"ha":0,"x_min":0,"x_max":0,"o":""},"原":{"ha":0,"x_min":0,"x_max":0,"o":""},"厳":{"ha":0,"x_min":0,"x_max":0,"o":""},"幻":{"ha":0,"x_min":0,"x_max":0,"o":""},"弦":{"ha":0,"x_min":0,"x_max":0,"o":""},"減":{"ha":0,"x_min":0,"x_max":0,"o":""},"源":{"ha":0,"x_min":0,"x_max":0,"o":""},"⽞":{"ha":0,"x_min":0,"x_max":0,"o":""},"現":{"ha":0,"x_min":0,"x_max":0,"o":""},"絃":{"ha":0,"x_min":0,"x_max":0,"o":""},"舷":{"ha":0,"x_min":0,"x_max":0,"o":""},"⾔":{"ha":0,"x_min":0,"x_max":0,"o":""},"限":{"ha":0,"x_min":0,"x_max":0,"o":""},"乎":{"ha":0,"x_min":0,"x_max":0,"o":""},"個":{"ha":0,"x_min":0,"x_max":0,"o":""},"古":{"ha":0,"x_min":0,"x_max":0,"o":""},"呼":{"ha":0,"x_min":0,"x_max":0,"o":""},"固":{"ha":0,"x_min":0,"x_max":0,"o":""},"姑":{"ha":0,"x_min":0,"x_max":0,"o":""},"孤":{"ha":0,"x_min":0,"x_max":0,"o":""},"⼰":{"ha":0,"x_min":0,"x_max":0,"o":""},"庫":{"ha":0,"x_min":0,"x_max":0,"o":""},"弧":{"ha":0,"x_min":0,"x_max":0,"o":""},"⼾":{"ha":0,"x_min":0,"x_max":0,"o":""},"故":{"ha":0,"x_min":0,"x_max":0,"o":""},"枯":{"ha":0,"x_min":0,"x_max":0,"o":""},"湖":{"ha":0,"x_min":0,"x_max":0,"o":""},"狐":{"ha":0,"x_min":0,"x_max":0,"o":""},"糊":{"ha":0,"x_min":0,"x_max":0,"o":""},"袴":{"ha":0,"x_min":0,"x_max":0,"o":""},"股":{"ha":0,"x_min":0,"x_max":0,"o":""},"胡":{"ha":0,"x_min":0,"x_max":0,"o":""},"菰":{"ha":0,"x_min":0,"x_max":0,"o":""},"⻁":{"ha":0,"x_min":0,"x_max":0,"o":""},"誇":{"ha":0,"x_min":0,"x_max":0,"o":""},"跨":{"ha":0,"x_min":0,"x_max":0,"o":""},"鈷":{"ha":0,"x_min":0,"x_max":0,"o":""},"雇":{"ha":0,"x_min":0,"x_max":0,"o":""},"顧":{"ha":0,"x_min":0,"x_max":0,"o":""},"⿎":{"ha":0,"x_min":0,"x_max":0,"o":""},"五":{"ha":0,"x_min":0,"x_max":0,"o":"m 1040 58 l 990 58 b 1001 558 1001 461 1001 558 l 819 558 l 819 543 l 665 543 b 718 925 685 671 704 806 l 1082 925 l 1082 993 l 418 993 l 418 925 l 679 925 b 610 543 656 799 632 667 l 438 543 l 438 474 l 597 474 b 521 58 563 281 532 118 l 349 58 l 349 -11 l 1263 -11 l 1263 58 l 1207 113 z m 699 58 b 767 474 713 135 739 294 l 933 474 b 951 58 938 399 943 265 z "},"互":{"ha":0,"x_min":0,"x_max":0,"o":""},"伍":{"ha":0,"x_min":0,"x_max":0,"o":""},"午":{"ha":0,"x_min":0,"x_max":0,"o":""},"呉":{"ha":0,"x_min":0,"x_max":0,"o":""},"吾":{"ha":0,"x_min":0,"x_max":0,"o":""},"娯":{"ha":0,"x_min":0,"x_max":0,"o":""},"後":{"ha":0,"x_min":0,"x_max":0,"o":""},"御":{"ha":0,"x_min":0,"x_max":0,"o":""},"悟":{"ha":0,"x_min":0,"x_max":0,"o":""},"梧":{"ha":0,"x_min":0,"x_max":0,"o":""},"檎":{"ha":0,"x_min":0,"x_max":0,"o":""},"瑚":{"ha":0,"x_min":0,"x_max":0,"o":""},"碁":{"ha":0,"x_min":0,"x_max":0,"o":""},"語":{"ha":0,"x_min":0,"x_max":0,"o":""},"誤":{"ha":0,"x_min":0,"x_max":0,"o":""},"護":{"ha":0,"x_min":0,"x_max":0,"o":""},"醐":{"ha":0,"x_min":0,"x_max":0,"o":""},"乞":{"ha":0,"x_min":0,"x_max":0,"o":""},"鯉":{"ha":0,"x_min":0,"x_max":0,"o":""},"交":{"ha":0,"x_min":0,"x_max":0,"o":""},"佼":{"ha":0,"x_min":0,"x_max":0,"o":""},"侯":{"ha":0,"x_min":0,"x_max":0,"o":""},"候":{"ha":0,"x_min":0,"x_max":0,"o":""},"倖":{"ha":0,"x_min":0,"x_max":0,"o":""},"光":{"ha":0,"x_min":0,"x_max":0,"o":""},"公":{"ha":0,"x_min":0,"x_max":0,"o":""},"功":{"ha":0,"x_min":0,"x_max":0,"o":""},"効":{"ha":0,"x_min":0,"x_max":0,"o":""},"勾":{"ha":0,"x_min":0,"x_max":0,"o":""},"厚":{"ha":0,"x_min":0,"x_max":0,"o":""},"⼝":{"ha":0,"x_min":0,"x_max":0,"o":"m 953 968 l 953 943 l 444 943 l 444 968 l 256 968 b 274 -68 256 968 260 547 b 275 -43 274 -60 274 -51 l 782 -43 l 782 -68 l 971 -68 b 953 968 971 -68 968 353 z m 782 25 l 275 25 b 283 875 282 451 283 738 l 790 875 b 782 25 785 449 783 161 z "},"向":{"ha":0,"x_min":0,"x_max":0,"o":""},"后":{"ha":0,"x_min":0,"x_max":0,"o":""},"喉":{"ha":0,"x_min":0,"x_max":0,"o":""},"坑":{"ha":0,"x_min":0,"x_max":0,"o":""},"垢":{"ha":0,"x_min":0,"x_max":0,"o":""},"好":{"ha":0,"x_min":0,"x_max":0,"o":""},"孔":{"ha":0,"x_min":0,"x_max":0,"o":""},"孝":{"ha":0,"x_min":0,"x_max":0,"o":""},"宏":{"ha":0,"x_min":0,"x_max":0,"o":""},"⼯":{"ha":0,"x_min":0,"x_max":0,"o":""},"巧":{"ha":0,"x_min":0,"x_max":0,"o":""},"幸":{"ha":0,"x_min":0,"x_max":0,"o":""},"広":{"ha":0,"x_min":0,"x_max":0,"o":""},"庚":{"ha":0,"x_min":0,"x_max":0,"o":""},"康":{"ha":0,"x_min":0,"x_max":0,"o":""},"弘":{"ha":0,"x_min":0,"x_max":0,"o":""},"恒":{"ha":0,"x_min":0,"x_max":0,"o":""},"慌":{"ha":0,"x_min":0,"x_max":0,"o":""},"抗":{"ha":0,"x_min":0,"x_max":0,"o":""},"拘":{"ha":0,"x_min":0,"x_max":0,"o":""},"控":{"ha":0,"x_min":0,"x_max":0,"o":""},"攻":{"ha":0,"x_min":0,"x_max":0,"o":""},"昂":{"ha":0,"x_min":0,"x_max":0,"o":""},"晃":{"ha":0,"x_min":0,"x_max":0,"o":""},"更":{"ha":0,"x_min":0,"x_max":0,"o":""},"杭":{"ha":0,"x_min":0,"x_max":0,"o":""},"校":{"ha":0,"x_min":0,"x_max":0,"o":"m 1218 864 l 1286 864 l 1286 757 b 1294 894 1294 881 1294 894 b 1157 743 1294 732 1269 743 l 958 743 l 958 675 z m 907 496 l 907 564 b 1126 794 907 564 1033 592 b 1135 396 1129 683 1132 551 l 1268 396 b 1275 1057 1271 706 1274 915 z m 1922 936 l 1803 975 b 1725 711 1783 879 1756 790 b 1586 940 1651 815 1604 904 b 1735 1163 1640 981 1696 1049 l 1588 1206 b 1407 879 1533 1019 1407 879 b 1575 932 1407 879 1488 872 b 1667 576 1572 881 1575 747 b 1501 303 1583 406 1501 303 b 1732 471 1501 303 1610 318 b 1874 303 1769 417 1815 360 l 1969 439 b 1815 594 1913 488 1861 540 b 1947 914 1861 676 1907 781 b 2010 868 1965 899 1986 883 l 2096 996 b 1831 1156 1957 1043 1831 1156 b 1922 936 1831 1156 1800 1056 z m 1307 971 b 1354 692 1307 971 1278 788 l 1463 803 "},"構":{"ha":0,"x_min":0,"x_max":0,"o":""},"江":{"ha":0,"x_min":0,"x_max":0,"o":""},"洪":{"ha":0,"x_min":0,"x_max":0,"o":""},"浩":{"ha":0,"x_min":0,"x_max":0,"o":""},"港":{"ha":0,"x_min":0,"x_max":0,"o":""},"溝":{"ha":0,"x_min":0,"x_max":0,"o":""},"甲":{"ha":0,"x_min":0,"x_max":0,"o":""},"皇":{"ha":0,"x_min":0,"x_max":0,"o":""},"硬":{"ha":0,"x_min":0,"x_max":0,"o":""},"稿":{"ha":0,"x_min":0,"x_max":0,"o":""},"糠":{"ha":0,"x_min":0,"x_max":0,"o":""},"紅":{"ha":0,"x_min":0,"x_max":0,"o":""},"紘":{"ha":0,"x_min":0,"x_max":0,"o":""},"絞":{"ha":0,"x_min":0,"x_max":0,"o":""},"綱":{"ha":0,"x_min":0,"x_max":0,"o":""},"耕":{"ha":0,"x_min":0,"x_max":0,"o":""},"考":{"ha":0,"x_min":0,"x_max":0,"o":""},"肯":{"ha":0,"x_min":0,"x_max":0,"o":""},"肱":{"ha":0,"x_min":0,"x_max":0,"o":""},"腔":{"ha":0,"x_min":0,"x_max":0,"o":""},"膏":{"ha":0,"x_min":0,"x_max":0,"o":""},"航":{"ha":0,"x_min":0,"x_max":0,"o":""},"荒":{"ha":0,"x_min":0,"x_max":0,"o":""},"⾏":{"ha":0,"x_min":0,"x_max":0,"o":""},"衡":{"ha":0,"x_min":0,"x_max":0,"o":""},"講":{"ha":0,"x_min":0,"x_max":0,"o":""},"貢":{"ha":0,"x_min":0,"x_max":0,"o":""},"購":{"ha":0,"x_min":0,"x_max":0,"o":""},"郊":{"ha":0,"x_min":0,"x_max":0,"o":""},"酵":{"ha":0,"x_min":0,"x_max":0,"o":""},"鉱":{"ha":0,"x_min":0,"x_max":0,"o":""},"砿":{"ha":0,"x_min":0,"x_max":0,"o":""},"鋼":{"ha":0,"x_min":0,"x_max":0,"o":""},"閤":{"ha":0,"x_min":0,"x_max":0,"o":""},"降":{"ha":0,"x_min":0,"x_max":0,"o":""},"項":{"ha":0,"x_min":0,"x_max":0,"o":""},"⾹":{"ha":0,"x_min":0,"x_max":0,"o":""},"⾼":{"ha":0,"x_min":0,"x_max":0,"o":""},"鴻":{"ha":0,"x_min":0,"x_max":0,"o":""},"剛":{"ha":0,"x_min":0,"x_max":0,"o":""},"劫":{"ha":0,"x_min":0,"x_max":0,"o":""},"号":{"ha":0,"x_min":0,"x_max":0,"o":""},"合":{"ha":0,"x_min":0,"x_max":0,"o":""},"壕":{"ha":0,"x_min":0,"x_max":0,"o":""},"拷":{"ha":0,"x_min":0,"x_max":0,"o":""},"濠":{"ha":0,"x_min":0,"x_max":0,"o":""},"豪":{"ha":0,"x_min":0,"x_max":0,"o":""},"轟":{"ha":0,"x_min":0,"x_max":0,"o":""},"麹":{"ha":0,"x_min":0,"x_max":0,"o":""},"克":{"ha":0,"x_min":0,"x_max":0,"o":""},"刻":{"ha":0,"x_min":0,"x_max":0,"o":""},"告":{"ha":0,"x_min":0,"x_max":0,"o":""},"国":{"ha":0,"x_min":0,"x_max":0,"o":""},"穀":{"ha":0,"x_min":0,"x_max":0,"o":""},"酷":{"ha":0,"x_min":0,"x_max":0,"o":""},"⿊":{"ha":0,"x_min":0,"x_max":0,"o":""},"獄":{"ha":0,"x_min":0,"x_max":0,"o":""},"漉":{"ha":0,"x_min":0,"x_max":0,"o":""},"腰":{"ha":0,"x_min":0,"x_max":0,"o":""},"忽":{"ha":0,"x_min":0,"x_max":0,"o":""},"惚":{"ha":0,"x_min":0,"x_max":0,"o":""},"⾻":{"ha":0,"x_min":0,"x_max":0,"o":""},"狛":{"ha":0,"x_min":0,"x_max":0,"o":""},"込":{"ha":0,"x_min":0,"x_max":0,"o":""},"此":{"ha":0,"x_min":0,"x_max":0,"o":""},"頃":{"ha":0,"x_min":0,"x_max":0,"o":""},"今":{"ha":0,"x_min":0,"x_max":0,"o":""},"困":{"ha":0,"x_min":0,"x_max":0,"o":""},"坤":{"ha":0,"x_min":0,"x_max":0,"o":""},"墾":{"ha":0,"x_min":0,"x_max":0,"o":""},"婚":{"ha":0,"x_min":0,"x_max":0,"o":""},"恨":{"ha":0,"x_min":0,"x_max":0,"o":""},"懇":{"ha":0,"x_min":0,"x_max":0,"o":""},"昏":{"ha":0,"x_min":0,"x_max":0,"o":""},"昆":{"ha":0,"x_min":0,"x_max":0,"o":""},"根":{"ha":0,"x_min":0,"x_max":0,"o":""},"梱":{"ha":0,"x_min":0,"x_max":0,"o":""},"混":{"ha":0,"x_min":0,"x_max":0,"o":""},"痕":{"ha":0,"x_min":0,"x_max":0,"o":""},"紺":{"ha":0,"x_min":0,"x_max":0,"o":""},"⾉":{"ha":0,"x_min":0,"x_max":0,"o":""},"魂":{"ha":0,"x_min":0,"x_max":0,"o":""},"些":{"ha":0,"x_min":0,"x_max":0,"o":""},"佐":{"ha":0,"x_min":0,"x_max":0,"o":""},"唆":{"ha":0,"x_min":0,"x_max":0,"o":""},"嵯":{"ha":0,"x_min":0,"x_max":0,"o":""},"左":{"ha":0,"x_min":0,"x_max":0,"o":"m 1050 526 l 468 526 b 508 779 485 596 499 679 l 1013 779 l 1013 847 l 624 847 b 624 851 624 851 475 851 b 721 NaN 631 851 721 1144 l 975 NaN b 989 NaN 976 NaN 982 NaN l 688 NaN l 688 NaN l 1433 NaN l 1433 NaN l 1265 NaN b 1274 NaN 1271 NaN 1274 NaN l 1544 NaN l 1544 NaN l 1489 NaN z "},"差":{"ha":0,"x_min":0,"x_max":0,"o":""},"査":{"ha":0,"x_min":0,"x_max":0,"o":""},"沙":{"ha":0,"x_min":0,"x_max":0,"o":""},"瑳":{"ha":0,"x_min":0,"x_max":0,"o":""},"砂":{"ha":0,"x_min":0,"x_max":0,"o":""},"詐":{"ha":0,"x_min":0,"x_max":0,"o":""},"鎖":{"ha":0,"x_min":0,"x_max":0,"o":""},"裟":{"ha":0,"x_min":0,"x_max":0,"o":""},"坐":{"ha":0,"x_min":0,"x_max":0,"o":""},"座":{"ha":0,"x_min":0,"x_max":0,"o":""},"挫":{"ha":0,"x_min":0,"x_max":0,"o":""},"債":{"ha":0,"x_min":0,"x_max":0,"o":""},"催":{"ha":0,"x_min":0,"x_max":0,"o":""},"再":{"ha":0,"x_min":0,"x_max":0,"o":""},"最":{"ha":0,"x_min":0,"x_max":0,"o":""},"哉":{"ha":0,"x_min":0,"x_max":0,"o":""},"塞":{"ha":0,"x_min":0,"x_max":0,"o":""},"妻":{"ha":0,"x_min":0,"x_max":0,"o":""},"宰":{"ha":0,"x_min":0,"x_max":0,"o":""},"彩":{"ha":0,"x_min":0,"x_max":0,"o":""},"才":{"ha":0,"x_min":0,"x_max":0,"o":""},"採":{"ha":0,"x_min":0,"x_max":0,"o":""},"栽":{"ha":0,"x_min":0,"x_max":0,"o":""},"歳":{"ha":0,"x_min":0,"x_max":0,"o":""},"済":{"ha":0,"x_min":0,"x_max":0,"o":""},"災":{"ha":0,"x_min":0,"x_max":0,"o":""},"采":{"ha":0,"x_min":0,"x_max":0,"o":""},"犀":{"ha":0,"x_min":0,"x_max":0,"o":""},"砕":{"ha":0,"x_min":0,"x_max":0,"o":""},"砦":{"ha":0,"x_min":0,"x_max":0,"o":""},"祭":{"ha":0,"x_min":0,"x_max":0,"o":""},"斎":{"ha":0,"x_min":0,"x_max":0,"o":""},"細":{"ha":0,"x_min":0,"x_max":0,"o":""},"菜":{"ha":0,"x_min":0,"x_max":0,"o":""},"裁":{"ha":0,"x_min":0,"x_max":0,"o":""},"載":{"ha":0,"x_min":0,"x_max":0,"o":""},"際":{"ha":0,"x_min":0,"x_max":0,"o":""},"剤":{"ha":0,"x_min":0,"x_max":0,"o":""},"在":{"ha":0,"x_min":0,"x_max":0,"o":""},"材":{"ha":0,"x_min":0,"x_max":0,"o":""},"罪":{"ha":0,"x_min":0,"x_max":0,"o":""},"財":{"ha":0,"x_min":0,"x_max":0,"o":""},"冴":{"ha":0,"x_min":0,"x_max":0,"o":""},"坂":{"ha":0,"x_min":0,"x_max":0,"o":""},"阪":{"ha":0,"x_min":0,"x_max":0,"o":""},"堺":{"ha":0,"x_min":0,"x_max":0,"o":""},"肴":{"ha":0,"x_min":0,"x_max":0,"o":""},"咲":{"ha":0,"x_min":0,"x_max":0,"o":""},"崎":{"ha":0,"x_min":0,"x_max":0,"o":""},"埼":{"ha":0,"x_min":0,"x_max":0,"o":""},"碕":{"ha":0,"x_min":0,"x_max":0,"o":""},"鷺":{"ha":0,"x_min":0,"x_max":0,"o":""},"作":{"ha":0,"x_min":0,"x_max":0,"o":""},"削":{"ha":0,"x_min":0,"x_max":0,"o":""},"咋":{"ha":0,"x_min":0,"x_max":0,"o":""},"搾":{"ha":0,"x_min":0,"x_max":0,"o":""},"昨":{"ha":0,"x_min":0,"x_max":0,"o":""},"朔":{"ha":0,"x_min":0,"x_max":0,"o":""},"柵":{"ha":0,"x_min":0,"x_max":0,"o":""},"窄":{"ha":0,"x_min":0,"x_max":0,"o":""},"策":{"ha":0,"x_min":0,"x_max":0,"o":""},"索":{"ha":0,"x_min":0,"x_max":0,"o":""},"錯":{"ha":0,"x_min":0,"x_max":0,"o":""},"桜":{"ha":0,"x_min":0,"x_max":0,"o":""},"鮭":{"ha":0,"x_min":0,"x_max":0,"o":""},"笹":{"ha":0,"x_min":0,"x_max":0,"o":""},"匙":{"ha":0,"x_min":0,"x_max":0,"o":""},"冊":{"ha":0,"x_min":0,"x_max":0,"o":""},"刷":{"ha":0,"x_min":0,"x_max":0,"o":""},"察":{"ha":0,"x_min":0,"x_max":0,"o":""},"拶":{"ha":0,"x_min":0,"x_max":0,"o":""},"撮":{"ha":0,"x_min":0,"x_max":0,"o":""},"擦":{"ha":0,"x_min":0,"x_max":0,"o":""},"札":{"ha":0,"x_min":0,"x_max":0,"o":""},"殺":{"ha":0,"x_min":0,"x_max":0,"o":""},"雑":{"ha":0,"x_min":0,"x_max":0,"o":""},"皐":{"ha":0,"x_min":0,"x_max":0,"o":""},"捌":{"ha":0,"x_min":0,"x_max":0,"o":""},"⽫":{"ha":0,"x_min":0,"x_max":0,"o":""},"晒":{"ha":0,"x_min":0,"x_max":0,"o":""},"三":{"ha":0,"x_min":0,"x_max":0,"o":"m 1104 839 l 1104 907 l 397 907 l 397 839 z m 482 518 l 482 450 l 1131 450 l 1131 518 z m 1326 22 l 1326 90 l 619 90 l 619 22 z "},"傘":{"ha":0,"x_min":0,"x_max":0,"o":""},"参":{"ha":0,"x_min":0,"x_max":0,"o":""},"⼭":{"ha":0,"x_min":0,"x_max":0,"o":"m 306 -72 b 307 -33 306 -60 306 -46 l 769 -33 b 771 -72 769 -46 771 -60 b 1483 -62 771 -62 1238 -62 b 1122 -293 1483 -62 1486 -304 l 983 -293 b 965 735 982 -164 978 219 l 804 735 b 794 -293 797 175 794 -172 l 664 -293 b 1269 -286 664 -286 1061 -286 b 850 -561 1269 -286 1274 -575 z "},"惨":{"ha":0,"x_min":0,"x_max":0,"o":""},"撒":{"ha":0,"x_min":0,"x_max":0,"o":""},"散":{"ha":0,"x_min":0,"x_max":0,"o":""},"桟":{"ha":0,"x_min":0,"x_max":0,"o":""},"燦":{"ha":0,"x_min":0,"x_max":0,"o":""},"珊":{"ha":0,"x_min":0,"x_max":0,"o":""},"産":{"ha":0,"x_min":0,"x_max":0,"o":""},"算":{"ha":0,"x_min":0,"x_max":0,"o":""},"纂":{"ha":0,"x_min":0,"x_max":0,"o":""},"蚕":{"ha":0,"x_min":0,"x_max":0,"o":""},"讃":{"ha":0,"x_min":0,"x_max":0,"o":""},"賛":{"ha":0,"x_min":0,"x_max":0,"o":""},"酸":{"ha":0,"x_min":0,"x_max":0,"o":""},"斬":{"ha":0,"x_min":0,"x_max":0,"o":""},"暫":{"ha":0,"x_min":0,"x_max":0,"o":""},"残":{"ha":0,"x_min":0,"x_max":0,"o":""},"仕":{"ha":0,"x_min":0,"x_max":0,"o":""},"仔":{"ha":0,"x_min":0,"x_max":0,"o":""},"伺":{"ha":0,"x_min":0,"x_max":0,"o":""},"使":{"ha":0,"x_min":0,"x_max":0,"o":""},"刺":{"ha":0,"x_min":0,"x_max":0,"o":""},"司":{"ha":0,"x_min":0,"x_max":0,"o":""},"史":{"ha":0,"x_min":0,"x_max":0,"o":""},"嗣":{"ha":0,"x_min":0,"x_max":0,"o":""},"四":{"ha":0,"x_min":0,"x_max":0,"o":"m 274 -71 b 274 599 274 90 299 599 b 696 NaN 711 599 696 1240 l 535 NaN l 535 NaN l 26 NaN l 26 NaN l -162 NaN b -144 NaN -162 NaN -160 NaN z m 26 NaN l 103 NaN b 38 NaN 101 NaN 38 NaN b 290 NaN 38 NaN 261 NaN l 308 NaN b 326 NaN 310 NaN 315 NaN b 528 NaN 407 NaN 475 NaN b 525 NaN 526 NaN 526 NaN l 18 NaN b 26 NaN 24 NaN 25 NaN z m 482 NaN l 533 NaN l 529 NaN b 475 NaN 513 NaN 494 NaN b 482 NaN 481 NaN 482 NaN z "},"⼠":{"ha":0,"x_min":0,"x_max":0,"o":""},"始":{"ha":0,"x_min":0,"x_max":0,"o":""},"姉":{"ha":0,"x_min":0,"x_max":0,"o":""},"姿":{"ha":0,"x_min":0,"x_max":0,"o":""},"⼦":{"ha":0,"x_min":0,"x_max":0,"o":"m 533 -62 b 778 -43 533 -62 646 -58 b 786 390 782 135 785 279 l 1061 390 l 1061 458 b 1063 640 1063 563 1063 624 b 1317 1019 1164 675 1317 769 l 669 1019 l 669 951 l 1118 951 b 992 644 1099 813 1026 694 l 872 644 l 876 458 l 600 458 l 600 390 l 878 390 b 886 89 881 306 883 204 "},"屍":{"ha":0,"x_min":0,"x_max":0,"o":""},"市":{"ha":0,"x_min":0,"x_max":0,"o":""},"師":{"ha":0,"x_min":0,"x_max":0,"o":""},"志":{"ha":0,"x_min":0,"x_max":0,"o":""},"思":{"ha":0,"x_min":0,"x_max":0,"o":""},"指":{"ha":0,"x_min":0,"x_max":0,"o":""},"⽀":{"ha":0,"x_min":0,"x_max":0,"o":""},"孜":{"ha":0,"x_min":0,"x_max":0,"o":""},"斯":{"ha":0,"x_min":0,"x_max":0,"o":""},"施":{"ha":0,"x_min":0,"x_max":0,"o":""},"旨":{"ha":0,"x_min":0,"x_max":0,"o":""},"枝":{"ha":0,"x_min":0,"x_max":0,"o":""},"⽌":{"ha":0,"x_min":0,"x_max":0,"o":""},"死":{"ha":0,"x_min":0,"x_max":0,"o":""},"⽒":{"ha":0,"x_min":0,"x_max":0,"o":""},"獅":{"ha":0,"x_min":0,"x_max":0,"o":""},"祉":{"ha":0,"x_min":0,"x_max":0,"o":""},"私":{"ha":0,"x_min":0,"x_max":0,"o":""},"⽷":{"ha":0,"x_min":0,"x_max":0,"o":"m 492 494 b 342 496 446 494 396 496 l 351 326 b 601 342 449 329 532 335 l 617 -69 l 764 -69 b 774 369 771 199 772 318 b 893 407 825 381 864 394 b 926 293 903 375 914 338 l 1057 315 b 999 619 1006 590 999 619 l 840 592 l 865 504 b 679 496 821 501 760 499 b 894 711 746 540 821 607 l 750 800 b 653 660 719 749 686 701 b 590 769 642 692 621 729 b 840 967 665 792 764 844 l 696 1056 b 542 826 642 951 585 876 b 486 882 525 844 507 863 l 379 750 b 593 590 469 694 543 635 b 492 494 557 553 521 519 z m 210 -6 b 578 207 210 -6 433 -25 l 433 296 b 210 -6 325 90 210 -6 z m 1071 -21 l 1136 136 b 840 279 950 189 840 279 b 1071 -21 840 279 819 85 z "},"紙":{"ha":0,"x_min":0,"x_max":0,"o":""},"紫":{"ha":0,"x_min":0,"x_max":0,"o":""},"肢":{"ha":0,"x_min":0,"x_max":0,"o":""},"脂":{"ha":0,"x_min":0,"x_max":0,"o":""},"⾄":{"ha":0,"x_min":0,"x_max":0,"o":""},"視":{"ha":0,"x_min":0,"x_max":0,"o":""},"詞":{"ha":0,"x_min":0,"x_max":0,"o":""},"詩":{"ha":0,"x_min":0,"x_max":0,"o":""},"試":{"ha":0,"x_min":0,"x_max":0,"o":""},"誌":{"ha":0,"x_min":0,"x_max":0,"o":""},"諮":{"ha":0,"x_min":0,"x_max":0,"o":""},"資":{"ha":0,"x_min":0,"x_max":0,"o":""},"賜":{"ha":0,"x_min":0,"x_max":0,"o":""},"雌":{"ha":0,"x_min":0,"x_max":0,"o":""},"飼":{"ha":0,"x_min":0,"x_max":0,"o":""},"⻭":{"ha":0,"x_min":0,"x_max":0,"o":""},"事":{"ha":0,"x_min":0,"x_max":0,"o":""},"似":{"ha":0,"x_min":0,"x_max":0,"o":""},"侍":{"ha":0,"x_min":0,"x_max":0,"o":""},"児":{"ha":0,"x_min":0,"x_max":0,"o":""},"字":{"ha":0,"x_min":0,"x_max":0,"o":"m 986 964 b 985 944 985 957 985 950 l 778 944 b 785 1064 785 1051 785 1064 l 610 1064 l 622 944 l 411 944 l 413 964 b 171 803 413 788 369 803 l 317 803 b 324 956 321 871 322 921 l 897 956 b 890 803 890 819 890 803 l 1067 803 b 1049 1044 1067 803 1063 846 z m 881 450 b 882 563 882 524 882 563 l 814 563 b 1010 833 890 601 1010 686 l 524 833 l 524 765 l 811 765 b 764 563 803 679 778 601 l 692 563 l 694 450 l 419 450 l 419 382 l 697 382 b 704 169 699 322 701 250 b 817 92 704 118 706 92 b 954 NaN 821 92 954 107 b 963 NaN 958 NaN 961 NaN z "},"寺":{"ha":0,"x_min":0,"x_max":0,"o":""},"慈":{"ha":0,"x_min":0,"x_max":0,"o":""},"持":{"ha":0,"x_min":0,"x_max":0,"o":""},"時":{"ha":0,"x_min":0,"x_max":0,"o":""},"次":{"ha":0,"x_min":0,"x_max":0,"o":""},"滋":{"ha":0,"x_min":0,"x_max":0,"o":""},"治":{"ha":0,"x_min":0,"x_max":0,"o":""},"爾":{"ha":0,"x_min":0,"x_max":0,"o":""},"璽":{"ha":0,"x_min":0,"x_max":0,"o":""},"痔":{"ha":0,"x_min":0,"x_max":0,"o":""},"磁":{"ha":0,"x_min":0,"x_max":0,"o":""},"⽰":{"ha":0,"x_min":0,"x_max":0,"o":""},"⽽":{"ha":0,"x_min":0,"x_max":0,"o":""},"⽿":{"ha":0,"x_min":0,"x_max":0,"o":"m 1149 929 l 1149 997 l 353 997 l 353 929 l 499 929 b 489 203 492 453 490 269 b 385 201 456 203 421 201 l 428 13 b 924 97 646 31 807 63 l 928 -72 l 1074 -72 b 1076 151 1075 10 1076 83 b 1229 253 1197 206 1229 253 b 1078 235 1229 253 1175 244 b 1085 929 1082 724 1083 882 z m 647 929 l 908 929 b 913 731 910 903 911 843 l 651 731 z m 653 663 l 914 663 l 918 464 l 657 464 b 653 663 657 519 654 586 z m 664 207 b 660 396 663 242 661 300 l 919 396 b 922 221 919 343 921 285 b 664 207 847 215 761 211 z "},"⾃":{"ha":0,"x_min":0,"x_max":0,"o":""},"蒔":{"ha":0,"x_min":0,"x_max":0,"o":""},"辞":{"ha":0,"x_min":0,"x_max":0,"o":""},"汐":{"ha":0,"x_min":0,"x_max":0,"o":""},"⿅":{"ha":0,"x_min":0,"x_max":0,"o":""},"式":{"ha":0,"x_min":0,"x_max":0,"o":""},"識":{"ha":0,"x_min":0,"x_max":0,"o":""},"鴫":{"ha":0,"x_min":0,"x_max":0,"o":""},"竺":{"ha":0,"x_min":0,"x_max":0,"o":""},"軸":{"ha":0,"x_min":0,"x_max":0,"o":""},"宍":{"ha":0,"x_min":0,"x_max":0,"o":""},"雫":{"ha":0,"x_min":0,"x_max":0,"o":""},"七":{"ha":0,"x_min":0,"x_max":0,"o":"m 286 510 l 446 525 b 457 -15 449 372 451 190 b 1019 -39 776 -33 1019 -39 b 1042 244 1019 -39 1022 11 l 924 261 b 904 154 915 219 910 183 b 619 147 836 153 740 151 b 624 543 622 299 624 431 l 1111 590 l 1106 657 l 1044 707 l 994 647 l 625 611 b 1033 614 625 614 894 614 b 768 460 1033 614 1035 454 l 603 444 z "},"叱":{"ha":0,"x_min":0,"x_max":0,"o":""},"執":{"ha":0,"x_min":0,"x_max":0,"o":""},"失":{"ha":0,"x_min":0,"x_max":0,"o":""},"嫉":{"ha":0,"x_min":0,"x_max":0,"o":""},"室":{"ha":0,"x_min":0,"x_max":0,"o":""},"悉":{"ha":0,"x_min":0,"x_max":0,"o":""},"湿":{"ha":0,"x_min":0,"x_max":0,"o":""},"漆":{"ha":0,"x_min":0,"x_max":0,"o":""},"疾":{"ha":0,"x_min":0,"x_max":0,"o":""},"質":{"ha":0,"x_min":0,"x_max":0,"o":""},"実":{"ha":0,"x_min":0,"x_max":0,"o":""},"蔀":{"ha":0,"x_min":0,"x_max":0,"o":""},"篠":{"ha":0,"x_min":0,"x_max":0,"o":""},"偲":{"ha":0,"x_min":0,"x_max":0,"o":""},"柴":{"ha":0,"x_min":0,"x_max":0,"o":""},"芝":{"ha":0,"x_min":0,"x_max":0,"o":""},"屡":{"ha":0,"x_min":0,"x_max":0,"o":""},"蕊":{"ha":0,"x_min":0,"x_max":0,"o":""},"縞":{"ha":0,"x_min":0,"x_max":0,"o":""},"舎":{"ha":0,"x_min":0,"x_max":0,"o":""},"写":{"ha":0,"x_min":0,"x_max":0,"o":""},"射":{"ha":0,"x_min":0,"x_max":0,"o":""},"捨":{"ha":0,"x_min":0,"x_max":0,"o":""},"赦":{"ha":0,"x_min":0,"x_max":0,"o":""},"斜":{"ha":0,"x_min":0,"x_max":0,"o":""},"煮":{"ha":0,"x_min":0,"x_max":0,"o":""},"社":{"ha":0,"x_min":0,"x_max":0,"o":""},"紗":{"ha":0,"x_min":0,"x_max":0,"o":""},"者":{"ha":0,"x_min":0,"x_max":0,"o":""},"謝":{"ha":0,"x_min":0,"x_max":0,"o":""},"⾞":{"ha":0,"x_min":0,"x_max":0,"o":"m 1126 882 l 1126 950 l 899 950 l 899 1065 l 710 1065 b 711 950 710 1065 710 1025 l 372 950 l 372 882 l 711 882 b 714 767 713 847 713 810 b 519 510 714 699 728 510 b 228 NaN 533 510 228 NaN b 229 NaN 228 NaN 228 NaN l 313 NaN b 315 NaN 314 NaN 314 NaN l -36 NaN l -36 NaN l 317 NaN b 319 NaN 317 NaN 318 NaN b 322 NaN 321 NaN 321 NaN l 89 NaN l 89 NaN l 158 NaN l 158 NaN l 347 NaN b 329 NaN 347 NaN 343 NaN l 168 NaN l 168 NaN l 93 NaN b 94 NaN 94 NaN 94 NaN z m -158 NaN l -90 NaN b -87 NaN -89 NaN -89 NaN l -161 NaN b -158 NaN -160 NaN -158 NaN z m 165 NaN b 163 NaN 164 NaN 164 NaN l 92 NaN b 93 NaN 93 NaN 93 NaN z m -165 NaN b -162 NaN -164 NaN -162 NaN l -86 NaN b -85 NaN -86 NaN -85 NaN z m 158 NaN l 90 NaN b 92 NaN 90 NaN 92 NaN l 161 NaN b 158 NaN 160 NaN 160 NaN z "},"遮":{"ha":0,"x_min":0,"x_max":0,"o":""},"蛇":{"ha":0,"x_min":0,"x_max":0,"o":""},"邪":{"ha":0,"x_min":0,"x_max":0,"o":""},"借":{"ha":0,"x_min":0,"x_max":0,"o":""},"勺":{"ha":0,"x_min":0,"x_max":0,"o":""},"尺":{"ha":0,"x_min":0,"x_max":0,"o":""},"爵":{"ha":0,"x_min":0,"x_max":0,"o":""},"酌":{"ha":0,"x_min":0,"x_max":0,"o":""},"釈":{"ha":0,"x_min":0,"x_max":0,"o":""},"錫":{"ha":0,"x_min":0,"x_max":0,"o":""},"若":{"ha":0,"x_min":0,"x_max":0,"o":""},"寂":{"ha":0,"x_min":0,"x_max":0,"o":""},"弱":{"ha":0,"x_min":0,"x_max":0,"o":""},"惹":{"ha":0,"x_min":0,"x_max":0,"o":""},"主":{"ha":0,"x_min":0,"x_max":0,"o":""},"取":{"ha":0,"x_min":0,"x_max":0,"o":""},"守":{"ha":0,"x_min":0,"x_max":0,"o":""},"⼿":{"ha":0,"x_min":0,"x_max":0,"o":"m 1143 329 l 1143 399 l 908 399 b 911 617 910 481 911 554 l 721 617 b 722 793 722 696 722 756 b 938 860 788 808 858 829 l 824 1044 b 246 825 535 836 246 825 b 533 767 246 825 333 758 b 536 617 535 729 535 679 l 207 617 l 207 549 l 538 549 l 542 331 l 165 331 l 165 261 l 543 261 b 549 25 544 189 546 110 l 549 -106 l 556 -106 l 556 -169 l 376 -169 b 735 -147 376 -169 540 -164 b 740 239 738 -3 739 126 z "},"朱":{"ha":0,"x_min":0,"x_max":0,"o":""},"殊":{"ha":0,"x_min":0,"x_max":0,"o":""},"狩":{"ha":0,"x_min":0,"x_max":0,"o":""},"珠":{"ha":0,"x_min":0,"x_max":0,"o":""},"種":{"ha":0,"x_min":0,"x_max":0,"o":""},"腫":{"ha":0,"x_min":0,"x_max":0,"o":""},"趣":{"ha":0,"x_min":0,"x_max":0,"o":""},"酒":{"ha":0,"x_min":0,"x_max":0,"o":""},"⾸":{"ha":0,"x_min":0,"x_max":0,"o":""},"儒":{"ha":0,"x_min":0,"x_max":0,"o":""},"受":{"ha":0,"x_min":0,"x_max":0,"o":""},"呪":{"ha":0,"x_min":0,"x_max":0,"o":""},"寿":{"ha":0,"x_min":0,"x_max":0,"o":""},"授":{"ha":0,"x_min":0,"x_max":0,"o":""},"樹":{"ha":0,"x_min":0,"x_max":0,"o":""},"綬":{"ha":0,"x_min":0,"x_max":0,"o":""},"需":{"ha":0,"x_min":0,"x_max":0,"o":""},"囚":{"ha":0,"x_min":0,"x_max":0,"o":""},"収":{"ha":0,"x_min":0,"x_max":0,"o":""},"周":{"ha":0,"x_min":0,"x_max":0,"o":""},"宗":{"ha":0,"x_min":0,"x_max":0,"o":""},"就":{"ha":0,"x_min":0,"x_max":0,"o":""},"州":{"ha":0,"x_min":0,"x_max":0,"o":""},"修":{"ha":0,"x_min":0,"x_max":0,"o":""},"愁":{"ha":0,"x_min":0,"x_max":0,"o":""},"拾":{"ha":0,"x_min":0,"x_max":0,"o":""},"洲":{"ha":0,"x_min":0,"x_max":0,"o":""},"秀":{"ha":0,"x_min":0,"x_max":0,"o":""},"秋":{"ha":0,"x_min":0,"x_max":0,"o":""},"終":{"ha":0,"x_min":0,"x_max":0,"o":""},"繍":{"ha":0,"x_min":0,"x_max":0,"o":""},"習":{"ha":0,"x_min":0,"x_max":0,"o":""},"臭":{"ha":0,"x_min":0,"x_max":0,"o":""},"⾈":{"ha":0,"x_min":0,"x_max":0,"o":""},"蒐":{"ha":0,"x_min":0,"x_max":0,"o":""},"衆":{"ha":0,"x_min":0,"x_max":0,"o":""},"襲":{"ha":0,"x_min":0,"x_max":0,"o":""},"讐":{"ha":0,"x_min":0,"x_max":0,"o":""},"蹴":{"ha":0,"x_min":0,"x_max":0,"o":""},"輯":{"ha":0,"x_min":0,"x_max":0,"o":""},"週":{"ha":0,"x_min":0,"x_max":0,"o":""},"酬":{"ha":0,"x_min":0,"x_max":0,"o":""},"集":{"ha":0,"x_min":0,"x_max":0,"o":""},"醜":{"ha":0,"x_min":0,"x_max":0,"o":""},"什":{"ha":0,"x_min":0,"x_max":0,"o":""},"住":{"ha":0,"x_min":0,"x_max":0,"o":""},"充":{"ha":0,"x_min":0,"x_max":0,"o":""},"⼗":{"ha":0,"x_min":0,"x_max":0,"o":"m 318 563 l 607 563 b 619 -74 610 386 614 171 l 779 -74 b 788 563 783 181 786 393 l 614 563 b 1046 565 614 565 899 565 b 776 408 1046 565 1047 404 l 489 408 z "},"従":{"ha":0,"x_min":0,"x_max":0,"o":""},"戎":{"ha":0,"x_min":0,"x_max":0,"o":""},"柔":{"ha":0,"x_min":0,"x_max":0,"o":""},"汁":{"ha":0,"x_min":0,"x_max":0,"o":""},"渋":{"ha":0,"x_min":0,"x_max":0,"o":""},"獣":{"ha":0,"x_min":0,"x_max":0,"o":""},"縦":{"ha":0,"x_min":0,"x_max":0,"o":""},"重":{"ha":0,"x_min":0,"x_max":0,"o":""},"銃":{"ha":0,"x_min":0,"x_max":0,"o":""},"叔":{"ha":0,"x_min":0,"x_max":0,"o":""},"夙":{"ha":0,"x_min":0,"x_max":0,"o":""},"宿":{"ha":0,"x_min":0,"x_max":0,"o":""},"淑":{"ha":0,"x_min":0,"x_max":0,"o":""},"祝":{"ha":0,"x_min":0,"x_max":0,"o":""},"縮":{"ha":0,"x_min":0,"x_max":0,"o":""},"粛":{"ha":0,"x_min":0,"x_max":0,"o":""},"塾":{"ha":0,"x_min":0,"x_max":0,"o":""},"熟":{"ha":0,"x_min":0,"x_max":0,"o":""},"出":{"ha":0,"x_min":0,"x_max":0,"o":"m 269 324 b 289 -69 269 324 274 164 b 290 -33 289 -57 289 -44 l 786 -33 b 788 -69 786 -44 788 -57 b 1181 -60 788 -60 1046 -60 b 1007 -162 1181 -60 1183 -172 b 1011 229 1008 -17 1011 114 l 1132 229 b 1133 193 1133 218 1133 206 b 1692 203 1133 203 1499 203 b 1421 33 1692 203 1694 22 l 1304 33 l 1308 410 l 1308 604 l 1317 33 l 1203 33 b 1657 40 1203 40 1501 40 b 1329 -171 1657 40 1661 -186 l 1490 -171 l 1490 -135 l 1608 -135 l 1617 -526 l 1451 -526 "},"術":{"ha":0,"x_min":0,"x_max":0,"o":""},"述":{"ha":0,"x_min":0,"x_max":0,"o":""},"俊":{"ha":0,"x_min":0,"x_max":0,"o":""},"峻":{"ha":0,"x_min":0,"x_max":0,"o":""},"春":{"ha":0,"x_min":0,"x_max":0,"o":""},"瞬":{"ha":0,"x_min":0,"x_max":0,"o":""},"竣":{"ha":0,"x_min":0,"x_max":0,"o":""},"舜":{"ha":0,"x_min":0,"x_max":0,"o":""},"駿":{"ha":0,"x_min":0,"x_max":0,"o":""},"准":{"ha":0,"x_min":0,"x_max":0,"o":""},"循":{"ha":0,"x_min":0,"x_max":0,"o":""},"旬":{"ha":0,"x_min":0,"x_max":0,"o":""},"殉":{"ha":0,"x_min":0,"x_max":0,"o":""},"淳":{"ha":0,"x_min":0,"x_max":0,"o":""},"準":{"ha":0,"x_min":0,"x_max":0,"o":""},"潤":{"ha":0,"x_min":0,"x_max":0,"o":""},"盾":{"ha":0,"x_min":0,"x_max":0,"o":""},"純":{"ha":0,"x_min":0,"x_max":0,"o":""},"巡":{"ha":0,"x_min":0,"x_max":0,"o":""},"遵":{"ha":0,"x_min":0,"x_max":0,"o":""},"醇":{"ha":0,"x_min":0,"x_max":0,"o":""},"順":{"ha":0,"x_min":0,"x_max":0,"o":""},"処":{"ha":0,"x_min":0,"x_max":0,"o":""},"初":{"ha":0,"x_min":0,"x_max":0,"o":""},"所":{"ha":0,"x_min":0,"x_max":0,"o":""},"暑":{"ha":0,"x_min":0,"x_max":0,"o":""},"曙":{"ha":0,"x_min":0,"x_max":0,"o":""},"渚":{"ha":0,"x_min":0,"x_max":0,"o":""},"庶":{"ha":0,"x_min":0,"x_max":0,"o":""},"緒":{"ha":0,"x_min":0,"x_max":0,"o":""},"署":{"ha":0,"x_min":0,"x_max":0,"o":""},"書":{"ha":0,"x_min":0,"x_max":0,"o":""},"諸":{"ha":0,"x_min":0,"x_max":0,"o":""},"助":{"ha":0,"x_min":0,"x_max":0,"o":""},"叙":{"ha":0,"x_min":0,"x_max":0,"o":""},"⼥":{"ha":0,"x_min":0,"x_max":0,"o":"m 1132 717 l 1132 785 l 715 785 b 768 1010 751 933 768 1010 l 583 1051 l 528 785 l 368 785 l 368 717 l 514 717 l 424 268 l 581 232 b 592 276 585 247 589 263 l 824 276 b 581 -64 719 54 581 -64 b 996 276 581 -64 831 -21 l 1243 276 l 1243 344 l 1140 344 b 1236 717 1185 443 1219 565 z m 964 344 l 719 344 b 811 717 757 493 786 618 l 1043 717 b 964 344 1036 575 1004 450 z "},"序":{"ha":0,"x_min":0,"x_max":0,"o":""},"徐":{"ha":0,"x_min":0,"x_max":0,"o":""},"恕":{"ha":0,"x_min":0,"x_max":0,"o":""},"鋤":{"ha":0,"x_min":0,"x_max":0,"o":""},"除":{"ha":0,"x_min":0,"x_max":0,"o":""},"傷":{"ha":0,"x_min":0,"x_max":0,"o":""},"償":{"ha":0,"x_min":0,"x_max":0,"o":""},"勝":{"ha":0,"x_min":0,"x_max":0,"o":""},"匠":{"ha":0,"x_min":0,"x_max":0,"o":""},"升":{"ha":0,"x_min":0,"x_max":0,"o":""},"召":{"ha":0,"x_min":0,"x_max":0,"o":""},"商":{"ha":0,"x_min":0,"x_max":0,"o":""},"唱":{"ha":0,"x_min":0,"x_max":0,"o":""},"嘗":{"ha":0,"x_min":0,"x_max":0,"o":""},"奨":{"ha":0,"x_min":0,"x_max":0,"o":""},"妾":{"ha":0,"x_min":0,"x_max":0,"o":""},"娼":{"ha":0,"x_min":0,"x_max":0,"o":""},"宵":{"ha":0,"x_min":0,"x_max":0,"o":""},"将":{"ha":0,"x_min":0,"x_max":0,"o":""},"⼩":{"ha":0,"x_min":0,"x_max":0,"o":"m 789 1063 b -192 885 789 872 397 885 b -46 739 -192 786 -187 739 b 125 NaN -42 739 125 754 b 136 NaN 136 NaN 136 NaN z m -294 NaN b -469 NaN -369 NaN -469 NaN b -110 NaN -469 NaN -253 NaN z m 251 NaN b 418 NaN 251 NaN 158 NaN l 544 NaN "},"少":{"ha":0,"x_min":0,"x_max":0,"o":""},"尚":{"ha":0,"x_min":0,"x_max":0,"o":""},"庄":{"ha":0,"x_min":0,"x_max":0,"o":""},"床":{"ha":0,"x_min":0,"x_max":0,"o":""},"廠":{"ha":0,"x_min":0,"x_max":0,"o":""},"彰":{"ha":0,"x_min":0,"x_max":0,"o":""},"承":{"ha":0,"x_min":0,"x_max":0,"o":""},"抄":{"ha":0,"x_min":0,"x_max":0,"o":""},"招":{"ha":0,"x_min":0,"x_max":0,"o":""},"掌":{"ha":0,"x_min":0,"x_max":0,"o":""},"捷":{"ha":0,"x_min":0,"x_max":0,"o":""},"昇":{"ha":0,"x_min":0,"x_max":0,"o":""},"昌":{"ha":0,"x_min":0,"x_max":0,"o":""},"昭":{"ha":0,"x_min":0,"x_max":0,"o":""},"晶":{"ha":0,"x_min":0,"x_max":0,"o":""},"松":{"ha":0,"x_min":0,"x_max":0,"o":""},"梢":{"ha":0,"x_min":0,"x_max":0,"o":""},"樟":{"ha":0,"x_min":0,"x_max":0,"o":""},"樵":{"ha":0,"x_min":0,"x_max":0,"o":""},"沼":{"ha":0,"x_min":0,"x_max":0,"o":""},"消":{"ha":0,"x_min":0,"x_max":0,"o":""},"渉":{"ha":0,"x_min":0,"x_max":0,"o":""},"湘":{"ha":0,"x_min":0,"x_max":0,"o":""},"焼":{"ha":0,"x_min":0,"x_max":0,"o":""},"焦":{"ha":0,"x_min":0,"x_max":0,"o":""},"照":{"ha":0,"x_min":0,"x_max":0,"o":""},"症":{"ha":0,"x_min":0,"x_max":0,"o":""},"省":{"ha":0,"x_min":0,"x_max":0,"o":""},"硝":{"ha":0,"x_min":0,"x_max":0,"o":""},"礁":{"ha":0,"x_min":0,"x_max":0,"o":""},"祥":{"ha":0,"x_min":0,"x_max":0,"o":""},"称":{"ha":0,"x_min":0,"x_max":0,"o":""},"章":{"ha":0,"x_min":0,"x_max":0,"o":""},"笑":{"ha":0,"x_min":0,"x_max":0,"o":""},"粧":{"ha":0,"x_min":0,"x_max":0,"o":""},"紹":{"ha":0,"x_min":0,"x_max":0,"o":""},"肖":{"ha":0,"x_min":0,"x_max":0,"o":""},"菖":{"ha":0,"x_min":0,"x_max":0,"o":""},"蒋":{"ha":0,"x_min":0,"x_max":0,"o":""},"蕉":{"ha":0,"x_min":0,"x_max":0,"o":""},"衝":{"ha":0,"x_min":0,"x_max":0,"o":""},"裳":{"ha":0,"x_min":0,"x_max":0,"o":""},"訟":{"ha":0,"x_min":0,"x_max":0,"o":""},"証":{"ha":0,"x_min":0,"x_max":0,"o":""},"詔":{"ha":0,"x_min":0,"x_max":0,"o":""},"詳":{"ha":0,"x_min":0,"x_max":0,"o":""},"象":{"ha":0,"x_min":0,"x_max":0,"o":""},"賞":{"ha":0,"x_min":0,"x_max":0,"o":""},"醤":{"ha":0,"x_min":0,"x_max":0,"o":""},"鉦":{"ha":0,"x_min":0,"x_max":0,"o":""},"鍾":{"ha":0,"x_min":0,"x_max":0,"o":""},"鐘":{"ha":0,"x_min":0,"x_max":0,"o":""},"障":{"ha":0,"x_min":0,"x_max":0,"o":""},"上":{"ha":0,"x_min":0,"x_max":0,"o":"m 1175 22 l 1697 22 l 1697 90 l 1336 90 b 1344 532 1340 231 1343 386 l 1701 532 l 1701 600 l 1457 600 b 1914 603 1457 603 1710 603 b 1329 243 1918 603 1329 621 l 1000 243 l 1000 175 z "},"丈":{"ha":0,"x_min":0,"x_max":0,"o":""},"丞":{"ha":0,"x_min":0,"x_max":0,"o":""},"乗":{"ha":0,"x_min":0,"x_max":0,"o":""},"冗":{"ha":0,"x_min":0,"x_max":0,"o":""},"剰":{"ha":0,"x_min":0,"x_max":0,"o":""},"城":{"ha":0,"x_min":0,"x_max":0,"o":""},"場":{"ha":0,"x_min":0,"x_max":0,"o":""},"壌":{"ha":0,"x_min":0,"x_max":0,"o":""},"嬢":{"ha":0,"x_min":0,"x_max":0,"o":""},"常":{"ha":0,"x_min":0,"x_max":0,"o":""},"情":{"ha":0,"x_min":0,"x_max":0,"o":""},"擾":{"ha":0,"x_min":0,"x_max":0,"o":""},"条":{"ha":0,"x_min":0,"x_max":0,"o":""},"浄":{"ha":0,"x_min":0,"x_max":0,"o":""},"状":{"ha":0,"x_min":0,"x_max":0,"o":""},"畳":{"ha":0,"x_min":0,"x_max":0,"o":""},"穣":{"ha":0,"x_min":0,"x_max":0,"o":""},"蒸":{"ha":0,"x_min":0,"x_max":0,"o":""},"譲":{"ha":0,"x_min":0,"x_max":0,"o":""},"醸":{"ha":0,"x_min":0,"x_max":0,"o":""},"錠":{"ha":0,"x_min":0,"x_max":0,"o":""},"嘱":{"ha":0,"x_min":0,"x_max":0,"o":""},"埴":{"ha":0,"x_min":0,"x_max":0,"o":""},"飾":{"ha":0,"x_min":0,"x_max":0,"o":""},"拭":{"ha":0,"x_min":0,"x_max":0,"o":""},"植":{"ha":0,"x_min":0,"x_max":0,"o":""},"殖":{"ha":0,"x_min":0,"x_max":0,"o":""},"燭":{"ha":0,"x_min":0,"x_max":0,"o":""},"織":{"ha":0,"x_min":0,"x_max":0,"o":""},"職":{"ha":0,"x_min":0,"x_max":0,"o":""},"⾊":{"ha":0,"x_min":0,"x_max":0,"o":""},"触":{"ha":0,"x_min":0,"x_max":0,"o":""},"⾷":{"ha":0,"x_min":0,"x_max":0,"o":""},"辱":{"ha":0,"x_min":0,"x_max":0,"o":""},"尻":{"ha":0,"x_min":0,"x_max":0,"o":""},"伸":{"ha":0,"x_min":0,"x_max":0,"o":""},"信":{"ha":0,"x_min":0,"x_max":0,"o":""},"侵":{"ha":0,"x_min":0,"x_max":0,"o":""},"唇":{"ha":0,"x_min":0,"x_max":0,"o":""},"娠":{"ha":0,"x_min":0,"x_max":0,"o":""},"寝":{"ha":0,"x_min":0,"x_max":0,"o":""},"審":{"ha":0,"x_min":0,"x_max":0,"o":""},"⼼":{"ha":0,"x_min":0,"x_max":0,"o":""},"慎":{"ha":0,"x_min":0,"x_max":0,"o":""},"振":{"ha":0,"x_min":0,"x_max":0,"o":""},"新":{"ha":0,"x_min":0,"x_max":0,"o":""},"晋":{"ha":0,"x_min":0,"x_max":0,"o":""},"森":{"ha":0,"x_min":0,"x_max":0,"o":"m 217 588 b 606 769 217 588 446 588 l 614 576 b 622 868 618 694 619 792 l 351 868 l 353 956 l 353 1000 l 357 868 l -26 868 l -26 799 l 235 799 b -26 518 140 633 -26 518 z m 839 513 l 933 653 b 572 796 726 700 572 796 b 839 513 572 796 571 629 z m 114 154 b 122 -139 115 75 118 -22 l 254 -139 b 263 293 258 58 261 197 l 421 293 l 421 361 l 374 361 l 376 507 b 381 361 376 507 378 474 b 593 554 381 361 504 399 z m 1314 761 l 1267 761 l 1269 907 l 1275 761 b 1488 954 1275 761 1399 799 b 1496 661 1490 875 1492 778 l 1629 661 l 1636 1093 l 1794 1093 l 1794 1161 l 1739 1217 z m 1121 1069 b 1240 767 1121 1069 1086 938 l 1325 886 b 1121 1069 1189 996 1121 1069 z m 1647 1069 b 1767 767 1647 1069 1613 938 l 1850 886 "},"榛":{"ha":0,"x_min":0,"x_max":0,"o":""},"浸":{"ha":0,"x_min":0,"x_max":0,"o":""},"深":{"ha":0,"x_min":0,"x_max":0,"o":""},"申":{"ha":0,"x_min":0,"x_max":0,"o":""},"疹":{"ha":0,"x_min":0,"x_max":0,"o":""},"真":{"ha":0,"x_min":0,"x_max":0,"o":""},"神":{"ha":0,"x_min":0,"x_max":0,"o":""},"秦":{"ha":0,"x_min":0,"x_max":0,"o":""},"紳":{"ha":0,"x_min":0,"x_max":0,"o":""},"⾂":{"ha":0,"x_min":0,"x_max":0,"o":""},"芯":{"ha":0,"x_min":0,"x_max":0,"o":""},"薪":{"ha":0,"x_min":0,"x_max":0,"o":""},"親":{"ha":0,"x_min":0,"x_max":0,"o":""},"診":{"ha":0,"x_min":0,"x_max":0,"o":""},"⾝":{"ha":0,"x_min":0,"x_max":0,"o":""},"⾟":{"ha":0,"x_min":0,"x_max":0,"o":""},"進":{"ha":0,"x_min":0,"x_max":0,"o":""},"針":{"ha":0,"x_min":0,"x_max":0,"o":""},"震":{"ha":0,"x_min":0,"x_max":0,"o":""},"⼈":{"ha":0,"x_min":0,"x_max":0,"o":"m 281 -1085 l 871 -300 l 1910 -196 l 2074 NaN b 1660 NaN 1778 NaN 1660 NaN b 1969 NaN 1660 NaN 1586 NaN z "},"仁":{"ha":0,"x_min":0,"x_max":0,"o":""},"刃":{"ha":0,"x_min":0,"x_max":0,"o":""},"塵":{"ha":0,"x_min":0,"x_max":0,"o":""},"壬":{"ha":0,"x_min":0,"x_max":0,"o":""},"尋":{"ha":0,"x_min":0,"x_max":0,"o":""},"甚":{"ha":0,"x_min":0,"x_max":0,"o":""},"尽":{"ha":0,"x_min":0,"x_max":0,"o":""},"腎":{"ha":0,"x_min":0,"x_max":0,"o":""},"迅":{"ha":0,"x_min":0,"x_max":0,"o":""},"陣":{"ha":0,"x_min":0,"x_max":0,"o":""},"靭":{"ha":0,"x_min":0,"x_max":0,"o":""},"笥":{"ha":0,"x_min":0,"x_max":0,"o":""},"諏":{"ha":0,"x_min":0,"x_max":0,"o":""},"須":{"ha":0,"x_min":0,"x_max":0,"o":""},"酢":{"ha":0,"x_min":0,"x_max":0,"o":""},"図":{"ha":0,"x_min":0,"x_max":0,"o":""},"厨":{"ha":0,"x_min":0,"x_max":0,"o":""},"吹":{"ha":0,"x_min":0,"x_max":0,"o":""},"垂":{"ha":0,"x_min":0,"x_max":0,"o":""},"帥":{"ha":0,"x_min":0,"x_max":0,"o":""},"推":{"ha":0,"x_min":0,"x_max":0,"o":""},"⽔":{"ha":0,"x_min":0,"x_max":0,"o":"m 897 494 b 1203 750 968 510 1086 564 l 1018 811 b 865 529 969 675 904 579 b 793 621 833 568 808 600 b 1239 624 793 624 1088 624 b 650 239 1239 624 1243 226 l 650 136 l 654 136 l 654 86 l 500 86 b 815 106 500 86 644 90 b 822 665 818 324 821 510 b 1142 204 856 553 938 385 l 1257 361 b 928 654 1113 464 1003 569 z m 221 744 l 368 744 b 257 229 360 418 257 229 b 563 813 257 229 526 313 l 221 813 z "},"炊":{"ha":0,"x_min":0,"x_max":0,"o":""},"睡":{"ha":0,"x_min":0,"x_max":0,"o":""},"粋":{"ha":0,"x_min":0,"x_max":0,"o":""},"翠":{"ha":0,"x_min":0,"x_max":0,"o":""},"衰":{"ha":0,"x_min":0,"x_max":0,"o":""},"遂":{"ha":0,"x_min":0,"x_max":0,"o":""},"酔":{"ha":0,"x_min":0,"x_max":0,"o":""},"錐":{"ha":0,"x_min":0,"x_max":0,"o":""},"錘":{"ha":0,"x_min":0,"x_max":0,"o":""},"随":{"ha":0,"x_min":0,"x_max":0,"o":""},"瑞":{"ha":0,"x_min":0,"x_max":0,"o":""},"髄":{"ha":0,"x_min":0,"x_max":0,"o":""},"崇":{"ha":0,"x_min":0,"x_max":0,"o":""},"嵩":{"ha":0,"x_min":0,"x_max":0,"o":""},"数":{"ha":0,"x_min":0,"x_max":0,"o":""},"枢":{"ha":0,"x_min":0,"x_max":0,"o":""},"趨":{"ha":0,"x_min":0,"x_max":0,"o":""},"雛":{"ha":0,"x_min":0,"x_max":0,"o":""},"据":{"ha":0,"x_min":0,"x_max":0,"o":""},"杉":{"ha":0,"x_min":0,"x_max":0,"o":""},"椙":{"ha":0,"x_min":0,"x_max":0,"o":""},"菅":{"ha":0,"x_min":0,"x_max":0,"o":""},"頗":{"ha":0,"x_min":0,"x_max":0,"o":""},"雀":{"ha":0,"x_min":0,"x_max":0,"o":""},"裾":{"ha":0,"x_min":0,"x_max":0,"o":""},"澄":{"ha":0,"x_min":0,"x_max":0,"o":""},"⼨":{"ha":0,"x_min":0,"x_max":0,"o":""},"世":{"ha":0,"x_min":0,"x_max":0,"o":""},"瀬":{"ha":0,"x_min":0,"x_max":0,"o":""},"畝":{"ha":0,"x_min":0,"x_max":0,"o":""},"是":{"ha":0,"x_min":0,"x_max":0,"o":""},"凄":{"ha":0,"x_min":0,"x_max":0,"o":""},"制":{"ha":0,"x_min":0,"x_max":0,"o":""},"勢":{"ha":0,"x_min":0,"x_max":0,"o":""},"姓":{"ha":0,"x_min":0,"x_max":0,"o":""},"征":{"ha":0,"x_min":0,"x_max":0,"o":""},"性":{"ha":0,"x_min":0,"x_max":0,"o":""},"成":{"ha":0,"x_min":0,"x_max":0,"o":""},"政":{"ha":0,"x_min":0,"x_max":0,"o":""},"整":{"ha":0,"x_min":0,"x_max":0,"o":""},"星":{"ha":0,"x_min":0,"x_max":0,"o":""},"晴":{"ha":0,"x_min":0,"x_max":0,"o":""},"棲":{"ha":0,"x_min":0,"x_max":0,"o":""},"栖":{"ha":0,"x_min":0,"x_max":0,"o":""},"正":{"ha":0,"x_min":0,"x_max":0,"o":"m 1057 999 l 247 999 l 247 931 l 657 931 b 674 39 658 818 663 488 l 524 39 b 506 685 522 125 518 364 l 360 685 b 349 39 351 338 350 119 l 219 39 l 219 -29 l 1168 -29 l 1168 39 l 933 39 b 940 583 938 258 939 440 l 1279 583 l 1279 651 l 1053 651 b 1054 931 1054 788 1054 881 z "},"清":{"ha":0,"x_min":0,"x_max":0,"o":""},"牲":{"ha":0,"x_min":0,"x_max":0,"o":""},"⽣":{"ha":0,"x_min":0,"x_max":0,"o":"m 1146 713 l 1146 782 l 894 782 b 896 1064 896 968 896 1064 l 719 1064 l 724 782 l 544 782 b 594 982 567 838 583 903 l 422 1017 b 299 490 393 721 299 490 b 514 713 299 490 424 535 l 725 713 l 729 442 l 414 442 l 414 374 l 731 374 b 738 76 733 281 735 182 l 358 76 l 358 8 l 1257 8 l 1257 76 l 997 76 l 1001 374 l 1313 374 l 1313 442 l 1113 442 b 1115 713 1114 544 1115 635 z "},"盛":{"ha":0,"x_min":0,"x_max":0,"o":""},"精":{"ha":0,"x_min":0,"x_max":0,"o":""},"聖":{"ha":0,"x_min":0,"x_max":0,"o":""},"声":{"ha":0,"x_min":0,"x_max":0,"o":""},"製":{"ha":0,"x_min":0,"x_max":0,"o":""},"⻄":{"ha":0,"x_min":0,"x_max":0,"o":""},"誠":{"ha":0,"x_min":0,"x_max":0,"o":""},"誓":{"ha":0,"x_min":0,"x_max":0,"o":""},"請":{"ha":0,"x_min":0,"x_max":0,"o":""},"逝":{"ha":0,"x_min":0,"x_max":0,"o":""},"醒":{"ha":0,"x_min":0,"x_max":0,"o":""},"⻘":{"ha":0,"x_min":0,"x_max":0,"o":"m 261 599 l 25 599 l 29 690 l -160 690 b -158 781 -158 724 -158 754 l -386 781 l -385 833 l -385 860 l -382 781 l -722 781 l -722 713 l -379 713 l -375 622 l -681 622 l -681 554 l -372 554 l -368 463 l -722 463 z m -260 -140 l -260 -294 b 31 -275 -260 -294 -128 -290 b 11 293 31 -275 26 -44 l -149 293 b -150 275 -150 286 -150 281 l -419 275 l -419 293 l -610 293 b -590 -275 -610 293 -606 63 l -586 -100 l -318 -100 b -319 -143 -319 -115 -319 -131 z m -481 204 l -549 204 l -549 207 l -582 207 l -582 476 b -585 390 -583 446 -583 418 l -851 390 z m -854 238 b -853 322 -854 268 -853 296 l -586 322 b -587 238 -586 292 -586 264 z "},"静":{"ha":0,"x_min":0,"x_max":0,"o":""},"⻫":{"ha":0,"x_min":0,"x_max":0,"o":""},"税":{"ha":0,"x_min":0,"x_max":0,"o":""},"脆":{"ha":0,"x_min":0,"x_max":0,"o":""},"隻":{"ha":0,"x_min":0,"x_max":0,"o":""},"席":{"ha":0,"x_min":0,"x_max":0,"o":""},"惜":{"ha":0,"x_min":0,"x_max":0,"o":""},"戚":{"ha":0,"x_min":0,"x_max":0,"o":""},"斥":{"ha":0,"x_min":0,"x_max":0,"o":""},"昔":{"ha":0,"x_min":0,"x_max":0,"o":""},"析":{"ha":0,"x_min":0,"x_max":0,"o":""},"⽯":{"ha":0,"x_min":0,"x_max":0,"o":"m 418 396 b 435 -71 421 296 425 132 l 581 -71 b 582 -53 582 -64 582 -58 l 922 -53 l 922 -71 l 1097 -71 b 1079 500 1097 -71 1093 161 l 932 500 l 932 485 l 592 485 l 592 500 l 486 500 b 614 853 536 589 582 704 l 1025 853 l 1025 921 l 382 921 l 382 853 l 531 853 b 321 215 444 439 321 215 b 529 396 321 215 422 254 z m 701 417 l 1040 417 b 1033 15 1036 229 1035 94 l 694 15 b 701 417 699 203 701 338 z "},"積":{"ha":0,"x_min":0,"x_max":0,"o":""},"籍":{"ha":0,"x_min":0,"x_max":0,"o":""},"績":{"ha":0,"x_min":0,"x_max":0,"o":""},"脊":{"ha":0,"x_min":0,"x_max":0,"o":""},"責":{"ha":0,"x_min":0,"x_max":0,"o":""},"⾚":{"ha":0,"x_min":0,"x_max":0,"o":"m 669 -65 b 914 -46 669 -65 781 -61 b 924 588 922 296 924 511 l 688 588 b 693 789 690 665 692 733 l 506 789 l 507 885 l 507 933 l 511 789 l 211 789 l 211 721 l 514 721 b 524 519 517 663 519 594 l 169 519 l 169 451 l 410 451 b 308 -207 407 -17 308 -207 b 586 451 308 -207 581 -207 l 636 451 b 650 -51 638 382 642 199 z m 443 307 l 390 310 l 364 164 l 425 NaN b 265 NaN 372 NaN 265 NaN b 571 NaN 265 NaN 481 NaN z m 1340 NaN b 1071 NaN 1247 NaN 1071 NaN b 1194 NaN 1071 NaN 1142 NaN z "},"跡":{"ha":0,"x_min":0,"x_max":0,"o":""},"蹟":{"ha":0,"x_min":0,"x_max":0,"o":""},"碩":{"ha":0,"x_min":0,"x_max":0,"o":""},"切":{"ha":0,"x_min":0,"x_max":0,"o":""},"拙":{"ha":0,"x_min":0,"x_max":0,"o":""},"接":{"ha":0,"x_min":0,"x_max":0,"o":""},"摂":{"ha":0,"x_min":0,"x_max":0,"o":""},"折":{"ha":0,"x_min":0,"x_max":0,"o":""},"設":{"ha":0,"x_min":0,"x_max":0,"o":""},"窃":{"ha":0,"x_min":0,"x_max":0,"o":""},"節":{"ha":0,"x_min":0,"x_max":0,"o":""},"説":{"ha":0,"x_min":0,"x_max":0,"o":""},"雪":{"ha":0,"x_min":0,"x_max":0,"o":""},"絶":{"ha":0,"x_min":0,"x_max":0,"o":""},"⾆":{"ha":0,"x_min":0,"x_max":0,"o":""},"蝉":{"ha":0,"x_min":0,"x_max":0,"o":""},"仙":{"ha":0,"x_min":0,"x_max":0,"o":""},"先":{"ha":0,"x_min":0,"x_max":0,"o":"m 1069 97 l 906 90 b 913 476 911 283 911 424 l 693 476 b 699 715 696 568 697 647 l 486 715 b 713 718 486 718 636 718 b 572 638 713 718 714 633 l 467 638 b 521 793 486 681 506 732 l 331 836 b 203 393 296 546 203 393 b 432 569 203 393 326 394 l 575 569 b 583 331 576 500 579 419 l 236 331 l 236 263 l 435 263 b 232 -272 426 -111 232 -272 b 629 263 232 -272 617 -231 l 692 263 b 710 -247 693 194 697 -11 b 700 236 710 -11 700 189 b 721 467 700 388 721 467 l 569 506 z "},"千":{"ha":0,"x_min":0,"x_max":0,"o":"m 618 -74 b 625 467 622 142 624 322 l 910 467 l 910 536 l 738 536 b 739 826 739 669 739 767 b 944 921 806 844 875 874 l 817 1068 b 283 856 654 921 283 856 b 551 801 283 856 394 803 b 556 536 551 740 553 650 l 268 536 l 268 467 l 557 467 z "},"占":{"ha":0,"x_min":0,"x_max":0,"o":""},"宣":{"ha":0,"x_min":0,"x_max":0,"o":""},"専":{"ha":0,"x_min":0,"x_max":0,"o":""},"尖":{"ha":0,"x_min":0,"x_max":0,"o":""},"川":{"ha":0,"x_min":0,"x_max":0,"o":"b 544 75 525 1040 544 154 b 544 146 544 -108 544 -108 b 1583 NaN 544 176 1583 NaN m 2124 NaN l 1963 NaN b 1953 NaN 1953 NaN 1953 NaN l 2142 NaN b 2124 NaN 2142 NaN 2138 NaN z m 1675 NaN b 2558 NaN 1675 NaN 2254 NaN b 2038 NaN 2558 NaN 2563 NaN z "},"戦":{"ha":0,"x_min":0,"x_max":0,"o":""},"扇":{"ha":0,"x_min":0,"x_max":0,"o":""},"栓":{"ha":0,"x_min":0,"x_max":0,"o":""},"栴":{"ha":0,"x_min":0,"x_max":0,"o":""},"泉":{"ha":0,"x_min":0,"x_max":0,"o":""},"浅":{"ha":0,"x_min":0,"x_max":0,"o":""},"洗":{"ha":0,"x_min":0,"x_max":0,"o":""},"染":{"ha":0,"x_min":0,"x_max":0,"o":""},"潜":{"ha":0,"x_min":0,"x_max":0,"o":""},"旋":{"ha":0,"x_min":0,"x_max":0,"o":""},"線":{"ha":0,"x_min":0,"x_max":0,"o":""},"繊":{"ha":0,"x_min":0,"x_max":0,"o":""},"羨":{"ha":0,"x_min":0,"x_max":0,"o":""},"腺":{"ha":0,"x_min":0,"x_max":0,"o":""},"⾇":{"ha":0,"x_min":0,"x_max":0,"o":""},"船":{"ha":0,"x_min":0,"x_max":0,"o":""},"薦":{"ha":0,"x_min":0,"x_max":0,"o":""},"賎":{"ha":0,"x_min":0,"x_max":0,"o":""},"践":{"ha":0,"x_min":0,"x_max":0,"o":""},"選":{"ha":0,"x_min":0,"x_max":0,"o":""},"遷":{"ha":0,"x_min":0,"x_max":0,"o":""},"銭":{"ha":0,"x_min":0,"x_max":0,"o":""},"銑":{"ha":0,"x_min":0,"x_max":0,"o":""},"閃":{"ha":0,"x_min":0,"x_max":0,"o":""},"鮮":{"ha":0,"x_min":0,"x_max":0,"o":""},"前":{"ha":0,"x_min":0,"x_max":0,"o":""},"善":{"ha":0,"x_min":0,"x_max":0,"o":""},"漸":{"ha":0,"x_min":0,"x_max":0,"o":""},"然":{"ha":0,"x_min":0,"x_max":0,"o":""},"全":{"ha":0,"x_min":0,"x_max":0,"o":""},"禅":{"ha":0,"x_min":0,"x_max":0,"o":""},"繕":{"ha":0,"x_min":0,"x_max":0,"o":""},"膳":{"ha":0,"x_min":0,"x_max":0,"o":""},"糎":{"ha":0,"x_min":0,"x_max":0,"o":""},"塑":{"ha":0,"x_min":0,"x_max":0,"o":""},"岨":{"ha":0,"x_min":0,"x_max":0,"o":""},"措":{"ha":0,"x_min":0,"x_max":0,"o":""},"曾":{"ha":0,"x_min":0,"x_max":0,"o":""},"曽":{"ha":0,"x_min":0,"x_max":0,"o":""},"楚":{"ha":0,"x_min":0,"x_max":0,"o":""},"狙":{"ha":0,"x_min":0,"x_max":0,"o":""},"疏":{"ha":0,"x_min":0,"x_max":0,"o":""},"疎":{"ha":0,"x_min":0,"x_max":0,"o":""},"礎":{"ha":0,"x_min":0,"x_max":0,"o":""},"祖":{"ha":0,"x_min":0,"x_max":0,"o":""},"租":{"ha":0,"x_min":0,"x_max":0,"o":""},"粗":{"ha":0,"x_min":0,"x_max":0,"o":""},"素":{"ha":0,"x_min":0,"x_max":0,"o":""},"組":{"ha":0,"x_min":0,"x_max":0,"o":""},"蘇":{"ha":0,"x_min":0,"x_max":0,"o":""},"訴":{"ha":0,"x_min":0,"x_max":0,"o":""},"阻":{"ha":0,"x_min":0,"x_max":0,"o":""},"⿏":{"ha":0,"x_min":0,"x_max":0,"o":""},"僧":{"ha":0,"x_min":0,"x_max":0,"o":""},"創":{"ha":0,"x_min":0,"x_max":0,"o":""},"双":{"ha":0,"x_min":0,"x_max":0,"o":""},"叢":{"ha":0,"x_min":0,"x_max":0,"o":""},"倉":{"ha":0,"x_min":0,"x_max":0,"o":""},"喪":{"ha":0,"x_min":0,"x_max":0,"o":""},"壮":{"ha":0,"x_min":0,"x_max":0,"o":""},"奏":{"ha":0,"x_min":0,"x_max":0,"o":""},"爽":{"ha":0,"x_min":0,"x_max":0,"o":""},"宋":{"ha":0,"x_min":0,"x_max":0,"o":""},"層":{"ha":0,"x_min":0,"x_max":0,"o":""},"匝":{"ha":0,"x_min":0,"x_max":0,"o":""},"惣":{"ha":0,"x_min":0,"x_max":0,"o":""},"想":{"ha":0,"x_min":0,"x_max":0,"o":""},"捜":{"ha":0,"x_min":0,"x_max":0,"o":""},"掃":{"ha":0,"x_min":0,"x_max":0,"o":""},"挿":{"ha":0,"x_min":0,"x_max":0,"o":""},"掻":{"ha":0,"x_min":0,"x_max":0,"o":""},"操":{"ha":0,"x_min":0,"x_max":0,"o":""},"早":{"ha":0,"x_min":0,"x_max":0,"o":"m 557 443 b 558 478 558 456 558 467 b 508 1332 558 747 524 985 b 508 901 508 1171 492 901 b 82 568 318 901 82 917 z m 251 1067 l 521 1067 l 517 903 l 250 903 b 251 1067 250 972 251 1026 z m 249 835 l 515 835 b 514 671 514 768 514 713 l 244 671 z m 303 56 b 311 388 307 194 308 306 l 238 388 l 239 453 l 239 486 l 242 388 l -140 388 l -140 319 l -99 319 b -85 -12 -96 233 -92 121 z "},"曹":{"ha":0,"x_min":0,"x_max":0,"o":""},"巣":{"ha":0,"x_min":0,"x_max":0,"o":""},"槍":{"ha":0,"x_min":0,"x_max":0,"o":""},"槽":{"ha":0,"x_min":0,"x_max":0,"o":""},"漕":{"ha":0,"x_min":0,"x_max":0,"o":""},"燥":{"ha":0,"x_min":0,"x_max":0,"o":""},"争":{"ha":0,"x_min":0,"x_max":0,"o":""},"痩":{"ha":0,"x_min":0,"x_max":0,"o":""},"相":{"ha":0,"x_min":0,"x_max":0,"o":""},"窓":{"ha":0,"x_min":0,"x_max":0,"o":""},"糟":{"ha":0,"x_min":0,"x_max":0,"o":""},"総":{"ha":0,"x_min":0,"x_max":0,"o":""},"綜":{"ha":0,"x_min":0,"x_max":0,"o":""},"聡":{"ha":0,"x_min":0,"x_max":0,"o":""},"草":{"ha":0,"x_min":0,"x_max":0,"o":"m 263 906 l 258 813 l 94 813 b 96 906 96 874 96 906 l -65 906 b -60 813 -65 906 -64 871 l -258 813 z m -231 -10 l 96 -10 l 106 -235 l 253 -235 b 258 -10 254 -142 257 -68 l 579 -10 l 579 58 l 371 58 b 372 158 372 104 372 136 b 342 664 372 201 357 389 l 182 664 b 181 649 181 660 181 654 b 8 189 181 379 196 189 b -251 NaN 24 189 -251 NaN l -90 NaN l -90 NaN l -36 NaN b -32 NaN -35 NaN -33 NaN l -356 NaN z m -82 NaN l 188 NaN l 183 NaN l -83 NaN b -82 NaN -82 NaN -82 NaN z m -87 NaN b -85 NaN -87 NaN -86 NaN l 182 NaN b 181 NaN 182 NaN 181 NaN z "},"荘":{"ha":0,"x_min":0,"x_max":0,"o":""},"葬":{"ha":0,"x_min":0,"x_max":0,"o":""},"蒼":{"ha":0,"x_min":0,"x_max":0,"o":""},"藻":{"ha":0,"x_min":0,"x_max":0,"o":""},"装":{"ha":0,"x_min":0,"x_max":0,"o":""},"⾛":{"ha":0,"x_min":0,"x_max":0,"o":""},"送":{"ha":0,"x_min":0,"x_max":0,"o":""},"遭":{"ha":0,"x_min":0,"x_max":0,"o":""},"鎗":{"ha":0,"x_min":0,"x_max":0,"o":""},"霜":{"ha":0,"x_min":0,"x_max":0,"o":""},"騒":{"ha":0,"x_min":0,"x_max":0,"o":""},"像":{"ha":0,"x_min":0,"x_max":0,"o":""},"増":{"ha":0,"x_min":0,"x_max":0,"o":""},"憎":{"ha":0,"x_min":0,"x_max":0,"o":""},"臓":{"ha":0,"x_min":0,"x_max":0,"o":""},"蔵":{"ha":0,"x_min":0,"x_max":0,"o":""},"贈":{"ha":0,"x_min":0,"x_max":0,"o":""},"造":{"ha":0,"x_min":0,"x_max":0,"o":""},"促":{"ha":0,"x_min":0,"x_max":0,"o":""},"側":{"ha":0,"x_min":0,"x_max":0,"o":""},"則":{"ha":0,"x_min":0,"x_max":0,"o":""},"即":{"ha":0,"x_min":0,"x_max":0,"o":""},"息":{"ha":0,"x_min":0,"x_max":0,"o":""},"捉":{"ha":0,"x_min":0,"x_max":0,"o":""},"束":{"ha":0,"x_min":0,"x_max":0,"o":""},"測":{"ha":0,"x_min":0,"x_max":0,"o":""},"⾜":{"ha":0,"x_min":0,"x_max":0,"o":"m 450 128 b 1135 -44 536 40 726 -44 l 1135 124 b 789 144 996 124 882 132 l 793 328 l 1078 328 l 1078 396 l 906 396 l 908 578 l 979 578 l 979 557 l 1168 557 b 1150 1035 1168 557 1165 750 b 1150 532 1150 874 1126 532 b 767 263 961 532 767 546 b 768 283 767 269 768 276 l 849 283 b 863 -117 850 251 854 147 b 725 -67 804 -100 760 -83 b 758 143 740 -8 753 61 l 590 181 b 481 -367 575 -192 481 -367 b 690 -167 481 -367 606 -354 z m 769 351 b 776 649 774 485 775 583 l 1115 649 b 1110 351 1111 517 1110 417 z "},"速":{"ha":0,"x_min":0,"x_max":0,"o":""},"俗":{"ha":0,"x_min":0,"x_max":0,"o":""},"属":{"ha":0,"x_min":0,"x_max":0,"o":""},"賊":{"ha":0,"x_min":0,"x_max":0,"o":""},"族":{"ha":0,"x_min":0,"x_max":0,"o":""},"続":{"ha":0,"x_min":0,"x_max":0,"o":""},"卒":{"ha":0,"x_min":0,"x_max":0,"o":""},"袖":{"ha":0,"x_min":0,"x_max":0,"o":""},"其":{"ha":0,"x_min":0,"x_max":0,"o":""},"存":{"ha":0,"x_min":0,"x_max":0,"o":""},"孫":{"ha":0,"x_min":0,"x_max":0,"o":""},"尊":{"ha":0,"x_min":0,"x_max":0,"o":""},"損":{"ha":0,"x_min":0,"x_max":0,"o":""},"村":{"ha":0,"x_min":0,"x_max":0,"o":"m 1242 692 l 1242 760 l 1186 815 l 1132 761 l 1133 1071 l 958 1071 l 964 760 l 703 760 l 703 692 l 965 692 b 975 81 967 546 971 347 b 1089 -15 975 17 978 -15 b 1226 NaN 1093 -15 1226 0 b 1233 NaN 1231 NaN 1232 NaN z m 440 NaN b 449 NaN 443 NaN 446 NaN l 582 NaN b 589 NaN 585 NaN 588 NaN l 733 NaN l 733 NaN b 953 NaN 733 NaN 861 NaN z m 1289 NaN b 1133 NaN 1200 NaN 1133 NaN b 1181 NaN 1133 NaN 1104 NaN z m 1321 NaN b 1415 NaN 1321 NaN 1386 NaN l 1551 NaN "},"他":{"ha":0,"x_min":0,"x_max":0,"o":""},"多":{"ha":0,"x_min":0,"x_max":0,"o":""},"太":{"ha":0,"x_min":0,"x_max":0,"o":""},"汰":{"ha":0,"x_min":0,"x_max":0,"o":""},"詑":{"ha":0,"x_min":0,"x_max":0,"o":""},"唾":{"ha":0,"x_min":0,"x_max":0,"o":""},"堕":{"ha":0,"x_min":0,"x_max":0,"o":""},"妥":{"ha":0,"x_min":0,"x_max":0,"o":""},"惰":{"ha":0,"x_min":0,"x_max":0,"o":""},"打":{"ha":0,"x_min":0,"x_max":0,"o":""},"柁":{"ha":0,"x_min":0,"x_max":0,"o":""},"舵":{"ha":0,"x_min":0,"x_max":0,"o":""},"楕":{"ha":0,"x_min":0,"x_max":0,"o":""},"陀":{"ha":0,"x_min":0,"x_max":0,"o":""},"駄":{"ha":0,"x_min":0,"x_max":0,"o":""},"騨":{"ha":0,"x_min":0,"x_max":0,"o":""},"体":{"ha":0,"x_min":0,"x_max":0,"o":""},"堆":{"ha":0,"x_min":0,"x_max":0,"o":""},"対":{"ha":0,"x_min":0,"x_max":0,"o":""},"耐":{"ha":0,"x_min":0,"x_max":0,"o":""},"岱":{"ha":0,"x_min":0,"x_max":0,"o":""},"帯":{"ha":0,"x_min":0,"x_max":0,"o":""},"待":{"ha":0,"x_min":0,"x_max":0,"o":""},"怠":{"ha":0,"x_min":0,"x_max":0,"o":""},"態":{"ha":0,"x_min":0,"x_max":0,"o":""},"戴":{"ha":0,"x_min":0,"x_max":0,"o":""},"替":{"ha":0,"x_min":0,"x_max":0,"o":""},"泰":{"ha":0,"x_min":0,"x_max":0,"o":""},"滞":{"ha":0,"x_min":0,"x_max":0,"o":""},"胎":{"ha":0,"x_min":0,"x_max":0,"o":""},"苔":{"ha":0,"x_min":0,"x_max":0,"o":""},"袋":{"ha":0,"x_min":0,"x_max":0,"o":""},"貸":{"ha":0,"x_min":0,"x_max":0,"o":""},"退":{"ha":0,"x_min":0,"x_max":0,"o":""},"逮":{"ha":0,"x_min":0,"x_max":0,"o":""},"隊":{"ha":0,"x_min":0,"x_max":0,"o":""},"黛":{"ha":0,"x_min":0,"x_max":0,"o":""},"鯛":{"ha":0,"x_min":0,"x_max":0,"o":""},"代":{"ha":0,"x_min":0,"x_max":0,"o":""},"台":{"ha":0,"x_min":0,"x_max":0,"o":""},"⼤":{"ha":0,"x_min":0,"x_max":0,"o":"m 243 665 l 810 665 l 810 968 b 517 257 738 404 517 257 b 761 374 517 257 638 251 b 1003 968 858 469 958 646 l 1382 968 l 1382 1036 l 1122 1036 b 1315 1050 1122 1044 1214 1050 b 1315 944 1428 1050 1315 1046 b NaN NaN 1315 935 1224 NaN l NaN NaN b NaN NaN NaN NaN NaN NaN b NaN NaN NaN NaN NaN NaN b NaN NaN NaN NaN NaN NaN z "},"第":{"ha":0,"x_min":0,"x_max":0,"o":""},"醍":{"ha":0,"x_min":0,"x_max":0,"o":""},"題":{"ha":0,"x_min":0,"x_max":0,"o":""},"鷹":{"ha":0,"x_min":0,"x_max":0,"o":""},"滝":{"ha":0,"x_min":0,"x_max":0,"o":""},"瀧":{"ha":0,"x_min":0,"x_max":0,"o":""},"卓":{"ha":0,"x_min":0,"x_max":0,"o":""},"啄":{"ha":0,"x_min":0,"x_max":0,"o":""},"宅":{"ha":0,"x_min":0,"x_max":0,"o":""},"托":{"ha":0,"x_min":0,"x_max":0,"o":""},"択":{"ha":0,"x_min":0,"x_max":0,"o":""},"拓":{"ha":0,"x_min":0,"x_max":0,"o":""},"沢":{"ha":0,"x_min":0,"x_max":0,"o":""},"濯":{"ha":0,"x_min":0,"x_max":0,"o":""},"琢":{"ha":0,"x_min":0,"x_max":0,"o":""},"託":{"ha":0,"x_min":0,"x_max":0,"o":""},"鐸":{"ha":0,"x_min":0,"x_max":0,"o":""},"濁":{"ha":0,"x_min":0,"x_max":0,"o":""},"諾":{"ha":0,"x_min":0,"x_max":0,"o":""},"茸":{"ha":0,"x_min":0,"x_max":0,"o":""},"凧":{"ha":0,"x_min":0,"x_max":0,"o":""},"只":{"ha":0,"x_min":0,"x_max":0,"o":""},"叩":{"ha":0,"x_min":0,"x_max":0,"o":""},"但":{"ha":0,"x_min":0,"x_max":0,"o":""},"達":{"ha":0,"x_min":0,"x_max":0,"o":""},"⾠":{"ha":0,"x_min":0,"x_max":0,"o":""},"奪":{"ha":0,"x_min":0,"x_max":0,"o":""},"脱":{"ha":0,"x_min":0,"x_max":0,"o":""},"巽":{"ha":0,"x_min":0,"x_max":0,"o":""},"竪":{"ha":0,"x_min":0,"x_max":0,"o":""},"棚":{"ha":0,"x_min":0,"x_max":0,"o":""},"⾕":{"ha":0,"x_min":0,"x_max":0,"o":""},"狸":{"ha":0,"x_min":0,"x_max":0,"o":""},"鱈":{"ha":0,"x_min":0,"x_max":0,"o":""},"誰":{"ha":0,"x_min":0,"x_max":0,"o":""},"丹":{"ha":0,"x_min":0,"x_max":0,"o":""},"単":{"ha":0,"x_min":0,"x_max":0,"o":""},"嘆":{"ha":0,"x_min":0,"x_max":0,"o":""},"坦":{"ha":0,"x_min":0,"x_max":0,"o":""},"担":{"ha":0,"x_min":0,"x_max":0,"o":""},"探":{"ha":0,"x_min":0,"x_max":0,"o":""},"旦":{"ha":0,"x_min":0,"x_max":0,"o":""},"淡":{"ha":0,"x_min":0,"x_max":0,"o":""},"湛":{"ha":0,"x_min":0,"x_max":0,"o":""},"炭":{"ha":0,"x_min":0,"x_max":0,"o":""},"短":{"ha":0,"x_min":0,"x_max":0,"o":""},"端":{"ha":0,"x_min":0,"x_max":0,"o":""},"箪":{"ha":0,"x_min":0,"x_max":0,"o":""},"綻":{"ha":0,"x_min":0,"x_max":0,"o":""},"耽":{"ha":0,"x_min":0,"x_max":0,"o":""},"胆":{"ha":0,"x_min":0,"x_max":0,"o":""},"蛋":{"ha":0,"x_min":0,"x_max":0,"o":""},"誕":{"ha":0,"x_min":0,"x_max":0,"o":""},"鍛":{"ha":0,"x_min":0,"x_max":0,"o":""},"団":{"ha":0,"x_min":0,"x_max":0,"o":""},"壇":{"ha":0,"x_min":0,"x_max":0,"o":""},"弾":{"ha":0,"x_min":0,"x_max":0,"o":""},"断":{"ha":0,"x_min":0,"x_max":0,"o":""},"暖":{"ha":0,"x_min":0,"x_max":0,"o":""},"檀":{"ha":0,"x_min":0,"x_max":0,"o":""},"段":{"ha":0,"x_min":0,"x_max":0,"o":""},"男":{"ha":0,"x_min":0,"x_max":0,"o":"m 431 1031 l 269 1031 b 260 486 260 674 260 486 l 450 486 b 449 513 450 486 449 496 l 957 513 b 958 486 957 504 957 496 b 1503 496 958 496 1315 496 b 1489 490 1503 496 1503 489 l 981 490 b 979 511 981 497 979 504 z m 1143 422 l 1149 275 l 989 275 b 983 422 988 321 985 369 z m 1332 422 l 1490 422 l 1494 275 l 1329 275 b 1332 422 1331 343 1332 392 z m 1160 61 l 996 61 l 992 207 l 1151 207 z m 1328 207 l 1497 207 b 1503 61 1499 163 1500 113 l 1324 61 z m 1261 -571 b 1565 -546 1261 -571 1399 -565 b 1575 -139 1575 -279 1575 -139 l 1399 -139 b 1400 -150 1399 -139 1399 -143 l 1257 -150 b 1325 -146 1257 -147 1290 -146 b 1326 -182 1364 -146 1326 -147 b NaN NaN 1326 -185 1292 NaN l NaN NaN l NaN NaN l NaN NaN b NaN NaN NaN NaN NaN NaN b NaN NaN NaN NaN NaN NaN l NaN NaN l NaN NaN "},"談":{"ha":0,"x_min":0,"x_max":0,"o":""},"値":{"ha":0,"x_min":0,"x_max":0,"o":""},"知":{"ha":0,"x_min":0,"x_max":0,"o":""},"地":{"ha":0,"x_min":0,"x_max":0,"o":""},"弛":{"ha":0,"x_min":0,"x_max":0,"o":""},"恥":{"ha":0,"x_min":0,"x_max":0,"o":""},"智":{"ha":0,"x_min":0,"x_max":0,"o":""},"池":{"ha":0,"x_min":0,"x_max":0,"o":""},"痴":{"ha":0,"x_min":0,"x_max":0,"o":""},"稚":{"ha":0,"x_min":0,"x_max":0,"o":""},"置":{"ha":0,"x_min":0,"x_max":0,"o":""},"致":{"ha":0,"x_min":0,"x_max":0,"o":""},"蜘":{"ha":0,"x_min":0,"x_max":0,"o":""},"遅":{"ha":0,"x_min":0,"x_max":0,"o":""},"馳":{"ha":0,"x_min":0,"x_max":0,"o":""},"築":{"ha":0,"x_min":0,"x_max":0,"o":""},"畜":{"ha":0,"x_min":0,"x_max":0,"o":""},"⽵":{"ha":0,"x_min":0,"x_max":0,"o":"m 353 733 l 372 733 b 390 -69 374 646 379 343 l 538 -69 b 547 733 546 379 547 651 l 663 733 l 663 801 l 506 801 b 578 1021 535 858 560 931 l 385 1040 b 257 592 350 760 257 592 b 464 733 257 592 368 597 z m 1299 733 l 1299 801 l 1142 801 b 1214 1021 1171 858 1196 931 l 1021 1040 b 893 592 988 760 893 592 b 1101 733 893 592 1004 597 l 1126 733 b 1140 81 1128 657 1132 415 l 1140 15 l 1144 15 l 1144 -17 l 968 -17 b 1217 6 968 -17 1082 -12 b 1226 808 1225 454 1226 726 z "},"筑":{"ha":0,"x_min":0,"x_max":0,"o":""},"蓄":{"ha":0,"x_min":0,"x_max":0,"o":""},"逐":{"ha":0,"x_min":0,"x_max":0,"o":""},"秩":{"ha":0,"x_min":0,"x_max":0,"o":""},"窒":{"ha":0,"x_min":0,"x_max":0,"o":""},"茶":{"ha":0,"x_min":0,"x_max":0,"o":""},"嫡":{"ha":0,"x_min":0,"x_max":0,"o":""},"着":{"ha":0,"x_min":0,"x_max":0,"o":""},"中":{"ha":0,"x_min":0,"x_max":0,"o":"m 1047 286 b 1028 865 1047 286 1043 514 l 896 865 b 894 851 894 861 894 857 l 781 851 b 782 1068 782 996 782 1068 l 606 1068 l 608 851 b 396 583 608 744 622 583 b 57 NaN 410 583 57 NaN l 190 NaN b 192 NaN 192 NaN 192 NaN l 315 NaN b 324 NaN 317 NaN 319 NaN l 469 NaN b 475 NaN 472 NaN 474 NaN l 585 NaN b 583 NaN 583 NaN 583 NaN z m 193 NaN b 200 NaN 197 NaN 200 NaN l 308 NaN b 314 NaN 310 NaN 311 NaN z m 475 NaN b 479 NaN 478 NaN 478 NaN l 592 NaN b 585 NaN 588 NaN 586 NaN z "},"仲":{"ha":0,"x_min":0,"x_max":0,"o":""},"宙":{"ha":0,"x_min":0,"x_max":0,"o":""},"忠":{"ha":0,"x_min":0,"x_max":0,"o":""},"抽":{"ha":0,"x_min":0,"x_max":0,"o":""},"昼":{"ha":0,"x_min":0,"x_max":0,"o":""},"柱":{"ha":0,"x_min":0,"x_max":0,"o":""},"注":{"ha":0,"x_min":0,"x_max":0,"o":""},"⾍":{"ha":0,"x_min":0,"x_max":0,"o":"m 444 843 l 283 843 b 274 363 274 528 274 363 l 464 363 b 463 379 464 363 463 368 l 610 379 b 615 153 611 308 614 232 l 357 140 l 375 -47 b 900 11 375 -47 597 -25 b 929 -74 918 -44 929 -74 l 1100 -19 b 964 317 1100 -19 1049 118 l 818 272 b 850 167 829 233 840 199 l 781 163 b 783 379 782 239 783 313 l 943 379 b 944 363 943 374 944 368 b 954 843 954 678 954 843 l 764 843 b 765 822 764 843 764 836 l 626 822 b 628 1050 628 974 628 1050 l 439 1050 b 442 822 439 1050 439 968 l 285 822 b 283 843 285 829 283 836 z m 443 754 l 447 447 l 300 447 b 288 754 297 517 294 622 z m 626 754 l 767 754 b 779 447 769 685 772 579 l 624 447 b 626 754 625 567 626 669 z "},"衷":{"ha":0,"x_min":0,"x_max":0,"o":""},"酎":{"ha":0,"x_min":0,"x_max":0,"o":""},"鋳":{"ha":0,"x_min":0,"x_max":0,"o":""},"駐":{"ha":0,"x_min":0,"x_max":0,"o":""},"樗":{"ha":0,"x_min":0,"x_max":0,"o":""},"猪":{"ha":0,"x_min":0,"x_max":0,"o":""},"苧":{"ha":0,"x_min":0,"x_max":0,"o":""},"著":{"ha":0,"x_min":0,"x_max":0,"o":""},"貯":{"ha":0,"x_min":0,"x_max":0,"o":""},"丁":{"ha":0,"x_min":0,"x_max":0,"o":""},"兆":{"ha":0,"x_min":0,"x_max":0,"o":""},"凋":{"ha":0,"x_min":0,"x_max":0,"o":""},"喋":{"ha":0,"x_min":0,"x_max":0,"o":""},"寵":{"ha":0,"x_min":0,"x_max":0,"o":""},"帖":{"ha":0,"x_min":0,"x_max":0,"o":""},"帳":{"ha":0,"x_min":0,"x_max":0,"o":""},"庁":{"ha":0,"x_min":0,"x_max":0,"o":""},"弔":{"ha":0,"x_min":0,"x_max":0,"o":""},"張":{"ha":0,"x_min":0,"x_max":0,"o":""},"彫":{"ha":0,"x_min":0,"x_max":0,"o":""},"徴":{"ha":0,"x_min":0,"x_max":0,"o":""},"懲":{"ha":0,"x_min":0,"x_max":0,"o":""},"挑":{"ha":0,"x_min":0,"x_max":0,"o":""},"暢":{"ha":0,"x_min":0,"x_max":0,"o":""},"朝":{"ha":0,"x_min":0,"x_max":0,"o":""},"潮":{"ha":0,"x_min":0,"x_max":0,"o":""},"牒":{"ha":0,"x_min":0,"x_max":0,"o":""},"町":{"ha":0,"x_min":0,"x_max":0,"o":"m 1138 975 l 724 975 b 722 1013 722 988 722 1000 b 722 650 722 879 704 650 b 238 192 560 650 238 665 l 371 192 l 371 208 b 351 438 371 438 354 438 b 615 NaN 628 438 615 851 l 790 NaN b 806 NaN 792 NaN 796 NaN b 963 NaN 806 NaN 810 NaN b 1150 NaN 967 NaN 1150 NaN b 1161 NaN 1158 NaN 1160 NaN z m 329 NaN l 371 NaN b 375 NaN 371 NaN 372 NaN l 326 NaN b 329 NaN 328 NaN 328 NaN z m 553 NaN l 501 NaN b 504 NaN 503 NaN 503 NaN l 557 NaN z m 321 NaN l 325 NaN l 376 NaN l 385 NaN z m 549 NaN l 496 NaN b 500 NaN 499 NaN 500 NaN l 551 NaN b 549 NaN 550 NaN 549 NaN z "},"眺":{"ha":0,"x_min":0,"x_max":0,"o":""},"聴":{"ha":0,"x_min":0,"x_max":0,"o":""},"脹":{"ha":0,"x_min":0,"x_max":0,"o":""},"腸":{"ha":0,"x_min":0,"x_max":0,"o":""},"蝶":{"ha":0,"x_min":0,"x_max":0,"o":""},"調":{"ha":0,"x_min":0,"x_max":0,"o":""},"諜":{"ha":0,"x_min":0,"x_max":0,"o":""},"超":{"ha":0,"x_min":0,"x_max":0,"o":""},"跳":{"ha":0,"x_min":0,"x_max":0,"o":""},"銚":{"ha":0,"x_min":0,"x_max":0,"o":""},"⻑":{"ha":0,"x_min":0,"x_max":0,"o":""},"頂":{"ha":0,"x_min":0,"x_max":0,"o":""},"⿃":{"ha":0,"x_min":0,"x_max":0,"o":""},"勅":{"ha":0,"x_min":0,"x_max":0,"o":""},"直":{"ha":0,"x_min":0,"x_max":0,"o":""},"朕":{"ha":0,"x_min":0,"x_max":0,"o":""},"沈":{"ha":0,"x_min":0,"x_max":0,"o":""},"珍":{"ha":0,"x_min":0,"x_max":0,"o":""},"賃":{"ha":0,"x_min":0,"x_max":0,"o":""},"鎮":{"ha":0,"x_min":0,"x_max":0,"o":""},"陳":{"ha":0,"x_min":0,"x_max":0,"o":""},"津":{"ha":0,"x_min":0,"x_max":0,"o":""},"墜":{"ha":0,"x_min":0,"x_max":0,"o":""},"椎":{"ha":0,"x_min":0,"x_max":0,"o":""},"追":{"ha":0,"x_min":0,"x_max":0,"o":""},"痛":{"ha":0,"x_min":0,"x_max":0,"o":""},"通":{"ha":0,"x_min":0,"x_max":0,"o":""},"塚":{"ha":0,"x_min":0,"x_max":0,"o":""},"栂":{"ha":0,"x_min":0,"x_max":0,"o":""},"掴":{"ha":0,"x_min":0,"x_max":0,"o":""},"槻":{"ha":0,"x_min":0,"x_max":0,"o":""},"佃":{"ha":0,"x_min":0,"x_max":0,"o":""},"漬":{"ha":0,"x_min":0,"x_max":0,"o":""},"柘":{"ha":0,"x_min":0,"x_max":0,"o":""},"蔦":{"ha":0,"x_min":0,"x_max":0,"o":""},"綴":{"ha":0,"x_min":0,"x_max":0,"o":""},"鍔":{"ha":0,"x_min":0,"x_max":0,"o":""},"椿":{"ha":0,"x_min":0,"x_max":0,"o":""},"潰":{"ha":0,"x_min":0,"x_max":0,"o":""},"坪":{"ha":0,"x_min":0,"x_max":0,"o":""},"壷":{"ha":0,"x_min":0,"x_max":0,"o":""},"嬬":{"ha":0,"x_min":0,"x_max":0,"o":""},"紬":{"ha":0,"x_min":0,"x_max":0,"o":""},"⽖":{"ha":0,"x_min":0,"x_max":0,"o":""},"吊":{"ha":0,"x_min":0,"x_max":0,"o":""},"釣":{"ha":0,"x_min":0,"x_max":0,"o":""},"鶴":{"ha":0,"x_min":0,"x_max":0,"o":""},"亭":{"ha":0,"x_min":0,"x_max":0,"o":""},"低":{"ha":0,"x_min":0,"x_max":0,"o":""},"停":{"ha":0,"x_min":0,"x_max":0,"o":""},"偵":{"ha":0,"x_min":0,"x_max":0,"o":""},"剃":{"ha":0,"x_min":0,"x_max":0,"o":""},"貞":{"ha":0,"x_min":0,"x_max":0,"o":""},"呈":{"ha":0,"x_min":0,"x_max":0,"o":""},"堤":{"ha":0,"x_min":0,"x_max":0,"o":""},"定":{"ha":0,"x_min":0,"x_max":0,"o":""},"帝":{"ha":0,"x_min":0,"x_max":0,"o":""},"底":{"ha":0,"x_min":0,"x_max":0,"o":""},"庭":{"ha":0,"x_min":0,"x_max":0,"o":""},"廷":{"ha":0,"x_min":0,"x_max":0,"o":""},"弟":{"ha":0,"x_min":0,"x_max":0,"o":""},"悌":{"ha":0,"x_min":0,"x_max":0,"o":""},"抵":{"ha":0,"x_min":0,"x_max":0,"o":""},"提":{"ha":0,"x_min":0,"x_max":0,"o":""},"梯":{"ha":0,"x_min":0,"x_max":0,"o":""},"汀":{"ha":0,"x_min":0,"x_max":0,"o":""},"碇":{"ha":0,"x_min":0,"x_max":0,"o":""},"禎":{"ha":0,"x_min":0,"x_max":0,"o":""},"程":{"ha":0,"x_min":0,"x_max":0,"o":""},"締":{"ha":0,"x_min":0,"x_max":0,"o":""},"艇":{"ha":0,"x_min":0,"x_max":0,"o":""},"訂":{"ha":0,"x_min":0,"x_max":0,"o":""},"諦":{"ha":0,"x_min":0,"x_max":0,"o":""},"蹄":{"ha":0,"x_min":0,"x_max":0,"o":""},"逓":{"ha":0,"x_min":0,"x_max":0,"o":""},"邸":{"ha":0,"x_min":0,"x_max":0,"o":""},"釘":{"ha":0,"x_min":0,"x_max":0,"o":""},"⿍":{"ha":0,"x_min":0,"x_max":0,"o":""},"泥":{"ha":0,"x_min":0,"x_max":0,"o":""},"摘":{"ha":0,"x_min":0,"x_max":0,"o":""},"敵":{"ha":0,"x_min":0,"x_max":0,"o":""},"滴":{"ha":0,"x_min":0,"x_max":0,"o":""},"的":{"ha":0,"x_min":0,"x_max":0,"o":""},"笛":{"ha":0,"x_min":0,"x_max":0,"o":""},"適":{"ha":0,"x_min":0,"x_max":0,"o":""},"鏑":{"ha":0,"x_min":0,"x_max":0,"o":""},"哲":{"ha":0,"x_min":0,"x_max":0,"o":""},"徹":{"ha":0,"x_min":0,"x_max":0,"o":""},"撤":{"ha":0,"x_min":0,"x_max":0,"o":""},"轍":{"ha":0,"x_min":0,"x_max":0,"o":""},"迭":{"ha":0,"x_min":0,"x_max":0,"o":""},"鉄":{"ha":0,"x_min":0,"x_max":0,"o":""},"典":{"ha":0,"x_min":0,"x_max":0,"o":""},"填":{"ha":0,"x_min":0,"x_max":0,"o":""},"天":{"ha":0,"x_min":0,"x_max":0,"o":"m 243 936 l 810 936 l 810 1260 b 782 917 807 1131 797 1017 l 528 917 l 528 849 l 769 849 b 669 521 743 711 707 603 b 496 278 586 338 496 278 b 767 415 496 278 635 271 b 963 849 843 500 918 633 l 1319 849 l 1319 917 l 1086 917 b 1115 1260 1103 1015 1113 1129 l 1472 1260 l 1472 1328 l 708 1328 z m 1197 799 b 1260 517 1197 799 1164 675 b 1507 278 1307 442 1383 358 l 1611 442 b 1338 622 1493 492 1403 560 "},"展":{"ha":0,"x_min":0,"x_max":0,"o":""},"店":{"ha":0,"x_min":0,"x_max":0,"o":""},"添":{"ha":0,"x_min":0,"x_max":0,"o":""},"纏":{"ha":0,"x_min":0,"x_max":0,"o":""},"甜":{"ha":0,"x_min":0,"x_max":0,"o":""},"貼":{"ha":0,"x_min":0,"x_max":0,"o":""},"転":{"ha":0,"x_min":0,"x_max":0,"o":""},"顛":{"ha":0,"x_min":0,"x_max":0,"o":""},"点":{"ha":0,"x_min":0,"x_max":0,"o":""},"伝":{"ha":0,"x_min":0,"x_max":0,"o":""},"殿":{"ha":0,"x_min":0,"x_max":0,"o":""},"澱":{"ha":0,"x_min":0,"x_max":0,"o":""},"⽥":{"ha":0,"x_min":0,"x_max":0,"o":"m 1117 -76 b 1097 1004 1117 -76 1113 363 b 1097 357 1097 857 1079 357 b 482 -269 921 357 482 372 l 628 -269 b 629 -254 628 -264 628 -258 l 1129 -254 l 1129 -269 z m 638 725 l 797 725 b 803 304 797 657 800 508 l 635 304 b 638 725 638 501 638 643 z m 972 725 l 1139 725 b 1133 304 1136 567 1135 425 l 968 304 b 972 725 971 518 971 660 z m 629 -185 b 635 236 632 -26 633 114 l 804 236 b 814 -185 807 113 810 -29 z m 963 -185 b 968 236 965 -25 967 115 l 1133 236 b 1129 -185 1131 38 1131 -104 z "},"電":{"ha":0,"x_min":0,"x_max":0,"o":""},"吐":{"ha":0,"x_min":0,"x_max":0,"o":""},"塗":{"ha":0,"x_min":0,"x_max":0,"o":""},"妬":{"ha":0,"x_min":0,"x_max":0,"o":""},"徒":{"ha":0,"x_min":0,"x_max":0,"o":""},"⽃":{"ha":0,"x_min":0,"x_max":0,"o":""},"杜":{"ha":0,"x_min":0,"x_max":0,"o":""},"渡":{"ha":0,"x_min":0,"x_max":0,"o":""},"登":{"ha":0,"x_min":0,"x_max":0,"o":""},"菟":{"ha":0,"x_min":0,"x_max":0,"o":""},"途":{"ha":0,"x_min":0,"x_max":0,"o":""},"都":{"ha":0,"x_min":0,"x_max":0,"o":""},"鍍":{"ha":0,"x_min":0,"x_max":0,"o":""},"砥":{"ha":0,"x_min":0,"x_max":0,"o":""},"砺":{"ha":0,"x_min":0,"x_max":0,"o":""},"努":{"ha":0,"x_min":0,"x_max":0,"o":""},"度":{"ha":0,"x_min":0,"x_max":0,"o":""},"⼟":{"ha":0,"x_min":0,"x_max":0,"o":"m 1131 -19 l 1131 49 l 890 49 b 897 596 893 265 896 449 l 747 596 b 1133 599 747 599 1003 599 b 892 460 1133 599 1135 456 l 628 460 l 628 392 l 893 392 l 904 -156 l 544 -156 l 544 -224 z "},"奴":{"ha":0,"x_min":0,"x_max":0,"o":""},"怒":{"ha":0,"x_min":0,"x_max":0,"o":""},"倒":{"ha":0,"x_min":0,"x_max":0,"o":""},"党":{"ha":0,"x_min":0,"x_max":0,"o":""},"冬":{"ha":0,"x_min":0,"x_max":0,"o":""},"凍":{"ha":0,"x_min":0,"x_max":0,"o":""},"⼑":{"ha":0,"x_min":0,"x_max":0,"o":""},"唐":{"ha":0,"x_min":0,"x_max":0,"o":""},"塔":{"ha":0,"x_min":0,"x_max":0,"o":""},"塘":{"ha":0,"x_min":0,"x_max":0,"o":""},"套":{"ha":0,"x_min":0,"x_max":0,"o":""},"宕":{"ha":0,"x_min":0,"x_max":0,"o":""},"島":{"ha":0,"x_min":0,"x_max":0,"o":""},"嶋":{"ha":0,"x_min":0,"x_max":0,"o":""},"悼":{"ha":0,"x_min":0,"x_max":0,"o":""},"投":{"ha":0,"x_min":0,"x_max":0,"o":""},"搭":{"ha":0,"x_min":0,"x_max":0,"o":""},"東":{"ha":0,"x_min":0,"x_max":0,"o":""},"桃":{"ha":0,"x_min":0,"x_max":0,"o":""},"梼":{"ha":0,"x_min":0,"x_max":0,"o":""},"棟":{"ha":0,"x_min":0,"x_max":0,"o":""},"盗":{"ha":0,"x_min":0,"x_max":0,"o":""},"淘":{"ha":0,"x_min":0,"x_max":0,"o":""},"湯":{"ha":0,"x_min":0,"x_max":0,"o":""},"涛":{"ha":0,"x_min":0,"x_max":0,"o":""},"灯":{"ha":0,"x_min":0,"x_max":0,"o":""},"燈":{"ha":0,"x_min":0,"x_max":0,"o":""},"当":{"ha":0,"x_min":0,"x_max":0,"o":""},"痘":{"ha":0,"x_min":0,"x_max":0,"o":""},"祷":{"ha":0,"x_min":0,"x_max":0,"o":""},"等":{"ha":0,"x_min":0,"x_max":0,"o":""},"答":{"ha":0,"x_min":0,"x_max":0,"o":""},"筒":{"ha":0,"x_min":0,"x_max":0,"o":""},"糖":{"ha":0,"x_min":0,"x_max":0,"o":""},"統":{"ha":0,"x_min":0,"x_max":0,"o":""},"到":{"ha":0,"x_min":0,"x_max":0,"o":""},"董":{"ha":0,"x_min":0,"x_max":0,"o":""},"蕩":{"ha":0,"x_min":0,"x_max":0,"o":""},"藤":{"ha":0,"x_min":0,"x_max":0,"o":""},"討":{"ha":0,"x_min":0,"x_max":0,"o":""},"謄":{"ha":0,"x_min":0,"x_max":0,"o":""},"⾖":{"ha":0,"x_min":0,"x_max":0,"o":""},"踏":{"ha":0,"x_min":0,"x_max":0,"o":""},"逃":{"ha":0,"x_min":0,"x_max":0,"o":""},"透":{"ha":0,"x_min":0,"x_max":0,"o":""},"鐙":{"ha":0,"x_min":0,"x_max":0,"o":""},"陶":{"ha":0,"x_min":0,"x_max":0,"o":""},"頭":{"ha":0,"x_min":0,"x_max":0,"o":""},"騰":{"ha":0,"x_min":0,"x_max":0,"o":""},"闘":{"ha":0,"x_min":0,"x_max":0,"o":""},"働":{"ha":0,"x_min":0,"x_max":0,"o":""},"動":{"ha":0,"x_min":0,"x_max":0,"o":""},"同":{"ha":0,"x_min":0,"x_max":0,"o":""},"堂":{"ha":0,"x_min":0,"x_max":0,"o":""},"導":{"ha":0,"x_min":0,"x_max":0,"o":""},"憧":{"ha":0,"x_min":0,"x_max":0,"o":""},"撞":{"ha":0,"x_min":0,"x_max":0,"o":""},"洞":{"ha":0,"x_min":0,"x_max":0,"o":""},"瞳":{"ha":0,"x_min":0,"x_max":0,"o":""},"童":{"ha":0,"x_min":0,"x_max":0,"o":""},"胴":{"ha":0,"x_min":0,"x_max":0,"o":""},"萄":{"ha":0,"x_min":0,"x_max":0,"o":""},"道":{"ha":0,"x_min":0,"x_max":0,"o":""},"銅":{"ha":0,"x_min":0,"x_max":0,"o":""},"峠":{"ha":0,"x_min":0,"x_max":0,"o":""},"鴇":{"ha":0,"x_min":0,"x_max":0,"o":""},"匿":{"ha":0,"x_min":0,"x_max":0,"o":""},"得":{"ha":0,"x_min":0,"x_max":0,"o":""},"徳":{"ha":0,"x_min":0,"x_max":0,"o":""},"涜":{"ha":0,"x_min":0,"x_max":0,"o":""},"特":{"ha":0,"x_min":0,"x_max":0,"o":""},"督":{"ha":0,"x_min":0,"x_max":0,"o":""},"禿":{"ha":0,"x_min":0,"x_max":0,"o":""},"篤":{"ha":0,"x_min":0,"x_max":0,"o":""},"毒":{"ha":0,"x_min":0,"x_max":0,"o":""},"独":{"ha":0,"x_min":0,"x_max":0,"o":""},"読":{"ha":0,"x_min":0,"x_max":0,"o":""},"栃":{"ha":0,"x_min":0,"x_max":0,"o":""},"橡":{"ha":0,"x_min":0,"x_max":0,"o":""},"凸":{"ha":0,"x_min":0,"x_max":0,"o":""},"突":{"ha":0,"x_min":0,"x_max":0,"o":""},"椴":{"ha":0,"x_min":0,"x_max":0,"o":""},"届":{"ha":0,"x_min":0,"x_max":0,"o":""},"鳶":{"ha":0,"x_min":0,"x_max":0,"o":""},"苫":{"ha":0,"x_min":0,"x_max":0,"o":""},"寅":{"ha":0,"x_min":0,"x_max":0,"o":""},"⾣":{"ha":0,"x_min":0,"x_max":0,"o":""},"噸":{"ha":0,"x_min":0,"x_max":0,"o":""},"屯":{"ha":0,"x_min":0,"x_max":0,"o":""},"惇":{"ha":0,"x_min":0,"x_max":0,"o":""},"敦":{"ha":0,"x_min":0,"x_max":0,"o":""},"沌":{"ha":0,"x_min":0,"x_max":0,"o":""},"豚":{"ha":0,"x_min":0,"x_max":0,"o":""},"頓":{"ha":0,"x_min":0,"x_max":0,"o":""},"呑":{"ha":0,"x_min":0,"x_max":0,"o":""},"曇":{"ha":0,"x_min":0,"x_max":0,"o":""},"鈍":{"ha":0,"x_min":0,"x_max":0,"o":""},"奈":{"ha":0,"x_min":0,"x_max":0,"o":""},"那":{"ha":0,"x_min":0,"x_max":0,"o":""},"内":{"ha":0,"x_min":0,"x_max":0,"o":""},"乍":{"ha":0,"x_min":0,"x_max":0,"o":""},"凪":{"ha":0,"x_min":0,"x_max":0,"o":""},"薙":{"ha":0,"x_min":0,"x_max":0,"o":""},"捺":{"ha":0,"x_min":0,"x_max":0,"o":""},"鍋":{"ha":0,"x_min":0,"x_max":0,"o":""},"馴":{"ha":0,"x_min":0,"x_max":0,"o":""},"縄":{"ha":0,"x_min":0,"x_max":0,"o":""},"畷":{"ha":0,"x_min":0,"x_max":0,"o":""},"南":{"ha":0,"x_min":0,"x_max":0,"o":""},"楠":{"ha":0,"x_min":0,"x_max":0,"o":""},"軟":{"ha":0,"x_min":0,"x_max":0,"o":""},"難":{"ha":0,"x_min":0,"x_max":0,"o":""},"汝":{"ha":0,"x_min":0,"x_max":0,"o":""},"⼆":{"ha":0,"x_min":0,"x_max":0,"o":"m 1103 807 l 1103 875 l 396 875 l 396 807 z m 326 58 l 1283 58 l 1283 126 l 438 126 z "},"尼":{"ha":0,"x_min":0,"x_max":0,"o":""},"弐":{"ha":0,"x_min":0,"x_max":0,"o":""},"迩":{"ha":0,"x_min":0,"x_max":0,"o":""},"匂":{"ha":0,"x_min":0,"x_max":0,"o":""},"賑":{"ha":0,"x_min":0,"x_max":0,"o":""},"⾁":{"ha":0,"x_min":0,"x_max":0,"o":""},"虹":{"ha":0,"x_min":0,"x_max":0,"o":""},"廿":{"ha":0,"x_min":0,"x_max":0,"o":""},"⽇":{"ha":0,"x_min":0,"x_max":0,"o":"m 875 1028 l 875 1006 l 522 1006 l 522 1028 l 332 1028 b 351 -69 332 1028 336 583 l 511 -69 b 513 -53 513 -64 513 -58 b 481 1397 513 300 496 746 z m 314 932 l -36 932 b -35 1306 -35 1104 -35 1229 l 318 1306 z m 310 385 l -43 385 b -37 864 -40 569 -39 729 l 314 864 b 310 385 311 635 311 475 z "},"乳":{"ha":0,"x_min":0,"x_max":0,"o":""},"⼊":{"ha":0,"x_min":0,"x_max":0,"o":"m 790 1006 l 1386 1006 l 1386 646 l 1318 646 l 1318 811 b 1413 285 1322 589 1360 417 b 1647 -40 1475 126 1563 25 b 1944 -160 1799 -157 1944 -160 b 1614 290 1944 -160 1742 -37 b 1513 879 1556 440 1513 633 z m 893 -4 l 1010 -160 b 1265 131 1138 -54 1217 44 b 1339 431 1367 310 1339 431 b 1206 254 1339 431 1300 357 b 893 -4 1136 178 1033 85 z "},"如":{"ha":0,"x_min":0,"x_max":0,"o":""},"尿":{"ha":0,"x_min":0,"x_max":0,"o":""},"韮":{"ha":0,"x_min":0,"x_max":0,"o":""},"任":{"ha":0,"x_min":0,"x_max":0,"o":""},"妊":{"ha":0,"x_min":0,"x_max":0,"o":""},"忍":{"ha":0,"x_min":0,"x_max":0,"o":""},"認":{"ha":0,"x_min":0,"x_max":0,"o":""},"濡":{"ha":0,"x_min":0,"x_max":0,"o":""},"祢":{"ha":0,"x_min":0,"x_max":0,"o":""},"寧":{"ha":0,"x_min":0,"x_max":0,"o":""},"葱":{"ha":0,"x_min":0,"x_max":0,"o":""},"猫":{"ha":0,"x_min":0,"x_max":0,"o":""},"熱":{"ha":0,"x_min":0,"x_max":0,"o":""},"年":{"ha":0,"x_min":0,"x_max":0,"o":"m 1076 939 l 597 939 b 647 1058 615 974 632 1013 l 471 1124 b 258 694 407 872 258 694 b 556 871 258 694 425 689 l 710 871 b 714 653 711 831 711 756 b 393 374 714 361 585 374 l 288 374 l 288 304 l 675 304 l 683 25 l 843 25 b 847 304 846 126 847 219 l 665 304 b 668 557 667 400 668 483 l 886 557 l 886 844 l 954 844 z m 372 238 b 379 490 376 351 379 436 l 383 238 z "},"念":{"ha":0,"x_min":0,"x_max":0,"o":""},"捻":{"ha":0,"x_min":0,"x_max":0,"o":""},"撚":{"ha":0,"x_min":0,"x_max":0,"o":""},"燃":{"ha":0,"x_min":0,"x_max":0,"o":""},"粘":{"ha":0,"x_min":0,"x_max":0,"o":""},"乃":{"ha":0,"x_min":0,"x_max":0,"o":""},"廼":{"ha":0,"x_min":0,"x_max":0,"o":""},"之":{"ha":0,"x_min":0,"x_max":0,"o":""},"埜":{"ha":0,"x_min":0,"x_max":0,"o":""},"嚢":{"ha":0,"x_min":0,"x_max":0,"o":""},"悩":{"ha":0,"x_min":0,"x_max":0,"o":""},"濃":{"ha":0,"x_min":0,"x_max":0,"o":""},"納":{"ha":0,"x_min":0,"x_max":0,"o":""},"能":{"ha":0,"x_min":0,"x_max":0,"o":""},"脳":{"ha":0,"x_min":0,"x_max":0,"o":""},"膿":{"ha":0,"x_min":0,"x_max":0,"o":""},"農":{"ha":0,"x_min":0,"x_max":0,"o":""},"覗":{"ha":0,"x_min":0,"x_max":0,"o":""},"蚤":{"ha":0,"x_min":0,"x_max":0,"o":""},"巴":{"ha":0,"x_min":0,"x_max":0,"o":""},"把":{"ha":0,"x_min":0,"x_max":0,"o":""},"播":{"ha":0,"x_min":0,"x_max":0,"o":""},"覇":{"ha":0,"x_min":0,"x_max":0,"o":""},"杷":{"ha":0,"x_min":0,"x_max":0,"o":""},"波":{"ha":0,"x_min":0,"x_max":0,"o":""},"派":{"ha":0,"x_min":0,"x_max":0,"o":""},"琶":{"ha":0,"x_min":0,"x_max":0,"o":""},"破":{"ha":0,"x_min":0,"x_max":0,"o":""},"婆":{"ha":0,"x_min":0,"x_max":0,"o":""},"罵":{"ha":0,"x_min":0,"x_max":0,"o":""},"芭":{"ha":0,"x_min":0,"x_max":0,"o":""},"⾺":{"ha":0,"x_min":0,"x_max":0,"o":""},"俳":{"ha":0,"x_min":0,"x_max":0,"o":""},"廃":{"ha":0,"x_min":0,"x_max":0,"o":""},"拝":{"ha":0,"x_min":0,"x_max":0,"o":""},"排":{"ha":0,"x_min":0,"x_max":0,"o":""},"敗":{"ha":0,"x_min":0,"x_max":0,"o":""},"杯":{"ha":0,"x_min":0,"x_max":0,"o":""},"盃":{"ha":0,"x_min":0,"x_max":0,"o":""},"背":{"ha":0,"x_min":0,"x_max":0,"o":""},"肺":{"ha":0,"x_min":0,"x_max":0,"o":""},"輩":{"ha":0,"x_min":0,"x_max":0,"o":""},"配":{"ha":0,"x_min":0,"x_max":0,"o":""},"倍":{"ha":0,"x_min":0,"x_max":0,"o":""},"培":{"ha":0,"x_min":0,"x_max":0,"o":""},"媒":{"ha":0,"x_min":0,"x_max":0,"o":""},"梅":{"ha":0,"x_min":0,"x_max":0,"o":""},"楳":{"ha":0,"x_min":0,"x_max":0,"o":""},"煤":{"ha":0,"x_min":0,"x_max":0,"o":""},"狽":{"ha":0,"x_min":0,"x_max":0,"o":""},"買":{"ha":0,"x_min":0,"x_max":0,"o":""},"売":{"ha":0,"x_min":0,"x_max":0,"o":""},"賠":{"ha":0,"x_min":0,"x_max":0,"o":""},"陪":{"ha":0,"x_min":0,"x_max":0,"o":""},"蝿":{"ha":0,"x_min":0,"x_max":0,"o":""},"矧":{"ha":0,"x_min":0,"x_max":0,"o":""},"萩":{"ha":0,"x_min":0,"x_max":0,"o":""},"伯":{"ha":0,"x_min":0,"x_max":0,"o":""},"剥":{"ha":0,"x_min":0,"x_max":0,"o":""},"博":{"ha":0,"x_min":0,"x_max":0,"o":""},"拍":{"ha":0,"x_min":0,"x_max":0,"o":""},"柏":{"ha":0,"x_min":0,"x_max":0,"o":""},"泊":{"ha":0,"x_min":0,"x_max":0,"o":""},"⽩":{"ha":0,"x_min":0,"x_max":0,"o":"m 513 -69 l 513 -53 l 867 -53 l 867 -69 l 1057 -69 b 1038 868 1057 -69 1053 311 l 876 868 l 876 849 l 590 849 b 728 1031 646 874 703 925 l 563 1069 b 479 868 539 974 504 907 b -458 736 479 722 99 736 z m -287 1586 l 65 1586 l 61 1297 l -289 1297 b -287 1586 -287 1426 -287 1524 z m -290 1229 l 61 1229 b 57 821 58 1038 57 901 l -296 821 b -290 1229 -293 978 -292 1114 z "},"箔":{"ha":0,"x_min":0,"x_max":0,"o":""},"粕":{"ha":0,"x_min":0,"x_max":0,"o":""},"舶":{"ha":0,"x_min":0,"x_max":0,"o":""},"薄":{"ha":0,"x_min":0,"x_max":0,"o":""},"迫":{"ha":0,"x_min":0,"x_max":0,"o":""},"曝":{"ha":0,"x_min":0,"x_max":0,"o":""},"漠":{"ha":0,"x_min":0,"x_max":0,"o":""},"爆":{"ha":0,"x_min":0,"x_max":0,"o":""},"縛":{"ha":0,"x_min":0,"x_max":0,"o":""},"莫":{"ha":0,"x_min":0,"x_max":0,"o":""},"⻨":{"ha":0,"x_min":0,"x_max":0,"o":""},"函":{"ha":0,"x_min":0,"x_max":0,"o":""},"箱":{"ha":0,"x_min":0,"x_max":0,"o":""},"硲":{"ha":0,"x_min":0,"x_max":0,"o":""},"肇":{"ha":0,"x_min":0,"x_max":0,"o":""},"筈":{"ha":0,"x_min":0,"x_max":0,"o":""},"櫨":{"ha":0,"x_min":0,"x_max":0,"o":""},"幡":{"ha":0,"x_min":0,"x_max":0,"o":""},"肌":{"ha":0,"x_min":0,"x_max":0,"o":""},"畑":{"ha":0,"x_min":0,"x_max":0,"o":""},"畠":{"ha":0,"x_min":0,"x_max":0,"o":""},"⼋":{"ha":0,"x_min":0,"x_max":0,"o":"m 1206 -33 b 1408 1001 1592 -33 1408 174 b 1531 546 1408 729 1422 546 b 1690 NaN 1533 546 1690 556 b 2064 NaN 1733 NaN 2064 NaN z m 1060 NaN b 2138 NaN 1060 NaN 1439 NaN b 1324 NaN 1508 NaN 1324 NaN z "},"鉢":{"ha":0,"x_min":0,"x_max":0,"o":""},"溌":{"ha":0,"x_min":0,"x_max":0,"o":""},"発":{"ha":0,"x_min":0,"x_max":0,"o":""},"醗":{"ha":0,"x_min":0,"x_max":0,"o":""},"髪":{"ha":0,"x_min":0,"x_max":0,"o":""},"伐":{"ha":0,"x_min":0,"x_max":0,"o":""},"罰":{"ha":0,"x_min":0,"x_max":0,"o":""},"抜":{"ha":0,"x_min":0,"x_max":0,"o":""},"筏":{"ha":0,"x_min":0,"x_max":0,"o":""},"閥":{"ha":0,"x_min":0,"x_max":0,"o":""},"鳩":{"ha":0,"x_min":0,"x_max":0,"o":""},"噺":{"ha":0,"x_min":0,"x_max":0,"o":""},"塙":{"ha":0,"x_min":0,"x_max":0,"o":""},"蛤":{"ha":0,"x_min":0,"x_max":0,"o":""},"隼":{"ha":0,"x_min":0,"x_max":0,"o":""},"伴":{"ha":0,"x_min":0,"x_max":0,"o":""},"判":{"ha":0,"x_min":0,"x_max":0,"o":""},"半":{"ha":0,"x_min":0,"x_max":0,"o":""},"反":{"ha":0,"x_min":0,"x_max":0,"o":""},"帆":{"ha":0,"x_min":0,"x_max":0,"o":""},"搬":{"ha":0,"x_min":0,"x_max":0,"o":""},"斑":{"ha":0,"x_min":0,"x_max":0,"o":""},"板":{"ha":0,"x_min":0,"x_max":0,"o":""},"氾":{"ha":0,"x_min":0,"x_max":0,"o":""},"汎":{"ha":0,"x_min":0,"x_max":0,"o":""},"版":{"ha":0,"x_min":0,"x_max":0,"o":""},"犯":{"ha":0,"x_min":0,"x_max":0,"o":""},"班":{"ha":0,"x_min":0,"x_max":0,"o":""},"畔":{"ha":0,"x_min":0,"x_max":0,"o":""},"繁":{"ha":0,"x_min":0,"x_max":0,"o":""},"般":{"ha":0,"x_min":0,"x_max":0,"o":""},"藩":{"ha":0,"x_min":0,"x_max":0,"o":""},"販":{"ha":0,"x_min":0,"x_max":0,"o":""},"範":{"ha":0,"x_min":0,"x_max":0,"o":""},"⾤":{"ha":0,"x_min":0,"x_max":0,"o":""},"煩":{"ha":0,"x_min":0,"x_max":0,"o":""},"頒":{"ha":0,"x_min":0,"x_max":0,"o":""},"飯":{"ha":0,"x_min":0,"x_max":0,"o":""},"晩":{"ha":0,"x_min":0,"x_max":0,"o":""},"番":{"ha":0,"x_min":0,"x_max":0,"o":""},"盤":{"ha":0,"x_min":0,"x_max":0,"o":""},"磐":{"ha":0,"x_min":0,"x_max":0,"o":""},"蕃":{"ha":0,"x_min":0,"x_max":0,"o":""},"蛮":{"ha":0,"x_min":0,"x_max":0,"o":""},"匪":{"ha":0,"x_min":0,"x_max":0,"o":""},"卑":{"ha":0,"x_min":0,"x_max":0,"o":""},"否":{"ha":0,"x_min":0,"x_max":0,"o":""},"妃":{"ha":0,"x_min":0,"x_max":0,"o":""},"庇":{"ha":0,"x_min":0,"x_max":0,"o":""},"彼":{"ha":0,"x_min":0,"x_max":0,"o":""},"悲":{"ha":0,"x_min":0,"x_max":0,"o":""},"扉":{"ha":0,"x_min":0,"x_max":0,"o":""},"批":{"ha":0,"x_min":0,"x_max":0,"o":""},"披":{"ha":0,"x_min":0,"x_max":0,"o":""},"斐":{"ha":0,"x_min":0,"x_max":0,"o":""},"⽐":{"ha":0,"x_min":0,"x_max":0,"o":""},"泌":{"ha":0,"x_min":0,"x_max":0,"o":""},"疲":{"ha":0,"x_min":0,"x_max":0,"o":""},"⽪":{"ha":0,"x_min":0,"x_max":0,"o":""},"碑":{"ha":0,"x_min":0,"x_max":0,"o":""},"秘":{"ha":0,"x_min":0,"x_max":0,"o":""},"緋":{"ha":0,"x_min":0,"x_max":0,"o":""},"罷":{"ha":0,"x_min":0,"x_max":0,"o":""},"肥":{"ha":0,"x_min":0,"x_max":0,"o":""},"被":{"ha":0,"x_min":0,"x_max":0,"o":""},"費":{"ha":0,"x_min":0,"x_max":0,"o":""},"避":{"ha":0,"x_min":0,"x_max":0,"o":""},"⾮":{"ha":0,"x_min":0,"x_max":0,"o":""},"⾶":{"ha":0,"x_min":0,"x_max":0,"o":""},"簸":{"ha":0,"x_min":0,"x_max":0,"o":""},"備":{"ha":0,"x_min":0,"x_max":0,"o":""},"尾":{"ha":0,"x_min":0,"x_max":0,"o":""},"微":{"ha":0,"x_min":0,"x_max":0,"o":""},"枇":{"ha":0,"x_min":0,"x_max":0,"o":""},"毘":{"ha":0,"x_min":0,"x_max":0,"o":""},"琵":{"ha":0,"x_min":0,"x_max":0,"o":""},"眉":{"ha":0,"x_min":0,"x_max":0,"o":""},"美":{"ha":0,"x_min":0,"x_max":0,"o":""},"⿐":{"ha":0,"x_min":0,"x_max":0,"o":""},"柊":{"ha":0,"x_min":0,"x_max":0,"o":""},"匹":{"ha":0,"x_min":0,"x_max":0,"o":""},"⽦":{"ha":0,"x_min":0,"x_max":0,"o":""},"髭":{"ha":0,"x_min":0,"x_max":0,"o":""},"彦":{"ha":0,"x_min":0,"x_max":0,"o":""},"膝":{"ha":0,"x_min":0,"x_max":0,"o":""},"菱":{"ha":0,"x_min":0,"x_max":0,"o":""},"肘":{"ha":0,"x_min":0,"x_max":0,"o":""},"弼":{"ha":0,"x_min":0,"x_max":0,"o":""},"必":{"ha":0,"x_min":0,"x_max":0,"o":""},"畢":{"ha":0,"x_min":0,"x_max":0,"o":""},"筆":{"ha":0,"x_min":0,"x_max":0,"o":""},"桧":{"ha":0,"x_min":0,"x_max":0,"o":""},"姫":{"ha":0,"x_min":0,"x_max":0,"o":""},"媛":{"ha":0,"x_min":0,"x_max":0,"o":""},"紐":{"ha":0,"x_min":0,"x_max":0,"o":""},"百":{"ha":0,"x_min":0,"x_max":0,"o":"m 503 744 b -311 589 503 575 172 589 l -150 589 l -150 606 l 204 606 l 204 589 l 393 589 b 375 1403 393 589 390 919 l 214 1403 l 214 1385 l -61 1385 b 68 1588 -8 1417 46 1476 l 482 1588 l 482 1656 l -306 1656 l -306 1588 l 8 1588 b -49 1403 -6 1508 -29 1444 z m 324 1317 l 319 1082 l -31 1082 b -29 1317 -29 1185 -29 1264 z m 315 674 l -37 674 b -32 1013 -35 804 -33 917 l 319 1013 b 315 674 317 857 315 744 z "},"俵":{"ha":0,"x_min":0,"x_max":0,"o":""},"彪":{"ha":0,"x_min":0,"x_max":0,"o":""},"標":{"ha":0,"x_min":0,"x_max":0,"o":""},"氷":{"ha":0,"x_min":0,"x_max":0,"o":""},"漂":{"ha":0,"x_min":0,"x_max":0,"o":""},"瓢":{"ha":0,"x_min":0,"x_max":0,"o":""},"票":{"ha":0,"x_min":0,"x_max":0,"o":""},"表":{"ha":0,"x_min":0,"x_max":0,"o":""},"評":{"ha":0,"x_min":0,"x_max":0,"o":""},"描":{"ha":0,"x_min":0,"x_max":0,"o":""},"病":{"ha":0,"x_min":0,"x_max":0,"o":""},"秒":{"ha":0,"x_min":0,"x_max":0,"o":""},"苗":{"ha":0,"x_min":0,"x_max":0,"o":""},"錨":{"ha":0,"x_min":0,"x_max":0,"o":""},"鋲":{"ha":0,"x_min":0,"x_max":0,"o":""},"蒜":{"ha":0,"x_min":0,"x_max":0,"o":""},"蛭":{"ha":0,"x_min":0,"x_max":0,"o":""},"鰭":{"ha":0,"x_min":0,"x_max":0,"o":""},"品":{"ha":0,"x_min":0,"x_max":0,"o":""},"彬":{"ha":0,"x_min":0,"x_max":0,"o":""},"斌":{"ha":0,"x_min":0,"x_max":0,"o":""},"浜":{"ha":0,"x_min":0,"x_max":0,"o":""},"貧":{"ha":0,"x_min":0,"x_max":0,"o":""},"賓":{"ha":0,"x_min":0,"x_max":0,"o":""},"頻":{"ha":0,"x_min":0,"x_max":0,"o":""},"敏":{"ha":0,"x_min":0,"x_max":0,"o":""},"瓶":{"ha":0,"x_min":0,"x_max":0,"o":""},"不":{"ha":0,"x_min":0,"x_max":0,"o":""},"付":{"ha":0,"x_min":0,"x_max":0,"o":""},"埠":{"ha":0,"x_min":0,"x_max":0,"o":""},"夫":{"ha":0,"x_min":0,"x_max":0,"o":""},"婦":{"ha":0,"x_min":0,"x_max":0,"o":""},"富":{"ha":0,"x_min":0,"x_max":0,"o":""},"冨":{"ha":0,"x_min":0,"x_max":0,"o":""},"布":{"ha":0,"x_min":0,"x_max":0,"o":""},"府":{"ha":0,"x_min":0,"x_max":0,"o":""},"怖":{"ha":0,"x_min":0,"x_max":0,"o":""},"扶":{"ha":0,"x_min":0,"x_max":0,"o":""},"敷":{"ha":0,"x_min":0,"x_max":0,"o":""},"普":{"ha":0,"x_min":0,"x_max":0,"o":""},"浮":{"ha":0,"x_min":0,"x_max":0,"o":""},"⽗":{"ha":0,"x_min":0,"x_max":0,"o":""},"符":{"ha":0,"x_min":0,"x_max":0,"o":""},"腐":{"ha":0,"x_min":0,"x_max":0,"o":""},"膚":{"ha":0,"x_min":0,"x_max":0,"o":""},"芙":{"ha":0,"x_min":0,"x_max":0,"o":""},"譜":{"ha":0,"x_min":0,"x_max":0,"o":""},"負":{"ha":0,"x_min":0,"x_max":0,"o":""},"賦":{"ha":0,"x_min":0,"x_max":0,"o":""},"赴":{"ha":0,"x_min":0,"x_max":0,"o":""},"⾩":{"ha":0,"x_min":0,"x_max":0,"o":""},"附":{"ha":0,"x_min":0,"x_max":0,"o":""},"侮":{"ha":0,"x_min":0,"x_max":0,"o":""},"撫":{"ha":0,"x_min":0,"x_max":0,"o":""},"武":{"ha":0,"x_min":0,"x_max":0,"o":""},"舞":{"ha":0,"x_min":0,"x_max":0,"o":""},"葡":{"ha":0,"x_min":0,"x_max":0,"o":""},"蕪":{"ha":0,"x_min":0,"x_max":0,"o":""},"部":{"ha":0,"x_min":0,"x_max":0,"o":""},"封":{"ha":0,"x_min":0,"x_max":0,"o":""},"楓":{"ha":0,"x_min":0,"x_max":0,"o":""},"⾵":{"ha":0,"x_min":0,"x_max":0,"o":""},"葺":{"ha":0,"x_min":0,"x_max":0,"o":""},"蕗":{"ha":0,"x_min":0,"x_max":0,"o":""},"伏":{"ha":0,"x_min":0,"x_max":0,"o":""},"副":{"ha":0,"x_min":0,"x_max":0,"o":""},"復":{"ha":0,"x_min":0,"x_max":0,"o":""},"幅":{"ha":0,"x_min":0,"x_max":0,"o":""},"服":{"ha":0,"x_min":0,"x_max":0,"o":""},"福":{"ha":0,"x_min":0,"x_max":0,"o":""},"腹":{"ha":0,"x_min":0,"x_max":0,"o":""},"複":{"ha":0,"x_min":0,"x_max":0,"o":""},"覆":{"ha":0,"x_min":0,"x_max":0,"o":""},"淵":{"ha":0,"x_min":0,"x_max":0,"o":""},"弗":{"ha":0,"x_min":0,"x_max":0,"o":""},"払":{"ha":0,"x_min":0,"x_max":0,"o":""},"沸":{"ha":0,"x_min":0,"x_max":0,"o":""},"仏":{"ha":0,"x_min":0,"x_max":0,"o":""},"物":{"ha":0,"x_min":0,"x_max":0,"o":""},"鮒":{"ha":0,"x_min":0,"x_max":0,"o":""},"分":{"ha":0,"x_min":0,"x_max":0,"o":""},"吻":{"ha":0,"x_min":0,"x_max":0,"o":""},"噴":{"ha":0,"x_min":0,"x_max":0,"o":""},"墳":{"ha":0,"x_min":0,"x_max":0,"o":""},"憤":{"ha":0,"x_min":0,"x_max":0,"o":""},"扮":{"ha":0,"x_min":0,"x_max":0,"o":""},"焚":{"ha":0,"x_min":0,"x_max":0,"o":""},"奮":{"ha":0,"x_min":0,"x_max":0,"o":""},"粉":{"ha":0,"x_min":0,"x_max":0,"o":""},"糞":{"ha":0,"x_min":0,"x_max":0,"o":""},"紛":{"ha":0,"x_min":0,"x_max":0,"o":""},"雰":{"ha":0,"x_min":0,"x_max":0,"o":""},"⽂":{"ha":0,"x_min":0,"x_max":0,"o":"m 1078 114 b 807 271 974 160 883 214 b 1011 790 889 394 963 561 l 1169 790 l 1169 858 l 893 858 b 1101 867 893 867 1029 867 b 981 794 1101 867 1106 783 l 586 794 l 586 726 l 1182 726 b 1047 313 1150 560 1101 424 b 808 604 885 464 808 604 b 975 183 808 604 797 407 b 665 -129 826 -49 665 -129 b 1069 79 665 -129 871 -128 b 1367 -129 1146 8 1242 -62 z "},"聞":{"ha":0,"x_min":0,"x_max":0,"o":""},"丙":{"ha":0,"x_min":0,"x_max":0,"o":""},"併":{"ha":0,"x_min":0,"x_max":0,"o":""},"兵":{"ha":0,"x_min":0,"x_max":0,"o":""},"塀":{"ha":0,"x_min":0,"x_max":0,"o":""},"幣":{"ha":0,"x_min":0,"x_max":0,"o":""},"平":{"ha":0,"x_min":0,"x_max":0,"o":""},"弊":{"ha":0,"x_min":0,"x_max":0,"o":""},"柄":{"ha":0,"x_min":0,"x_max":0,"o":""},"並":{"ha":0,"x_min":0,"x_max":0,"o":""},"閉":{"ha":0,"x_min":0,"x_max":0,"o":""},"陛":{"ha":0,"x_min":0,"x_max":0,"o":""},"⽶":{"ha":0,"x_min":0,"x_max":0,"o":""},"⾴":{"ha":0,"x_min":0,"x_max":0,"o":""},"僻":{"ha":0,"x_min":0,"x_max":0,"o":""},"壁":{"ha":0,"x_min":0,"x_max":0,"o":""},"癖":{"ha":0,"x_min":0,"x_max":0,"o":""},"碧":{"ha":0,"x_min":0,"x_max":0,"o":""},"別":{"ha":0,"x_min":0,"x_max":0,"o":""},"箆":{"ha":0,"x_min":0,"x_max":0,"o":""},"偏":{"ha":0,"x_min":0,"x_max":0,"o":""},"変":{"ha":0,"x_min":0,"x_max":0,"o":""},"⽚":{"ha":0,"x_min":0,"x_max":0,"o":""},"編":{"ha":0,"x_min":0,"x_max":0,"o":""},"辺":{"ha":0,"x_min":0,"x_max":0,"o":""},"返":{"ha":0,"x_min":0,"x_max":0,"o":""},"遍":{"ha":0,"x_min":0,"x_max":0,"o":""},"便":{"ha":0,"x_min":0,"x_max":0,"o":""},"勉":{"ha":0,"x_min":0,"x_max":0,"o":""},"弁":{"ha":0,"x_min":0,"x_max":0,"o":""},"保":{"ha":0,"x_min":0,"x_max":0,"o":""},"舗":{"ha":0,"x_min":0,"x_max":0,"o":""},"鋪":{"ha":0,"x_min":0,"x_max":0,"o":""},"圃":{"ha":0,"x_min":0,"x_max":0,"o":""},"捕":{"ha":0,"x_min":0,"x_max":0,"o":""},"歩":{"ha":0,"x_min":0,"x_max":0,"o":""},"甫":{"ha":0,"x_min":0,"x_max":0,"o":""},"補":{"ha":0,"x_min":0,"x_max":0,"o":""},"輔":{"ha":0,"x_min":0,"x_max":0,"o":""},"穂":{"ha":0,"x_min":0,"x_max":0,"o":""},"募":{"ha":0,"x_min":0,"x_max":0,"o":""},"墓":{"ha":0,"x_min":0,"x_max":0,"o":""},"慕":{"ha":0,"x_min":0,"x_max":0,"o":""},"戊":{"ha":0,"x_min":0,"x_max":0,"o":""},"暮":{"ha":0,"x_min":0,"x_max":0,"o":""},"⺟":{"ha":0,"x_min":0,"x_max":0,"o":""},"簿":{"ha":0,"x_min":0,"x_max":0,"o":""},"菩":{"ha":0,"x_min":0,"x_max":0,"o":""},"倣":{"ha":0,"x_min":0,"x_max":0,"o":""},"俸":{"ha":0,"x_min":0,"x_max":0,"o":""},"包":{"ha":0,"x_min":0,"x_max":0,"o":""},"呆":{"ha":0,"x_min":0,"x_max":0,"o":""},"報":{"ha":0,"x_min":0,"x_max":0,"o":""},"奉":{"ha":0,"x_min":0,"x_max":0,"o":""},"宝":{"ha":0,"x_min":0,"x_max":0,"o":""},"峰":{"ha":0,"x_min":0,"x_max":0,"o":""},"峯":{"ha":0,"x_min":0,"x_max":0,"o":""},"崩":{"ha":0,"x_min":0,"x_max":0,"o":""},"抱":{"ha":0,"x_min":0,"x_max":0,"o":""},"捧":{"ha":0,"x_min":0,"x_max":0,"o":""},"放":{"ha":0,"x_min":0,"x_max":0,"o":""},"⽅":{"ha":0,"x_min":0,"x_max":0,"o":""},"朋":{"ha":0,"x_min":0,"x_max":0,"o":""},"法":{"ha":0,"x_min":0,"x_max":0,"o":""},"泡":{"ha":0,"x_min":0,"x_max":0,"o":""},"烹":{"ha":0,"x_min":0,"x_max":0,"o":""},"砲":{"ha":0,"x_min":0,"x_max":0,"o":""},"縫":{"ha":0,"x_min":0,"x_max":0,"o":""},"胞":{"ha":0,"x_min":0,"x_max":0,"o":""},"芳":{"ha":0,"x_min":0,"x_max":0,"o":""},"萌":{"ha":0,"x_min":0,"x_max":0,"o":""},"蜂":{"ha":0,"x_min":0,"x_max":0,"o":""},"褒":{"ha":0,"x_min":0,"x_max":0,"o":""},"訪":{"ha":0,"x_min":0,"x_max":0,"o":""},"豊":{"ha":0,"x_min":0,"x_max":0,"o":""},"邦":{"ha":0,"x_min":0,"x_max":0,"o":""},"鋒":{"ha":0,"x_min":0,"x_max":0,"o":""},"飽":{"ha":0,"x_min":0,"x_max":0,"o":""},"鳳":{"ha":0,"x_min":0,"x_max":0,"o":""},"鵬":{"ha":0,"x_min":0,"x_max":0,"o":""},"乏":{"ha":0,"x_min":0,"x_max":0,"o":""},"亡":{"ha":0,"x_min":0,"x_max":0,"o":""},"傍":{"ha":0,"x_min":0,"x_max":0,"o":""},"剖":{"ha":0,"x_min":0,"x_max":0,"o":""},"坊":{"ha":0,"x_min":0,"x_max":0,"o":""},"妨":{"ha":0,"x_min":0,"x_max":0,"o":""},"帽":{"ha":0,"x_min":0,"x_max":0,"o":""},"忘":{"ha":0,"x_min":0,"x_max":0,"o":""},"忙":{"ha":0,"x_min":0,"x_max":0,"o":""},"房":{"ha":0,"x_min":0,"x_max":0,"o":""},"暴":{"ha":0,"x_min":0,"x_max":0,"o":""},"望":{"ha":0,"x_min":0,"x_max":0,"o":""},"某":{"ha":0,"x_min":0,"x_max":0,"o":""},"棒":{"ha":0,"x_min":0,"x_max":0,"o":""},"冒":{"ha":0,"x_min":0,"x_max":0,"o":""},"紡":{"ha":0,"x_min":0,"x_max":0,"o":""},"肪":{"ha":0,"x_min":0,"x_max":0,"o":""},"膨":{"ha":0,"x_min":0,"x_max":0,"o":""},"謀":{"ha":0,"x_min":0,"x_max":0,"o":""},"貌":{"ha":0,"x_min":0,"x_max":0,"o":""},"貿":{"ha":0,"x_min":0,"x_max":0,"o":""},"鉾":{"ha":0,"x_min":0,"x_max":0,"o":""},"防":{"ha":0,"x_min":0,"x_max":0,"o":""},"吠":{"ha":0,"x_min":0,"x_max":0,"o":""},"頬":{"ha":0,"x_min":0,"x_max":0,"o":""},"北":{"ha":0,"x_min":0,"x_max":0,"o":""},"僕":{"ha":0,"x_min":0,"x_max":0,"o":""},"⼘":{"ha":0,"x_min":0,"x_max":0,"o":""},"墨":{"ha":0,"x_min":0,"x_max":0,"o":""},"撲":{"ha":0,"x_min":0,"x_max":0,"o":""},"朴":{"ha":0,"x_min":0,"x_max":0,"o":""},"牧":{"ha":0,"x_min":0,"x_max":0,"o":""},"睦":{"ha":0,"x_min":0,"x_max":0,"o":""},"穆":{"ha":0,"x_min":0,"x_max":0,"o":""},"釦":{"ha":0,"x_min":0,"x_max":0,"o":""},"勃":{"ha":0,"x_min":0,"x_max":0,"o":""},"没":{"ha":0,"x_min":0,"x_max":0,"o":""},"殆":{"ha":0,"x_min":0,"x_max":0,"o":""},"堀":{"ha":0,"x_min":0,"x_max":0,"o":""},"幌":{"ha":0,"x_min":0,"x_max":0,"o":""},"奔":{"ha":0,"x_min":0,"x_max":0,"o":""},"本":{"ha":0,"x_min":0,"x_max":0,"o":"m 1064 844 l 794 844 l 796 990 l 796 1065 l 799 844 l 417 844 l 417 775 l 690 775 b 392 200 599 400 392 200 b 803 568 392 200 633 229 b 808 268 804 478 806 378 l 622 268 l 622 200 l 810 200 b 815 -69 811 115 813 25 l 975 -69 l 979 200 l 1160 200 l 1160 268 l 1090 268 b 1096 775 1093 478 1094 647 l 1476 775 l 1476 844 l 1421 899 z m 1126 740 b 1393 200 1126 740 1126 422 l 1488 371 "},"翻":{"ha":0,"x_min":0,"x_max":0,"o":""},"凡":{"ha":0,"x_min":0,"x_max":0,"o":""},"盆":{"ha":0,"x_min":0,"x_max":0,"o":""},"摩":{"ha":0,"x_min":0,"x_max":0,"o":""},"磨":{"ha":0,"x_min":0,"x_max":0,"o":""},"魔":{"ha":0,"x_min":0,"x_max":0,"o":""},"⿇":{"ha":0,"x_min":0,"x_max":0,"o":""},"埋":{"ha":0,"x_min":0,"x_max":0,"o":""},"妹":{"ha":0,"x_min":0,"x_max":0,"o":""},"昧":{"ha":0,"x_min":0,"x_max":0,"o":""},"枚":{"ha":0,"x_min":0,"x_max":0,"o":""},"毎":{"ha":0,"x_min":0,"x_max":0,"o":""},"哩":{"ha":0,"x_min":0,"x_max":0,"o":""},"槙":{"ha":0,"x_min":0,"x_max":0,"o":""},"幕":{"ha":0,"x_min":0,"x_max":0,"o":""},"膜":{"ha":0,"x_min":0,"x_max":0,"o":""},"枕":{"ha":0,"x_min":0,"x_max":0,"o":""},"鮪":{"ha":0,"x_min":0,"x_max":0,"o":""},"柾":{"ha":0,"x_min":0,"x_max":0,"o":""},"桝":{"ha":0,"x_min":0,"x_max":0,"o":""},"亦":{"ha":0,"x_min":0,"x_max":0,"o":""},"俣":{"ha":0,"x_min":0,"x_max":0,"o":""},"⼜":{"ha":0,"x_min":0,"x_max":0,"o":""},"抹":{"ha":0,"x_min":0,"x_max":0,"o":""},"末":{"ha":0,"x_min":0,"x_max":0,"o":""},"沫":{"ha":0,"x_min":0,"x_max":0,"o":""},"侭":{"ha":0,"x_min":0,"x_max":0,"o":""},"繭":{"ha":0,"x_min":0,"x_max":0,"o":""},"麿":{"ha":0,"x_min":0,"x_max":0,"o":""},"万":{"ha":0,"x_min":0,"x_max":0,"o":""},"慢":{"ha":0,"x_min":0,"x_max":0,"o":""},"満":{"ha":0,"x_min":0,"x_max":0,"o":""},"漫":{"ha":0,"x_min":0,"x_max":0,"o":""},"蔓":{"ha":0,"x_min":0,"x_max":0,"o":""},"味":{"ha":0,"x_min":0,"x_max":0,"o":""},"未":{"ha":0,"x_min":0,"x_max":0,"o":""},"魅":{"ha":0,"x_min":0,"x_max":0,"o":""},"⺒":{"ha":0,"x_min":0,"x_max":0,"o":""},"箕":{"ha":0,"x_min":0,"x_max":0,"o":""},"岬":{"ha":0,"x_min":0,"x_max":0,"o":""},"密":{"ha":0,"x_min":0,"x_max":0,"o":""},"蜜":{"ha":0,"x_min":0,"x_max":0,"o":""},"湊":{"ha":0,"x_min":0,"x_max":0,"o":""},"蓑":{"ha":0,"x_min":0,"x_max":0,"o":""},"稔":{"ha":0,"x_min":0,"x_max":0,"o":""},"脈":{"ha":0,"x_min":0,"x_max":0,"o":""},"妙":{"ha":0,"x_min":0,"x_max":0,"o":""},"粍":{"ha":0,"x_min":0,"x_max":0,"o":""},"⺠":{"ha":0,"x_min":0,"x_max":0,"o":""},"眠":{"ha":0,"x_min":0,"x_max":0,"o":""},"務":{"ha":0,"x_min":0,"x_max":0,"o":""},"夢":{"ha":0,"x_min":0,"x_max":0,"o":""},"無":{"ha":0,"x_min":0,"x_max":0,"o":""},"牟":{"ha":0,"x_min":0,"x_max":0,"o":""},"⽭":{"ha":0,"x_min":0,"x_max":0,"o":""},"霧":{"ha":0,"x_min":0,"x_max":0,"o":""},"鵡":{"ha":0,"x_min":0,"x_max":0,"o":""},"椋":{"ha":0,"x_min":0,"x_max":0,"o":""},"婿":{"ha":0,"x_min":0,"x_max":0,"o":""},"娘":{"ha":0,"x_min":0,"x_max":0,"o":""},"冥":{"ha":0,"x_min":0,"x_max":0,"o":""},"名":{"ha":0,"x_min":0,"x_max":0,"o":"m 269 313 b 432 321 269 313 333 297 b 449 -72 435 239 440 100 b 450 -47 449 -64 450 -56 b 410 688 450 215 425 407 l 249 688 l 249 668 l -15 668 l -15 686 b 414 1214 119 769 275 925 l 33 1214 b 69 1283 46 1236 58 1258 l -108 1364 b -221 1107 -108 1268 -410 1107 b -57 NaN -225 1107 -57 1350 l 115 NaN b -14 NaN 78 NaN 33 NaN b -214 NaN -117 NaN -214 NaN b -92 NaN -214 NaN -165 NaN b -414 NaN -253 NaN -414 NaN z m -64 NaN l 199 NaN b 192 NaN 194 NaN 193 NaN l -71 NaN b -64 NaN -67 NaN -65 NaN z "},"命":{"ha":0,"x_min":0,"x_max":0,"o":""},"明":{"ha":0,"x_min":0,"x_max":0,"o":""},"盟":{"ha":0,"x_min":0,"x_max":0,"o":""},"迷":{"ha":0,"x_min":0,"x_max":0,"o":""},"銘":{"ha":0,"x_min":0,"x_max":0,"o":""},"鳴":{"ha":0,"x_min":0,"x_max":0,"o":""},"姪":{"ha":0,"x_min":0,"x_max":0,"o":""},"牝":{"ha":0,"x_min":0,"x_max":0,"o":""},"滅":{"ha":0,"x_min":0,"x_max":0,"o":""},"免":{"ha":0,"x_min":0,"x_max":0,"o":""},"棉":{"ha":0,"x_min":0,"x_max":0,"o":""},"綿":{"ha":0,"x_min":0,"x_max":0,"o":""},"緬":{"ha":0,"x_min":0,"x_max":0,"o":""},"⾯":{"ha":0,"x_min":0,"x_max":0,"o":""},"麺":{"ha":0,"x_min":0,"x_max":0,"o":""},"摸":{"ha":0,"x_min":0,"x_max":0,"o":""},"模":{"ha":0,"x_min":0,"x_max":0,"o":""},"茂":{"ha":0,"x_min":0,"x_max":0,"o":""},"妄":{"ha":0,"x_min":0,"x_max":0,"o":""},"孟":{"ha":0,"x_min":0,"x_max":0,"o":""},"⽑":{"ha":0,"x_min":0,"x_max":0,"o":""},"猛":{"ha":0,"x_min":0,"x_max":0,"o":""},"盲":{"ha":0,"x_min":0,"x_max":0,"o":""},"網":{"ha":0,"x_min":0,"x_max":0,"o":""},"耗":{"ha":0,"x_min":0,"x_max":0,"o":""},"蒙":{"ha":0,"x_min":0,"x_max":0,"o":""},"⽊":{"ha":0,"x_min":0,"x_max":0,"o":"m 617 426 b 626 -69 619 281 622 114 b 633 679 631 244 632 494 l 364 679 l 365 889 l 365 997 l 369 679 l -14 679 l -14 611 l 261 611 b 28 36 190 226 28 36 b 375 358 28 36 239 74 z m 585 575 b 853 36 585 575 585 257 l 947 206 "},"黙":{"ha":0,"x_min":0,"x_max":0,"o":""},"⽬":{"ha":0,"x_min":0,"x_max":0,"o":"m 1056 -71 b 1038 1026 1056 -71 1051 374 l 876 1026 b 875 1003 876 1018 876 1011 b 453 460 875 650 899 460 b -183 NaN 468 460 -183 NaN l -22 NaN l -22 NaN l 332 NaN l 332 NaN z m -12 NaN l 340 NaN l 336 NaN l -14 NaN b -12 NaN -14 NaN -12 NaN z m -15 NaN l 336 NaN b 333 NaN 335 NaN 335 NaN l -17 NaN b -15 NaN -17 NaN -15 NaN z m -21 NaN b -18 NaN -19 NaN -19 NaN l 333 NaN b 332 NaN 332 NaN 332 NaN z "},"杢":{"ha":0,"x_min":0,"x_max":0,"o":""},"勿":{"ha":0,"x_min":0,"x_max":0,"o":""},"尤":{"ha":0,"x_min":0,"x_max":0,"o":""},"戻":{"ha":0,"x_min":0,"x_max":0,"o":""},"貰":{"ha":0,"x_min":0,"x_max":0,"o":""},"問":{"ha":0,"x_min":0,"x_max":0,"o":""},"悶":{"ha":0,"x_min":0,"x_max":0,"o":""},"紋":{"ha":0,"x_min":0,"x_max":0,"o":""},"⾨":{"ha":0,"x_min":0,"x_max":0,"o":""},"匁":{"ha":0,"x_min":0,"x_max":0,"o":""},"也":{"ha":0,"x_min":0,"x_max":0,"o":""},"冶":{"ha":0,"x_min":0,"x_max":0,"o":""},"夜":{"ha":0,"x_min":0,"x_max":0,"o":""},"耶":{"ha":0,"x_min":0,"x_max":0,"o":""},"野":{"ha":0,"x_min":0,"x_max":0,"o":""},"弥":{"ha":0,"x_min":0,"x_max":0,"o":""},"⽮":{"ha":0,"x_min":0,"x_max":0,"o":""},"厄":{"ha":0,"x_min":0,"x_max":0,"o":""},"役":{"ha":0,"x_min":0,"x_max":0,"o":""},"約":{"ha":0,"x_min":0,"x_max":0,"o":""},"薬":{"ha":0,"x_min":0,"x_max":0,"o":""},"訳":{"ha":0,"x_min":0,"x_max":0,"o":""},"躍":{"ha":0,"x_min":0,"x_max":0,"o":""},"靖":{"ha":0,"x_min":0,"x_max":0,"o":""},"柳":{"ha":0,"x_min":0,"x_max":0,"o":""},"薮":{"ha":0,"x_min":0,"x_max":0,"o":""},"愉":{"ha":0,"x_min":0,"x_max":0,"o":""},"油":{"ha":0,"x_min":0,"x_max":0,"o":""},"癒":{"ha":0,"x_min":0,"x_max":0,"o":""},"諭":{"ha":0,"x_min":0,"x_max":0,"o":""},"輸":{"ha":0,"x_min":0,"x_max":0,"o":""},"唯":{"ha":0,"x_min":0,"x_max":0,"o":""},"佑":{"ha":0,"x_min":0,"x_max":0,"o":""},"優":{"ha":0,"x_min":0,"x_max":0,"o":""},"勇":{"ha":0,"x_min":0,"x_max":0,"o":""},"友":{"ha":0,"x_min":0,"x_max":0,"o":""},"宥":{"ha":0,"x_min":0,"x_max":0,"o":""},"幽":{"ha":0,"x_min":0,"x_max":0,"o":""},"悠":{"ha":0,"x_min":0,"x_max":0,"o":""},"憂":{"ha":0,"x_min":0,"x_max":0,"o":""},"揖":{"ha":0,"x_min":0,"x_max":0,"o":""},"有":{"ha":0,"x_min":0,"x_max":0,"o":""},"柚":{"ha":0,"x_min":0,"x_max":0,"o":""},"湧":{"ha":0,"x_min":0,"x_max":0,"o":""},"涌":{"ha":0,"x_min":0,"x_max":0,"o":""},"猶":{"ha":0,"x_min":0,"x_max":0,"o":""},"由":{"ha":0,"x_min":0,"x_max":0,"o":""},"祐":{"ha":0,"x_min":0,"x_max":0,"o":""},"裕":{"ha":0,"x_min":0,"x_max":0,"o":""},"誘":{"ha":0,"x_min":0,"x_max":0,"o":""},"遊":{"ha":0,"x_min":0,"x_max":0,"o":""},"⾢":{"ha":0,"x_min":0,"x_max":0,"o":""},"郵":{"ha":0,"x_min":0,"x_max":0,"o":""},"雄":{"ha":0,"x_min":0,"x_max":0,"o":""},"融":{"ha":0,"x_min":0,"x_max":0,"o":""},"⼣":{"ha":0,"x_min":0,"x_max":0,"o":"m 1104 856 l 661 856 b 704 1019 678 904 692 958 l 514 1061 b 311 479 438 668 311 479 b 636 788 311 479 507 479 l 897 788 b 813 497 875 679 846 583 b 1063 192 813 331 922 192 b 1090 NaN 988 192 1090 90 b 740 NaN 935 NaN 740 NaN b 1444 NaN 740 NaN 1306 NaN z "},"予":{"ha":0,"x_min":0,"x_max":0,"o":""},"余":{"ha":0,"x_min":0,"x_max":0,"o":""},"与":{"ha":0,"x_min":0,"x_max":0,"o":""},"誉":{"ha":0,"x_min":0,"x_max":0,"o":""},"輿":{"ha":0,"x_min":0,"x_max":0,"o":""},"預":{"ha":0,"x_min":0,"x_max":0,"o":""},"傭":{"ha":0,"x_min":0,"x_max":0,"o":""},"幼":{"ha":0,"x_min":0,"x_max":0,"o":""},"妖":{"ha":0,"x_min":0,"x_max":0,"o":""},"容":{"ha":0,"x_min":0,"x_max":0,"o":""},"庸":{"ha":0,"x_min":0,"x_max":0,"o":""},"揚":{"ha":0,"x_min":0,"x_max":0,"o":""},"揺":{"ha":0,"x_min":0,"x_max":0,"o":""},"擁":{"ha":0,"x_min":0,"x_max":0,"o":""},"曜":{"ha":0,"x_min":0,"x_max":0,"o":""},"楊":{"ha":0,"x_min":0,"x_max":0,"o":""},"様":{"ha":0,"x_min":0,"x_max":0,"o":""},"洋":{"ha":0,"x_min":0,"x_max":0,"o":""},"溶":{"ha":0,"x_min":0,"x_max":0,"o":""},"熔":{"ha":0,"x_min":0,"x_max":0,"o":""},"⽤":{"ha":0,"x_min":0,"x_max":0,"o":""},"窯":{"ha":0,"x_min":0,"x_max":0,"o":""},"⽺":{"ha":0,"x_min":0,"x_max":0,"o":""},"耀":{"ha":0,"x_min":0,"x_max":0,"o":""},"葉":{"ha":0,"x_min":0,"x_max":0,"o":""},"蓉":{"ha":0,"x_min":0,"x_max":0,"o":""},"要":{"ha":0,"x_min":0,"x_max":0,"o":""},"謡":{"ha":0,"x_min":0,"x_max":0,"o":""},"踊":{"ha":0,"x_min":0,"x_max":0,"o":""},"遥":{"ha":0,"x_min":0,"x_max":0,"o":""},"陽":{"ha":0,"x_min":0,"x_max":0,"o":""},"養":{"ha":0,"x_min":0,"x_max":0,"o":""},"慾":{"ha":0,"x_min":0,"x_max":0,"o":""},"抑":{"ha":0,"x_min":0,"x_max":0,"o":""},"欲":{"ha":0,"x_min":0,"x_max":0,"o":""},"沃":{"ha":0,"x_min":0,"x_max":0,"o":""},"浴":{"ha":0,"x_min":0,"x_max":0,"o":""},"翌":{"ha":0,"x_min":0,"x_max":0,"o":""},"翼":{"ha":0,"x_min":0,"x_max":0,"o":""},"淀":{"ha":0,"x_min":0,"x_max":0,"o":""},"羅":{"ha":0,"x_min":0,"x_max":0,"o":""},"螺":{"ha":0,"x_min":0,"x_max":0,"o":""},"裸":{"ha":0,"x_min":0,"x_max":0,"o":""},"来":{"ha":0,"x_min":0,"x_max":0,"o":""},"莱":{"ha":0,"x_min":0,"x_max":0,"o":""},"頼":{"ha":0,"x_min":0,"x_max":0,"o":""},"雷":{"ha":0,"x_min":0,"x_max":0,"o":""},"洛":{"ha":0,"x_min":0,"x_max":0,"o":""},"絡":{"ha":0,"x_min":0,"x_max":0,"o":""},"落":{"ha":0,"x_min":0,"x_max":0,"o":""},"酪":{"ha":0,"x_min":0,"x_max":0,"o":""},"乱":{"ha":0,"x_min":0,"x_max":0,"o":""},"卵":{"ha":0,"x_min":0,"x_max":0,"o":""},"嵐":{"ha":0,"x_min":0,"x_max":0,"o":""},"欄":{"ha":0,"x_min":0,"x_max":0,"o":""},"濫":{"ha":0,"x_min":0,"x_max":0,"o":""},"藍":{"ha":0,"x_min":0,"x_max":0,"o":""}}}
